<svg width="517" height="285" viewBox="0 0 517 285" fill="none" xmlns="http://www.w3.org/2000/svg">
<rect x="143.001" y="125.541" width="30" height="158.23" rx="15" transform="rotate(-62.2161 143.001 125.541)" fill="#D9D9D9"/>
<rect x="287.37" y="161" width="30" height="152.033" rx="15" transform="rotate(73.6687 287.37 161)" fill="#D9D9D9"/>
<rect x="507.836" y="0.419693" width="30" height="374.964" rx="15" transform="rotate(73.6687 507.836 0.419693)" fill="#D9D9D9"/>
<path fill-rule="evenodd" clip-rule="evenodd" d="M80.9999 277.5V202L168.974 176.5L174.001 175V250L123.941 264.802L122.725 264.5L122.926 265.102L80.9999 277.5Z" fill="#C7C7C7"/>
<path d="M80.9999 202L80.8607 201.52L80.4999 201.624V202H80.9999ZM80.9999 277.5H80.4999V278.169L81.1417 277.979L80.9999 277.5ZM168.974 176.5L169.113 176.98L169.117 176.979L168.974 176.5ZM174.001 175H174.501V174.329L173.858 174.521L174.001 175ZM174.001 250L174.142 250.479L174.501 250.374V250H174.001ZM123.941 264.802L123.82 265.288L123.952 265.321L124.083 265.282L123.941 264.802ZM122.725 264.5L122.845 264.015L121.961 263.795L122.25 264.659L122.725 264.5ZM122.926 265.102L123.068 265.582L123.565 265.435L123.401 264.944L122.926 265.102ZM80.4999 202V277.5H81.4999V202H80.4999ZM168.834 176.02L80.8607 201.52L81.1391 202.48L169.113 176.98L168.834 176.02ZM173.858 174.521L168.831 176.021L169.117 176.979L174.144 175.479L173.858 174.521ZM174.501 250V175H173.501V250H174.501ZM124.083 265.282L174.142 250.479L173.859 249.521L123.799 264.323L124.083 265.282ZM122.604 264.985L123.82 265.288L124.062 264.317L122.845 264.015L122.604 264.985ZM123.401 264.944L123.199 264.341L122.25 264.659L122.452 265.261L123.401 264.944ZM81.1417 277.979L123.068 265.582L122.785 264.623L80.8581 277.021L81.1417 277.979Z" fill="#C7C7C7"/>
<path d="M80.0006 202V277.5L2.00061 237V161.5L80.0006 202Z" fill="#FAFAFA" stroke="#FAFAFA"/>
<path d="M2.00061 161L80.5006 201.5L173.501 174.5L96.0006 134L2.00061 161Z" fill="#E6E6E6" stroke="#E6E6E6"/>
<path fill-rule="evenodd" clip-rule="evenodd" d="M125.02 265.124L92.0006 274.5L90.9347 276.738C90.3289 274.936 90.0006 273.006 90.0006 271C90.0006 261.059 98.0595 253 108.001 253C115.884 253 122.584 258.068 125.02 265.124Z" fill="#CCCCCC"/>
<path fill-rule="evenodd" clip-rule="evenodd" d="M103.428 283.933C111.043 283.214 117.001 276.803 117.001 269C117.001 260.716 110.285 254 102.001 254C93.7163 254 87.0006 260.716 87.0006 269C87.0006 274.389 89.8422 279.114 94.1088 281.759L103.428 283.933Z" fill="#646464"/>
<circle cx="109.001" cy="270" r="15" fill="#8E8E8E"/>
<path d="M111.501 255L103.001 254L107.501 255H111.501Z" fill="#646464" stroke="#646464" stroke-width="0.1"/>
<path d="M155.501 242L147.001 241L151.501 242H155.501Z" fill="#646464" stroke="#646464" stroke-width="0.1"/>
<path fill-rule="evenodd" clip-rule="evenodd" d="M125.001 264.5C125.001 264.683 124.998 264.866 124.993 265.048C122.536 258.032 115.856 253 108.001 253C98.0595 253 90.0006 261.059 90.0006 271C90.0006 272.407 90.162 273.776 90.4673 275.09L87.6473 276.174C85.3481 272.861 84.0006 268.838 84.0006 264.5C84.0006 253.178 93.1788 244 104.501 244C115.822 244 125.001 253.178 125.001 264.5Z" fill="#C7C7C7"/>
<ellipse cx="110.363" cy="269.25" rx="2" ry="1.85" transform="rotate(-12.8996 110.363 269.25)" fill="black"/>
<path fill-rule="evenodd" clip-rule="evenodd" d="M174.02 252.124L141.001 261.5L139.935 263.738C139.329 261.936 139.001 260.006 139.001 258C139.001 248.059 147.059 240 157.001 240C164.884 240 171.584 245.068 174.02 252.124Z" fill="#CCCCCC"/>
<path fill-rule="evenodd" clip-rule="evenodd" d="M151.001 271C159.285 271 166.001 264.284 166.001 256C166.001 247.716 159.285 241 151.001 241C142.716 241 136.001 247.716 136.001 256C136.001 262.057 139.59 267.275 144.758 269.644L150.543 270.993C150.695 270.998 150.847 271 151.001 271Z" fill="#646464"/>
<path fill-rule="evenodd" clip-rule="evenodd" d="M158.001 272C166.285 272 173.001 265.284 173.001 257C173.001 248.716 166.285 242 158.001 242C149.716 242 143.001 248.716 143.001 257C143.001 265.284 149.716 272 158.001 272Z" fill="#8E8E8E"/>
<path fill-rule="evenodd" clip-rule="evenodd" d="M151.474 271.211L157.001 272L152.501 271L149.501 270.75L151.474 271.211Z" fill="#646464"/>
<path d="M151.474 271.211L151.463 271.259L151.467 271.26L151.474 271.211ZM157.001 272L156.994 272.049L157.011 271.951L157.001 272ZM152.501 271L152.512 270.951L152.505 270.95L152.501 271ZM149.501 270.75L149.505 270.7L149.489 270.799L149.501 270.75ZM151.467 271.26L156.994 272.049L157.008 271.951L151.481 271.161L151.467 271.26ZM157.011 271.951L152.511 270.951L152.49 271.049L156.99 272.049L157.011 271.951ZM152.505 270.95L149.505 270.7L149.496 270.8L152.496 271.05L152.505 270.95ZM149.489 270.799L151.463 271.259L151.486 271.162L149.512 270.701L149.489 270.799Z" fill="#646464"/>
<path d="M160.501 242L152.001 241L156.501 242H160.501Z" fill="#646464" stroke="#646464" stroke-width="0.1"/>
<path fill-rule="evenodd" clip-rule="evenodd" d="M173.993 252.048C173.998 251.866 174.001 251.683 174.001 251.5C174.001 240.178 164.822 231 153.501 231C142.179 231 133.001 240.178 133.001 251.5C133.001 255.293 134.03 258.845 135.826 261.892L139.211 260.763C139.073 259.862 139.001 258.94 139.001 258C139.001 248.059 147.059 240 157.001 240C164.856 240 171.536 245.032 173.993 252.048Z" fill="#C7C7C7"/>
<ellipse cx="160.363" cy="256.25" rx="2" ry="1.85" transform="rotate(-12.8996 160.363 256.25)" fill="black"/>
<rect x="136.001" y="127" width="8" height="48" rx="4" fill="url(#paint0_linear_9_204)"/>
<circle cx="140.001" cy="129" r="10" fill="url(#paint1_linear_9_204)"/>
<defs>
<linearGradient id="paint0_linear_9_204" x1="136.001" y1="159" x2="144.001" y2="159" gradientUnits="userSpaceOnUse">
<stop stop-color="#DBDBDB"/>
<stop offset="1" stop-color="#C5C5C5"/>
</linearGradient>
<linearGradient id="paint1_linear_9_204" x1="130.001" y1="129" x2="150.001" y2="129" gradientUnits="userSpaceOnUse">
<stop stop-color="#437ACD"/>
<stop offset="1" stop-color="#345C98"/>
</linearGradient>
</defs>
</svg>
