<svg width="1495" height="1052" viewBox="0 0 1495 1052" fill="none" xmlns="http://www.w3.org/2000/svg">
<rect x="1014" y="153.541" width="30" height="261.489" rx="15" transform="rotate(-62.2161 1014 153.541)" fill="#D9D9D9"/>
<rect x="774" y="395.541" width="30" height="272.41" rx="15" transform="rotate(-62.2161 774 395.541)" fill="#D9D9D9"/>
<rect x="0.999977" y="812.542" width="30" height="179.943" rx="15" transform="rotate(-62.2161 0.999977 812.542)" fill="#D9D9D9"/>
<rect x="197.937" y="918.712" width="30" height="98.7452" rx="15" transform="rotate(-62.2161 197.937 918.712)" fill="#D9D9D9"/>
<rect x="326.256" y="985.902" width="30" height="57.3825" rx="15" transform="rotate(-62.2161 326.256 985.902)" fill="#D9D9D9"/>
<rect x="421" y="1035.54" width="30" height="33.5093" rx="15" transform="rotate(-62.2161 421 1035.54)" fill="#D9D9D9"/>
<rect x="1485.67" width="30" height="491.503" rx="15" transform="rotate(73.6687 1485.67 0)" fill="#D9D9D9"/>
<rect x="1245.67" y="240" width="30" height="491.503" rx="15" transform="rotate(73.6687 1245.67 240)" fill="#D9D9D9"/>
<rect x="1021.74" y="491.636" width="30" height="1063.9" rx="15" transform="rotate(73.6687 1021.74 491.636)" fill="#D9D9D9"/>
</svg>
