<svg width="649" height="309" viewBox="0 0 649 309" fill="none" xmlns="http://www.w3.org/2000/svg">
<g filter="url(#filter0_d_10_380)">
<rect x="4.8845" y="195.624" width="636.785" height="104.87" rx="18.5" transform="rotate(-17.6716 4.8845 195.624)" fill="#F1F1F1" stroke="#D3D3D3" stroke-width="3"/>
<path d="M54.1319 253.05L43.4386 219.482L51.5571 216.896L68.7793 237.981L68.9188 237.936L70.7717 210.775L78.8902 208.189L89.5835 241.756L83.326 243.75L76.0934 221.046L72.8366 222.083L76.6975 209.912L74.0676 246.699L69.6478 248.107L46.224 219.62L56.4135 227.315L53.1568 228.352L60.3895 251.056L54.1319 253.05ZM101.62 238.357C99.9604 238.886 98.4014 239.032 96.9426 238.797C95.479 238.546 94.2102 237.968 93.1361 237.063C92.0727 236.137 91.3088 234.946 90.8444 233.488L90.8296 233.442C90.3454 231.922 90.3128 230.506 90.7318 229.194C91.1459 227.866 91.9753 226.662 93.2199 225.583C94.4646 224.503 96.096 223.565 98.1141 222.768L107.645 219.066L108.994 223.299L100.472 226.629C99.1935 227.122 98.2998 227.748 97.7904 228.508C97.276 229.253 97.1596 230.067 97.4412 230.951L97.456 230.998C97.7475 231.913 98.3261 232.523 99.192 232.828C100.053 233.117 101.073 233.074 102.251 232.699C103.259 232.377 104.097 231.897 104.764 231.257C105.442 230.597 105.898 229.854 106.13 229.029C106.373 228.183 106.356 227.325 106.079 226.457L103.671 218.897C103.32 217.796 102.695 217.038 101.794 216.625C100.889 216.196 99.7692 216.194 98.4355 216.619C97.1639 217.024 96.2398 217.608 95.6634 218.373C95.087 219.137 94.8419 219.95 94.9282 220.811L94.9484 221.035L88.7374 223.013L88.6717 222.727C88.3067 221.152 88.376 219.627 88.8795 218.151C89.3986 216.67 90.3428 215.345 91.7122 214.174C93.0922 212.983 94.8755 212.039 97.0621 211.342C99.2178 210.655 101.198 210.409 103.002 210.603C104.801 210.781 106.335 211.36 107.604 212.34C108.888 213.315 109.797 214.639 110.33 216.314L115.777 233.412L108.984 235.576L107.799 231.854L107.659 231.898C107.465 232.899 107.095 233.829 106.549 234.686C106.012 235.523 105.333 236.26 104.512 236.898C103.685 237.52 102.721 238.007 101.62 238.357ZM120.313 231.967L112.369 207.03L119.161 204.866L127.106 229.803L120.313 231.967ZM114.743 202.738C113.719 203.064 112.747 202.989 111.827 202.513C110.907 202.038 110.294 201.319 109.987 200.358C109.676 199.381 109.761 198.44 110.241 197.535C110.717 196.615 111.466 195.992 112.49 195.666C113.513 195.34 114.485 195.415 115.405 195.89C116.321 196.35 116.934 197.069 117.245 198.046C117.551 199.007 117.467 199.948 116.991 200.868C116.516 201.788 115.766 202.412 114.743 202.738ZM131.665 228.35L123.721 203.413L130.513 201.25L131.818 205.344L131.957 205.299C132.154 203.665 132.757 202.234 133.767 201.007C134.777 199.78 136.22 198.868 138.097 198.27C140.842 197.396 143.223 197.551 145.24 198.736C147.268 199.901 148.749 201.949 149.683 204.88L154.811 220.977L148.018 223.141L143.335 208.439C142.816 206.811 142.028 205.678 140.971 205.041C139.925 204.384 138.642 204.297 137.122 204.781C136.114 205.102 135.312 205.614 134.716 206.317C134.114 207.003 133.735 207.825 133.579 208.78C133.437 209.73 133.542 210.756 133.893 211.857L138.457 226.187L131.665 228.35ZM167 217.094L168.031 179.792L174.219 177.82L176.294 184.334L174.154 185.016L174.374 214.745L167 217.094ZM170.711 206.944L170.757 201.138L186.413 196.151L189.809 200.86L170.711 206.944ZM191.309 209.35L174.293 184.971L172.218 178.458L176.289 177.161L198.683 207.001L191.309 209.35ZM209.361 204.163C207.531 204.746 205.854 204.87 204.329 204.536C202.816 204.181 201.495 203.415 200.368 202.236C199.257 201.053 198.392 199.492 197.775 197.554L192.647 181.456L199.439 179.292L204.115 193.971C204.634 195.599 205.417 196.742 206.463 197.399C207.525 198.052 208.816 198.136 210.336 197.652C211.096 197.41 211.736 197.06 212.257 196.604C212.793 196.143 213.202 195.603 213.483 194.984C213.759 194.349 213.907 193.661 213.927 192.92C213.943 192.164 213.822 191.382 213.565 190.576L209 176.246L215.793 174.083L223.737 199.02L216.944 201.184L215.633 197.066L215.493 197.111C215.36 198.195 215.048 199.2 214.557 200.125C214.082 201.045 213.407 201.849 212.533 202.538C211.674 203.221 210.617 203.763 209.361 204.163ZM238.229 194.967C235.469 195.846 233.237 195.917 231.532 195.178C229.828 194.44 228.551 192.737 227.701 190.07L223.611 177.229L220.145 178.333L218.514 173.216L221.98 172.111L220.039 166.017L226.901 163.831L228.843 169.925L233.402 168.473L235.033 173.591L230.473 175.043L234.327 187.139C234.697 188.302 235.212 189.035 235.872 189.337C236.543 189.619 237.39 189.597 238.413 189.271C238.724 189.172 238.993 189.078 239.22 188.988C239.443 188.883 239.65 188.783 239.842 188.688L241.428 193.666C241.075 193.846 240.627 194.049 240.084 194.273C239.561 194.508 238.943 194.739 238.229 194.967ZM256.374 189.186C253.846 189.992 251.494 190.169 249.317 189.718C247.141 189.266 245.24 188.232 243.614 186.615C241.989 184.997 240.746 182.839 239.887 180.141L239.872 180.095C239.017 177.412 238.795 174.946 239.206 172.697C239.612 170.432 240.572 168.486 242.087 166.859C243.601 165.232 245.599 164.024 248.08 163.233C250.577 162.438 252.914 162.266 255.09 162.717C257.277 163.148 259.191 164.169 260.833 165.782C262.469 167.379 263.717 169.526 264.576 172.225L264.591 172.271C265.456 174.985 265.685 177.474 265.279 179.739C264.888 181.999 263.936 183.942 262.421 185.569C260.902 187.18 258.886 188.386 256.374 189.186ZM254.7 183.852C255.801 183.501 256.661 182.903 257.28 182.057C257.909 181.19 258.26 180.121 258.334 178.851C258.418 177.56 258.201 176.1 257.682 174.472L257.667 174.426C257.154 172.813 256.491 171.512 255.681 170.523C254.871 169.534 253.961 168.876 252.951 168.549C251.936 168.206 250.879 168.209 249.777 168.56C248.692 168.906 247.834 169.512 247.205 170.379C246.587 171.225 246.233 172.286 246.144 173.561C246.054 174.837 246.267 176.281 246.781 177.894L246.795 177.94C247.314 179.569 247.973 180.887 248.773 181.897C249.584 182.885 250.496 183.551 251.511 183.894C252.52 184.222 253.584 184.208 254.7 183.852ZM282.102 180.427L271.408 146.859L285.273 142.443C287.785 141.642 290.069 141.385 292.124 141.669C294.194 141.949 295.96 142.745 297.419 144.056C298.89 145.348 299.983 147.117 300.7 149.366L300.714 149.413C301.416 151.615 301.49 153.752 300.938 155.824C300.4 157.891 299.317 159.586 297.689 160.907L308.97 171.868L301.014 174.402L290.881 164.229C290.834 164.244 290.78 164.261 290.718 164.281C290.656 164.301 290.594 164.321 290.532 164.34L285.251 166.023L289.127 178.189L282.102 180.427ZM283.554 160.696L289.626 158.761C291.378 158.203 292.595 157.303 293.275 156.061C293.966 154.799 294.05 153.346 293.526 151.702L293.512 151.656C292.998 150.043 292.078 148.927 290.753 148.307C289.429 147.687 287.898 147.653 286.161 148.207L280.182 150.111L283.554 160.696ZM323.416 167.829C320.888 168.635 318.536 168.812 316.359 168.361C314.183 167.909 312.282 166.875 310.656 165.258C309.03 163.64 307.788 161.482 306.928 158.784L306.913 158.737C306.059 156.055 305.837 153.589 306.248 151.34C306.654 149.075 307.614 147.129 309.129 145.502C310.643 143.875 312.641 142.667 315.122 141.876C317.619 141.081 319.956 140.909 322.132 141.36C324.319 141.79 326.233 142.812 327.874 144.424C329.51 146.021 330.758 148.169 331.618 150.868L331.633 150.914C332.497 153.628 332.727 156.117 332.321 158.382C331.93 160.641 330.978 162.585 329.463 164.212C327.944 165.823 325.928 167.029 323.416 167.829ZM321.742 162.495C322.843 162.144 323.703 161.546 324.321 160.699C324.951 159.833 325.302 158.764 325.376 157.494C325.46 156.203 325.243 154.743 324.724 153.115L324.709 153.068C324.195 151.456 323.533 150.155 322.723 149.166C321.912 148.177 321.002 147.519 319.993 147.191C318.978 146.849 317.92 146.852 316.819 147.203C315.734 147.549 314.876 148.155 314.247 149.022C313.628 149.868 313.274 150.929 313.185 152.204C313.096 153.48 313.309 154.924 313.822 156.537L313.837 156.583C314.356 158.211 315.015 159.53 315.815 160.54C316.625 161.528 317.538 162.194 318.552 162.537C319.562 162.865 320.625 162.851 321.742 162.495ZM347.771 160.071C345.941 160.654 344.264 160.778 342.74 160.443C341.226 160.089 339.906 159.322 338.779 158.144C337.667 156.96 336.803 155.4 336.185 153.461L331.057 137.364L337.85 135.2L342.526 149.878C343.044 151.507 343.827 152.649 344.873 153.307C345.935 153.959 347.226 154.043 348.746 153.559C349.506 153.317 350.146 152.968 350.667 152.512C351.203 152.05 351.612 151.51 351.893 150.891C352.169 150.257 352.318 149.569 352.338 148.828C352.353 148.071 352.232 147.29 351.975 146.484L347.41 132.154L354.203 129.99L362.147 154.927L355.354 157.091L354.043 152.974L353.903 153.018C353.77 154.102 353.458 155.107 352.967 156.032C352.492 156.952 351.817 157.757 350.943 158.445C350.085 159.129 349.027 159.67 347.771 160.071ZM376.64 150.874C373.879 151.754 371.647 151.824 369.943 151.086C368.238 150.348 366.961 148.645 366.112 145.977L362.021 133.137L358.555 134.241L356.925 129.123L360.391 128.019L358.449 121.924L365.311 119.738L367.253 125.833L371.812 124.38L373.443 129.498L368.883 130.951L372.737 143.047C373.107 144.21 373.623 144.943 374.283 145.245C374.953 145.527 375.8 145.504 376.824 145.178C377.134 145.08 377.403 144.985 377.63 144.896C377.853 144.791 378.06 144.69 378.252 144.595L379.838 149.573C379.486 149.754 379.038 149.956 378.494 150.181C377.971 150.416 377.353 150.647 376.64 150.874ZM383.641 148.08L375.697 123.143L382.49 120.979L390.434 145.916L383.641 148.08ZM378.071 118.851C377.047 119.177 376.075 119.102 375.155 118.626C374.235 118.151 373.622 117.432 373.316 116.471C373.004 115.494 373.089 114.553 373.569 113.648C374.045 112.728 374.795 112.105 375.818 111.779C376.842 111.453 377.813 111.528 378.734 112.003C379.649 112.463 380.262 113.182 380.573 114.159C380.88 115.12 380.795 116.061 380.319 116.981C379.844 117.902 379.094 118.525 378.071 118.851ZM394.993 144.464L387.049 119.526L393.842 117.363L395.146 121.457L395.286 121.412C395.482 119.778 396.086 118.347 397.096 117.12C398.105 115.893 399.549 114.981 401.425 114.383C404.17 113.509 406.551 113.664 408.569 114.849C410.597 116.014 412.077 118.062 413.011 120.993L418.139 137.09L411.347 139.254L406.663 124.552C406.144 122.924 405.357 121.791 404.3 121.154C403.253 120.497 401.97 120.41 400.45 120.894C399.442 121.216 398.64 121.727 398.044 122.43C397.443 123.117 397.064 123.938 396.907 124.893C396.765 125.843 396.87 126.869 397.221 127.97L401.786 142.3L394.993 144.464ZM433.958 132.615C431.414 133.425 429.062 133.602 426.901 133.146C424.735 132.674 422.847 131.627 421.237 130.005C419.643 128.378 418.423 126.238 417.578 123.586L417.571 123.563C416.726 120.911 416.483 118.46 416.843 116.21C417.213 113.94 418.122 111.994 419.569 110.371C421.027 108.728 422.974 107.519 425.408 106.743C427.843 105.967 430.11 105.817 432.209 106.293C434.318 106.749 436.153 107.761 437.712 109.332C439.287 110.897 440.474 112.936 441.275 115.448L441.942 117.542L421.401 124.085L420.038 119.805L437.368 114.284L435.409 119.315L434.579 116.71C434.115 115.252 433.502 114.106 432.741 113.273C431.975 112.423 431.11 111.879 430.146 111.64C429.197 111.395 428.195 111.441 427.14 111.777C426.086 112.113 425.229 112.668 424.57 113.441C423.927 114.21 423.53 115.165 423.381 116.305C423.243 117.426 423.401 118.699 423.855 120.126L424.693 122.755C425.132 124.135 425.733 125.242 426.494 126.076C427.27 126.904 428.169 127.447 429.19 127.702C430.206 127.942 431.303 127.874 432.482 127.499C433.412 127.203 434.172 126.798 434.76 126.286C435.349 125.774 435.788 125.224 436.079 124.636C436.37 124.048 436.519 123.497 436.526 122.982L436.528 122.828L442.762 120.842L442.774 121.12C442.88 122.094 442.809 123.133 442.563 124.236C442.316 125.34 441.851 126.427 441.168 127.499C440.5 128.566 439.573 129.545 438.388 130.435C437.218 131.32 435.741 132.047 433.958 132.615Z" fill="black"/>
<path d="M557.701 66.5779L581.402 78.827L593.651 55.1253" stroke="#1E1E1E" stroke-width="4" stroke-linecap="round" stroke-linejoin="round"/>
</g>
<defs>
<filter id="filter0_d_10_380" x="0.12204" y="5.55811" width="648.096" height="302.75" filterUnits="userSpaceOnUse" color-interpolation-filters="sRGB">
<feFlood flood-opacity="0" result="BackgroundImageFix"/>
<feColorMatrix in="SourceAlpha" type="matrix" values="0 0 0 0 0 0 0 0 0 0 0 0 0 0 0 0 0 0 127 0" result="hardAlpha"/>
<feOffset dy="8"/>
<feGaussianBlur stdDeviation="4"/>
<feComposite in2="hardAlpha" operator="out"/>
<feColorMatrix type="matrix" values="0 0 0 0 0 0 0 0 0 0 0 0 0 0 0 0 0 0 0.25 0"/>
<feBlend mode="normal" in2="BackgroundImageFix" result="effect1_dropShadow_10_380"/>
<feBlend mode="normal" in="SourceGraphic" in2="effect1_dropShadow_10_380" result="shape"/>
</filter>
</defs>
</svg>
