<svg width="219" height="154" viewBox="0 0 219 154" fill="none" xmlns="http://www.w3.org/2000/svg">
<mask id="path-1-outside-1_2005_3" maskUnits="userSpaceOnUse" x="9.51064" y="10.5683" width="117.541" height="127.591" fill="black">
<rect fill="white" x="9.51064" y="10.5683" width="117.541" height="127.591"/>
<path d="M54.1816 101.352L42.6117 99.5652C41.8582 99.4069 41.2882 98.7149 41.3924 97.8785L50.2715 41.3055L50.3003 41.1685C50.4442 40.4834 51.1903 39.9964 51.8897 40.0718L65.7346 42.2647L65.8716 42.2935C66.6252 42.4517 67.0437 43.1834 66.9539 43.9514L63.9558 62.9917C66.7317 62.7164 69.6267 62.8954 72.504 63.4997C85.6569 66.2626 92.605 76.0907 90.0148 88.4216C87.3959 100.89 74.6617 107.37 62.6734 104.852C59.7276 104.233 56.897 103.067 54.1816 101.352ZM61.8781 76.2886L59.7537 90.1478C60.8463 90.735 61.9136 91.1022 63.0097 91.3325C67.8051 92.3397 72.1265 89.8142 73.105 85.1558C73.7238 82.2101 73.2637 77.2496 67.6463 76.0696C65.6596 75.6523 63.5435 75.8516 61.8781 76.2886Z"/>
</mask>
<path d="M54.1816 101.352L42.6117 99.5652C41.8582 99.4069 41.2882 98.7149 41.3924 97.8785L50.2715 41.3055L50.3003 41.1685C50.4442 40.4834 51.1903 39.9964 51.8897 40.0718L65.7346 42.2647L65.8716 42.2935C66.6252 42.4517 67.0437 43.1834 66.9539 43.9514L63.9558 62.9917C66.7317 62.7164 69.6267 62.8954 72.504 63.4997C85.6569 66.2626 92.605 76.0907 90.0148 88.4216C87.3959 100.89 74.6617 107.37 62.6734 104.852C59.7276 104.233 56.897 103.067 54.1816 101.352ZM61.8781 76.2886L59.7537 90.1478C60.8463 90.735 61.9136 91.1022 63.0097 91.3325C67.8051 92.3397 72.1265 89.8142 73.105 85.1558C73.7238 82.2101 73.2637 77.2496 67.6463 76.0696C65.6596 75.6523 63.5435 75.8516 61.8781 76.2886Z" fill="#4AC6FF"/>
<path d="M54.1816 101.352L66.9963 81.0592L62.7764 78.3944L57.8441 77.6328L54.1816 101.352ZM42.6117 99.5652L37.6781 123.053L38.3106 123.185L38.9492 123.284L42.6117 99.5652ZM41.3924 97.8785L17.6827 94.1572L17.6235 94.534L17.5764 94.9125L41.3924 97.8785ZM50.2715 41.3055L26.7841 36.3719L26.6574 36.9752L26.5618 37.5843L50.2715 41.3055ZM51.8897 40.0718L55.6442 16.3673L55.0549 16.274L54.4618 16.21L51.8897 40.0718ZM65.7346 42.2647L70.6682 18.7772L70.0814 18.654L69.4891 18.5602L65.7346 42.2647ZM66.9539 43.9514L90.6618 47.6844L90.7361 47.2126L90.7916 46.7382L66.9539 43.9514ZM63.9558 62.9917L40.2479 59.2587L35.417 89.9393L66.3241 86.8746L63.9558 62.9917ZM61.8781 76.2885L55.7869 53.0744L40.543 57.0742L38.1551 72.6523L61.8781 76.2885ZM59.7537 90.1478L36.0308 86.5116L33.4627 103.266L48.3932 111.289L59.7537 90.1478ZM57.8441 77.6328L46.2742 75.8463L38.9492 123.284L50.5191 125.071L57.8441 77.6328ZM47.5453 76.0777C57.9292 78.2589 66.7793 88.2306 65.2084 100.845L17.5764 94.9125C15.7971 109.199 25.7872 120.555 37.6781 123.053L47.5453 76.0777ZM65.1022 101.6L73.9813 45.0268L26.5618 37.5843L17.6827 94.1572L65.1022 101.6ZM73.759 46.2391L73.7877 46.1021L26.8129 36.2349L26.7841 36.3719L73.759 46.2391ZM73.7877 46.1021C72.3649 52.8757 68.2704 57.5445 64.3567 60.1985C60.4604 62.8407 55.2113 64.5689 49.3176 63.9336L54.4618 16.21C42.9134 14.9652 29.7727 22.1438 26.8129 36.2349L73.7877 46.1021ZM48.1352 63.7763L61.9801 65.9692L69.4891 18.5602L55.6442 16.3673L48.1352 63.7763ZM60.801 65.7521L60.938 65.7809L70.8052 18.806L70.6682 18.7772L60.801 65.7521ZM60.938 65.7809C46.9709 62.8471 42.0917 49.9279 43.1163 41.1645L90.7916 46.7382C91.9957 36.4389 86.2794 22.0564 70.8052 18.806L60.938 65.7809ZM43.246 40.2183L40.2479 59.2587L87.6637 66.7247L90.6618 47.6844L43.246 40.2183ZM66.3241 86.8746C66.4748 86.8596 66.9034 86.8471 67.5704 86.9872L77.4376 40.0123C72.3501 38.9437 66.9886 38.5733 61.5876 39.1088L66.3241 86.8746ZM67.5704 86.9872C69.3965 87.3708 68.6209 87.7263 67.5371 86.1865C67.0353 85.4736 66.7334 84.6929 66.6113 84.0242C66.4943 83.3834 66.5966 83.1588 66.5274 83.4881L113.502 93.3552C116 81.4659 114.119 68.9729 106.789 58.5589C99.5905 48.3315 88.7644 42.3915 77.4376 40.0123L67.5704 86.9872ZM66.5274 83.4881C66.6049 83.1189 66.8083 82.6214 67.1567 82.1591C67.4818 81.7277 67.7941 81.5081 67.9461 81.4212C68.0865 81.3409 68.1066 81.3609 67.9939 81.3782C67.8869 81.3947 67.7483 81.3943 67.607 81.3646L57.7398 128.339C80.011 133.018 107.626 121.33 113.502 93.3552L66.5274 83.4881ZM67.607 81.3646C67.5998 81.3631 67.5648 81.3559 67.4875 81.3241C67.4078 81.2912 67.2447 81.2161 66.9963 81.0592L41.3668 121.644C46.3353 124.782 51.8151 127.095 57.7398 128.339L67.607 81.3646ZM38.1551 72.6523L36.0308 86.5116L83.4766 93.7841L85.601 79.9248L38.1551 72.6523ZM48.3932 111.289C51.6571 113.043 54.912 114.155 58.0761 114.82L67.9433 67.845C68.9153 68.0492 70.0356 68.4273 71.1142 69.0069L48.3932 111.289ZM58.0761 114.82C74.2535 118.218 92.5669 109.254 96.5925 90.0894L49.6176 80.2222C50.4735 76.1477 53.0889 72.2346 57.0862 69.8218C60.9393 67.496 64.9417 67.2145 67.9433 67.845L58.0761 114.82ZM96.5925 90.0894C97.5576 85.4949 98.0332 78.2308 94.8309 70.6312C91.0144 61.5738 83.044 54.7802 72.5799 52.5822L62.7127 99.5571C60.7884 99.1529 58.2181 98.1703 55.7139 96.1114C53.2132 94.0554 51.569 91.5755 50.5975 89.2699C48.875 85.182 49.2713 81.871 49.6176 80.2222L96.5925 90.0894ZM72.5799 52.5822C66.0936 51.2197 60.1056 51.9412 55.7869 53.0744L67.9692 99.5027C67.3088 99.676 66.6396 99.7865 65.9128 99.825C65.1969 99.863 64.0986 99.8482 62.7127 99.5571L72.5799 52.5822Z" fill="#0180BA" mask="url(#path-1-outside-1_2005_3)"/>
<mask id="path-3-outside-2_2005_3" maskUnits="userSpaceOnUse" x="75" y="47" width="94" height="91" fill="black">
<rect fill="white" x="75" y="47" width="94" height="91"/>
<path d="M144.641 92.5C144.641 106.15 130.781 113.78 120.841 113.78C109.431 113.78 99.4206 105.52 99.4206 93.2C99.4206 78.78 110.201 71.29 122.521 71.29C137.991 71.29 144.641 83.4 144.641 92.5ZM122.521 100.41C127.491 100.41 129.731 96.35 129.731 92.36C129.731 91.03 129.451 84.24 122.311 84.24C116.431 84.24 114.751 89.21 114.751 92.36C114.751 97.19 118.531 100.41 122.521 100.41Z"/>
</mask>
<path d="M144.641 92.5C144.641 106.15 130.781 113.78 120.841 113.78C109.431 113.78 99.4206 105.52 99.4206 93.2C99.4206 78.78 110.201 71.29 122.521 71.29C137.991 71.29 144.641 83.4 144.641 92.5ZM122.521 100.41C127.491 100.41 129.731 96.35 129.731 92.36C129.731 91.03 129.451 84.24 122.311 84.24C116.431 84.24 114.751 89.21 114.751 92.36C114.751 97.19 118.531 100.41 122.521 100.41Z" fill="#4AC6FF"/>
<path d="M120.641 92.5C120.641 92.1552 120.687 91.7156 120.815 91.2296C120.941 90.7486 121.12 90.3264 121.309 89.9837C121.678 89.3153 121.985 89.1205 121.854 89.2213C121.711 89.3312 121.38 89.5302 120.94 89.6818C120.742 89.7498 120.599 89.7813 120.537 89.7923C120.468 89.8045 120.567 89.78 120.841 89.78V137.78C131.237 137.78 142.297 134.041 151.082 127.296C160.332 120.195 168.641 108.362 168.641 92.5H120.641ZM120.841 89.78C120.871 89.78 121.382 89.7876 122.078 90.4265C122.446 90.7643 122.818 91.245 123.086 91.8472C123.364 92.4702 123.421 92.9771 123.421 93.2H75.4206C75.4206 120.676 98.1605 137.78 120.841 137.78V89.78ZM123.421 93.2C123.421 92.6263 123.517 92.7878 123.259 93.3718C122.997 93.968 122.567 94.5415 122.08 94.9641C121.63 95.3552 121.334 95.4438 121.401 95.4212C121.479 95.3947 121.848 95.29 122.521 95.29V47.29C111.695 47.29 99.9947 50.5766 90.6209 58.7108C80.7939 67.2384 75.4206 79.4965 75.4206 93.2H123.421ZM122.521 95.29C123.19 95.29 123.079 95.4044 122.538 95.1577C122.013 94.9179 121.544 94.5469 121.216 94.1674C120.927 93.8318 120.813 93.5716 120.766 93.441C120.73 93.3393 120.641 93.0681 120.641 92.5H168.641C168.641 82.6117 165.173 71.6298 157.547 62.7976C149.367 53.3237 137.193 47.29 122.521 47.29V95.29ZM122.521 124.41C132.377 124.41 141.168 120.005 146.91 112.646C152.072 106.032 153.731 98.4658 153.731 92.36H105.731C105.731 90.2442 106.269 86.7034 109.069 83.1164C112.448 78.7855 117.634 76.41 122.521 76.41V124.41ZM153.731 92.36C153.731 90.6071 153.675 83.8614 150.022 76.7887C148.009 72.8893 144.675 68.4605 139.391 65.0889C134.016 61.6595 128.053 60.24 122.311 60.24V108.24C120.138 108.24 116.888 107.669 113.574 105.555C110.35 103.498 108.425 100.849 107.374 98.8138C105.646 95.4686 105.731 92.7829 105.731 92.36H153.731ZM122.311 60.24C111.426 60.24 102.285 65.3917 96.7184 73.2784C91.9873 79.9808 90.7506 87.2389 90.7506 92.36H138.751C138.751 94.3311 138.354 97.5292 135.933 100.959C134.569 102.892 132.54 104.884 129.777 106.33C126.991 107.788 124.319 108.24 122.311 108.24V60.24ZM90.7506 92.36C90.7506 110.997 105.834 124.41 122.521 124.41V76.41C131.227 76.41 138.751 83.3833 138.751 92.36H90.7506Z" fill="#0180BA" mask="url(#path-3-outside-2_2005_3)"/>
<mask id="path-5-outside-3_2005_3" maskUnits="userSpaceOnUse" x="124.59" y="28.6108" width="89.9607" height="108.69" fill="black">
<rect fill="white" x="124.59" y="28.6108" width="89.9607" height="108.69"/>
<path d="M184.521 96.5004L181.807 105.648C181.387 107.028 180.832 107.79 179.788 107.897C179.579 107.919 179.37 107.941 179.154 107.893C167.713 106.823 163.181 101.099 161.012 83.5188L155.761 83.7801C154.988 83.7896 154.289 83.1581 154.21 82.3922L153.851 70.7474C153.841 69.9743 154.403 69.2829 155.238 69.1965L159.724 69.0144C159.589 66.3541 159.433 63.4849 159.333 60.4693C159.316 59.6265 159.319 58.2892 161.129 58.1021L161.407 58.0733L174.632 57.3396C175.823 57.2869 176.452 57.9256 176.574 59.1093C176.737 62.0481 176.845 65.1334 176.939 68.0794L181.772 67.8613C182.538 67.7821 183.236 68.4137 183.323 69.2492L183.682 80.894C183.684 81.5975 183.192 82.2817 182.426 82.3609L182.287 82.3753L177.67 82.6414C178.325 88.9777 179.657 93.6957 182.857 94.702C183.659 94.9709 184.524 95.1631 184.603 95.929C184.617 96.0683 184.569 96.2843 184.521 96.5004Z"/>
</mask>
<path d="M184.521 96.5004L181.807 105.648C181.387 107.028 180.832 107.79 179.788 107.897C179.579 107.919 179.37 107.941 179.154 107.893C167.713 106.823 163.181 101.099 161.012 83.5188L155.761 83.7801C154.988 83.7896 154.289 83.1581 154.21 82.3922L153.851 70.7474C153.841 69.9743 154.403 69.2829 155.238 69.1965L159.724 69.0144C159.589 66.3541 159.433 63.4849 159.333 60.4693C159.316 59.6265 159.319 58.2892 161.129 58.1021L161.407 58.0733L174.632 57.3396C175.823 57.2869 176.452 57.9256 176.574 59.1093C176.737 62.0481 176.845 65.1334 176.939 68.0794L181.772 67.8613C182.538 67.7821 183.236 68.4137 183.323 69.2492L183.682 80.894C183.684 81.5975 183.192 82.2817 182.426 82.3609L182.287 82.3753L177.67 82.6414C178.325 88.9777 179.657 93.6957 182.857 94.702C183.659 94.9709 184.524 95.1631 184.603 95.929C184.617 96.0683 184.569 96.2843 184.521 96.5004Z" fill="#4AC6FF"/>
<path d="M184.521 96.5004L207.53 103.327L207.768 102.525L207.949 101.709L184.521 96.5004ZM181.807 105.648L204.767 112.638L204.792 112.556L204.816 112.474L181.807 105.648ZM179.154 107.893L184.362 84.4646L182.889 84.1372L181.387 83.9968L179.154 107.893ZM161.012 83.5188L184.831 80.58L182.099 58.4398L159.819 59.5485L161.012 83.5188ZM155.761 83.7801L156.057 107.778L156.505 107.773L156.953 107.75L155.761 83.7801ZM154.21 82.3922L130.221 83.1322L130.248 83.9981L130.337 84.8599L154.21 82.3922ZM153.851 70.7474L129.852 71.0436L129.855 71.2655L129.862 71.4874L153.851 70.7474ZM155.238 69.1965L154.265 45.2163L153.516 45.2467L152.771 45.3237L155.238 69.1965ZM159.724 69.0144L160.697 92.9946L184.914 92.0113L183.693 67.8049L159.724 69.0144ZM159.333 60.4693L135.338 60.9459L135.341 61.1077L135.346 61.2694L159.333 60.4693ZM161.407 58.0733L160.078 34.1101L159.508 34.1417L158.94 34.2005L161.407 58.0733ZM174.632 57.3396L173.571 33.3631L173.437 33.3691L173.303 33.3765L174.632 57.3396ZM176.574 59.1093L200.538 57.78L200.506 57.2097L200.447 56.6417L176.574 59.1093ZM176.939 68.0794L152.951 68.8399L153.721 93.1515L178.021 92.055L176.939 68.0794ZM181.772 67.8613L182.854 91.8369L183.548 91.8056L184.239 91.7341L181.772 67.8613ZM183.323 69.2492L207.311 68.5092L207.285 67.6433L207.196 66.7816L183.323 69.2492ZM183.682 80.894L207.682 80.814L207.681 80.4839L207.671 80.154L183.682 80.894ZM182.287 82.3753L183.668 106.336L184.212 106.304L184.754 106.248L182.287 82.3753ZM177.67 82.6414L176.289 58.6812L151.215 60.1265L153.797 85.1091L177.67 82.6414ZM182.857 94.702L190.489 71.9478L190.273 71.8753L190.056 71.807L182.857 94.702ZM161.512 89.6743L158.798 98.8218L204.816 112.474L207.53 103.327L161.512 89.6743ZM158.848 98.6582C158.991 98.1874 159.927 95.0025 162.79 91.6534C164.381 89.7925 166.533 87.916 169.309 86.4555C172.085 84.9947 174.86 84.279 177.32 84.0247L182.255 131.77C188.943 131.079 194.976 127.872 199.273 122.846C202.78 118.745 204.203 114.489 204.767 112.638L158.848 98.6582ZM177.32 84.0247C177.052 84.0524 177.939 83.9469 178.997 83.9259C180.212 83.9018 182.105 83.9628 184.362 84.4646L173.946 131.321C176.419 131.871 178.524 131.945 179.95 131.916C180.652 131.902 181.229 131.862 181.601 131.832C181.944 131.803 182.245 131.771 182.255 131.77L177.32 84.0247ZM181.387 83.9968C180.243 83.8899 180.717 83.7848 181.919 84.3441C182.559 84.6417 183.298 85.0776 184.04 85.6771C184.782 86.2767 185.358 86.9031 185.775 87.456C186.563 88.5021 186.508 88.9206 186.138 87.6899C185.763 86.4396 185.283 84.2429 184.831 80.58L137.192 86.4577C138.353 95.8642 140.549 107.196 147.437 116.339C155.757 127.383 167.259 130.885 176.92 131.788L181.387 83.9968ZM159.819 59.5485L154.568 59.8098L156.953 107.75L162.204 107.489L159.819 59.5485ZM155.465 59.7819C167.268 59.6363 176.902 68.508 178.083 79.9246L130.337 84.8599C131.675 97.8083 142.707 107.943 156.057 107.778L155.465 59.7819ZM178.198 81.6522L177.839 70.0075L129.862 71.4874L130.221 83.1322L178.198 81.6522ZM177.849 70.4512C177.986 81.5663 169.732 91.8262 157.706 93.0693L152.771 45.3237C139.074 46.7395 129.696 58.3824 129.852 71.0436L177.849 70.4512ZM156.212 93.1767L160.697 92.9946L158.75 45.0342L154.265 45.2163L156.212 93.1767ZM183.693 67.8049C183.553 65.024 183.411 62.4242 183.32 59.6691L135.346 61.2694C135.455 64.5456 135.626 67.6842 135.754 70.2239L183.693 67.8049ZM183.328 59.9927C183.306 58.9026 183.787 64.0608 181.136 69.5221C179.518 72.8547 176.886 76.1435 173.128 78.5767C169.53 80.9072 166.031 81.7233 163.597 81.9749L158.661 34.2292C150.855 35.0361 142.368 39.4696 137.956 48.5575C136.237 52.0983 135.692 55.2966 135.486 57.2398C135.284 59.1399 135.333 60.7305 135.338 60.9459L183.328 59.9927ZM163.597 81.9749L163.875 81.9461L158.94 34.2005L158.661 34.2292L163.597 81.9749ZM162.737 82.0364L175.961 81.3028L173.303 33.3765L160.078 34.1101L162.737 82.0364ZM175.694 81.3161C171.785 81.4892 165.248 80.57 159.597 75.2771C154.268 70.2854 152.997 64.4306 152.702 61.577L200.447 56.6417C200.03 52.6044 198.383 45.8383 192.411 40.2446C186.117 34.3495 178.67 33.1373 173.571 33.3631L175.694 81.3161ZM152.611 60.4387C152.757 63.073 152.858 65.9158 152.951 68.8399L200.927 67.3189C200.832 64.351 200.717 61.0232 200.538 57.78L152.611 60.4387ZM178.021 92.055L182.854 91.8369L180.69 43.8857L175.857 44.1038L178.021 92.055ZM184.239 91.7341C169.664 93.2407 160.492 81.8004 159.45 71.7168L207.196 66.7816C205.98 55.0269 195.412 42.3235 179.304 43.9885L184.239 91.7341ZM159.334 69.9892L159.693 81.634L207.671 80.154L207.311 68.5092L159.334 69.9892ZM159.682 80.974C159.651 71.5565 166.38 59.8916 179.958 58.4881L184.894 106.234C200.004 104.672 207.718 91.6384 207.682 80.814L159.682 80.974ZM179.958 58.4881L179.819 58.5025L184.754 106.248L184.894 106.234L179.958 58.4881ZM180.906 58.415L176.289 58.6812L179.051 106.602L183.668 106.336L180.906 58.415ZM153.797 85.1091C154.186 88.8754 154.937 94.2126 156.938 99.363C158.822 104.209 163.82 113.875 175.659 117.597L190.056 71.807C198.694 74.523 201.426 81.326 201.679 81.9778C202.051 82.9336 201.808 82.7437 201.543 80.1738L153.797 85.1091ZM175.225 117.456C175.487 117.544 175.764 117.633 175.779 117.637C175.866 117.666 175.749 117.629 175.576 117.569C175.325 117.481 174.077 117.051 172.535 116.213C170.976 115.365 168.241 113.637 165.722 110.511C162.967 107.092 161.194 102.89 160.73 98.3966L208.475 93.4614C207.971 88.5845 206.061 84.0718 203.097 80.3931C200.369 77.0072 197.352 75.0706 195.467 74.045C193.599 73.0295 191.98 72.4533 191.338 72.2303C191.313 72.2216 189.518 71.6218 190.489 71.9478L175.225 117.456ZM160.73 98.3966C160.54 96.5595 160.608 95.0847 160.669 94.258C160.736 93.3746 160.84 92.679 160.904 92.2853C161.017 91.6008 161.152 91.0256 161.093 91.2921L207.949 101.709C207.955 101.683 208.001 101.477 208.049 101.247C208.098 101.011 208.182 100.596 208.266 100.087C208.357 99.5346 208.825 96.8434 208.475 93.4614L160.73 98.3966Z" fill="#0180BA" mask="url(#path-5-outside-3_2005_3)"/>
<mask id="path-7-inside-4_2005_3" fill="white">
<ellipse cx="122" cy="90.5" rx="18" ry="16.5"/>
</mask>
<ellipse cx="122" cy="90.5" rx="18" ry="16.5" fill="#4AC6FF"/>
<path d="M116 90.5C116 87.7166 117.279 85.6045 118.511 84.4756C119.707 83.3785 121.004 83 122 83V131C143.188 131 164 114.791 164 90.5H116ZM122 83C122.996 83 124.293 83.3785 125.489 84.4756C126.721 85.6045 128 87.7166 128 90.5H80C80 114.791 100.812 131 122 131V83ZM128 90.5C128 93.2834 126.721 95.3955 125.489 96.5244C124.293 97.6215 122.996 98 122 98V50C100.812 50 80 66.2094 80 90.5H128ZM122 98C121.004 98 119.707 97.6215 118.511 96.5244C117.279 95.3955 116 93.2834 116 90.5H164C164 66.2094 143.188 50 122 50V98Z" fill="#0180BA" mask="url(#path-7-inside-4_2005_3)"/>
<path d="M152.715 125.989C151.976 126.522 151.402 127.228 151.023 128.053C150.812 128.526 150.899 129.062 151.249 129.443C151.87 130.106 152.638 130.594 153.508 130.866M160.287 124.758C161.157 125.03 161.925 125.518 162.546 126.181C162.895 126.562 162.983 127.098 162.772 127.571C162.393 128.396 161.819 129.102 161.08 129.635M143.471 121.246L166.905 117.425M154.499 136.962L161.815 135.773C167.911 134.783 169.953 131.948 168.963 125.851L167.773 118.535C166.783 112.439 163.948 110.396 157.851 111.387L150.535 112.576C144.439 113.567 142.396 116.402 143.387 122.499L144.576 129.815C145.567 135.911 148.402 137.953 154.499 136.962Z" stroke="#0180BA" stroke-width="13" stroke-linecap="round" stroke-linejoin="round"/>
<path d="M83.1523 118.146L81.3824 120.119C80.9872 120.553 81.1417 121.015 81.7097 121.135L83.2444 121.461C83.8244 121.584 83.9668 122.044 83.5717 122.478L81.8138 124.453M75.3049 134.299C78.2388 134.1 81.1632 134.721 83.7638 136.094M76.0786 129.462L76.3761 128.06C73.9531 125.791 72.3641 122.032 73.1026 118.551C74.3718 112.57 80.8649 109.048 86.789 111.719C89.3918 112.903 91.3998 115.223 92.1137 117.989C93.5623 123.6 89.7602 128.425 85.3571 129.953L85.0597 131.355C84.9853 131.706 84.9464 132.543 83.6534 132.269L76.9951 130.856C75.6633 130.586 75.9427 130.103 76.0786 129.462Z" stroke="#0180BA" stroke-width="13" stroke-linecap="round" stroke-linejoin="round"/>
<path d="M93.6709 46.5686L93.3683 44.1166M98.5627 45.9649L98.2601 43.5129M103.467 45.3598L103.164 42.9077M108.976 49.6587L111.428 49.3561M109.581 54.5627L112.033 54.2601M110.186 59.4668L112.638 59.1642M105.887 64.976L106.19 67.428M100.996 65.5796L101.298 68.0317M96.0916 66.1848L96.3942 68.6368M86.9078 52.3819L89.3598 52.0793M87.5129 57.286L89.965 56.9834M88.1181 62.19L90.5701 61.8874M98.041 65.9443L103.926 65.2181C108.83 64.6129 110.549 62.4092 109.944 57.5051L109.218 51.6203C108.613 46.7162 106.409 44.9967 101.505 45.6018L95.6203 46.328C90.7162 46.9332 88.9967 49.1369 89.6019 54.041L90.3281 59.9258C90.9332 64.8299 93.1369 66.5494 98.041 65.9443ZM98.6905 62.1301L102.369 61.6762C105.434 61.2979 106.508 59.9206 106.13 56.8556L105.676 53.1776C105.298 50.1125 103.921 49.0378 100.856 49.416L97.1776 49.8699C94.1125 50.2482 93.0378 51.6255 93.4161 54.6905L93.8699 58.3685C94.2482 61.4336 95.6255 62.5083 98.6905 62.1301Z" stroke="#0180BA" stroke-width="13" stroke-linecap="round" stroke-linejoin="round"/>
<path d="M183.537 45.5529L189.458 46.5247C190.197 46.6486 190.932 47.3496 191.092 48.0862L191.74 51.115C191.889 51.799 192.294 51.8668 192.658 51.2687L195.876 45.917C196.186 45.401 196.593 45.4491 196.782 46.0181L197.482 48.1328C197.69 48.7659 198.4 49.3715 199.051 49.4806L203.055 50.1515M188.904 55.8818L194.821 56.8733C199.753 57.6995 202.056 56.0575 202.882 51.1263L203.873 45.2087C204.7 40.2775 203.058 37.9745 198.126 37.1482L192.209 36.1567C187.277 35.3305 184.974 36.9725 184.148 41.9038L183.157 47.8213C182.331 52.7525 183.973 55.0555 188.904 55.8818Z" stroke="#0180BA" stroke-width="13" stroke-linecap="round" stroke-linejoin="round"/>
<path d="M18.5547 72.3636L28.2882 70.0706C31.2083 69.3827 33.6136 70.8708 34.3015 73.7908L35.9066 80.6043C36.5945 83.5244 35.1064 85.9297 32.1863 86.6176L22.4528 88.9106C19.5327 89.5985 17.1274 88.1104 16.4395 85.1903L14.8344 78.3768C14.1465 75.4568 15.6346 73.0515 18.5547 72.3636ZM18.5547 72.3636L17.8668 69.4435M27.2307 76.4839L31.1241 75.5667M28.1479 80.3774L28.6345 80.2627M31.5546 79.5748L32.0413 79.4602M24.3972 79.7199C24.7138 81.0638 23.8809 82.4099 22.537 82.7265C21.1931 83.0431 19.847 82.2103 19.5304 80.8664C19.2138 79.5225 20.0466 78.1763 21.3905 77.8598C22.7344 77.5432 24.0806 78.376 24.3972 79.7199Z" stroke="#0180BA" stroke-width="13" stroke-linecap="round" stroke-linejoin="round"/>
<mask id="path-14-outside-5_2005_3" maskUnits="userSpaceOnUse" x="11.8791" y="12.9367" width="112.804" height="122.854" fill="black">
<rect fill="white" x="11.8791" y="12.9367" width="112.804" height="122.854"/>
<path d="M54.1816 101.352L42.6117 99.5652C41.8582 99.4069 41.2882 98.7149 41.3924 97.8785L50.2715 41.3055L50.3003 41.1685C50.4442 40.4834 51.1903 39.9964 51.8897 40.0718L65.7346 42.2647L65.8716 42.2935C66.6252 42.4517 67.0437 43.1834 66.9539 43.9514L63.9558 62.9917C66.7317 62.7164 69.6267 62.8954 72.504 63.4997C85.6569 66.2626 92.605 76.0907 90.0148 88.4216C87.3959 100.89 74.6617 107.37 62.6734 104.852C59.7276 104.233 56.897 103.067 54.1816 101.352ZM61.8781 76.2886L59.7537 90.1478C60.8463 90.735 61.9136 91.1022 63.0097 91.3325C67.8051 92.3397 72.1265 89.8142 73.105 85.1558C73.7238 82.2101 73.2637 77.2496 67.6463 76.0696C65.6596 75.6523 63.5435 75.8516 61.8781 76.2886Z"/>
</mask>
<path d="M54.1816 101.352L42.6117 99.5652C41.8582 99.4069 41.2882 98.7149 41.3924 97.8785L50.2715 41.3055L50.3003 41.1685C50.4442 40.4834 51.1903 39.9964 51.8897 40.0718L65.7346 42.2647L65.8716 42.2935C66.6252 42.4517 67.0437 43.1834 66.9539 43.9514L63.9558 62.9917C66.7317 62.7164 69.6267 62.8954 72.504 63.4997C85.6569 66.2626 92.605 76.0907 90.0148 88.4216C87.3959 100.89 74.6617 107.37 62.6734 104.852C59.7276 104.233 56.897 103.067 54.1816 101.352ZM61.8781 76.2886L59.7537 90.1478C60.8463 90.735 61.9136 91.1022 63.0097 91.3325C67.8051 92.3397 72.1265 89.8142 73.105 85.1558C73.7238 82.2101 73.2637 77.2496 67.6463 76.0696C65.6596 75.6523 63.5435 75.8516 61.8781 76.2886Z" fill="#4AC6FF"/>
<path d="M54.1816 101.352L65.9284 82.7503L62.0602 80.3075L57.5388 79.6094L54.1816 101.352ZM42.6117 99.5652L38.0893 121.095L38.669 121.217L39.2544 121.307L42.6117 99.5652ZM41.3924 97.8785L19.6585 94.4673L19.6043 94.8127L19.5611 95.1596L41.3924 97.8785ZM50.2715 41.3055L28.7414 36.783L28.6252 37.3361L28.5376 37.8944L50.2715 41.3055ZM51.8897 40.0718L55.3314 18.3427L54.7912 18.2571L54.2474 18.1985L51.8897 40.0718ZM65.7346 42.2647L70.2571 20.7345L69.7191 20.6215L69.1763 20.5356L65.7346 42.2647ZM66.9539 43.9514L88.6862 47.3733L88.7543 46.9408L88.8051 46.506L66.9539 43.9514ZM63.9558 62.9917L42.2236 59.5697L37.7952 87.6937L66.1267 84.8843L63.9558 62.9917ZM61.8781 76.2886L56.2945 55.0089L42.3209 58.6754L40.1321 72.9553L61.8781 76.2886ZM59.7537 90.1478L38.0077 86.8146L35.6536 102.172L49.3399 109.527L59.7537 90.1478ZM57.5388 79.6094L45.969 77.8228L39.2544 121.307L50.8243 123.094L57.5388 79.6094ZM47.1342 78.035C56.5899 80.0212 64.6551 89.1043 63.2238 100.597L19.5611 95.1596C17.9214 108.326 27.1264 118.793 38.0893 121.095L47.1342 78.035ZM63.1263 101.29L72.0055 44.7167L28.5376 37.8944L19.6585 94.4673L63.1263 101.29ZM71.8017 45.828L71.8305 45.691L28.7702 36.646L28.7414 36.783L71.8017 45.828ZM71.8305 45.691C70.5322 51.8716 66.7974 56.1269 63.2342 58.5432C59.6869 60.9487 54.9054 62.5243 49.532 61.9451L54.2474 18.1985C43.6031 17.0512 31.4954 23.6721 28.7702 36.646L71.8305 45.691ZM48.448 61.8009L62.2929 63.9938L69.1763 20.5356L55.3314 18.3427L48.448 61.8009ZM61.2121 63.7948L61.3492 63.8236L70.3941 20.7633L70.2571 20.7345L61.2121 63.7948ZM61.3492 63.8236C48.6088 61.1475 44.1711 49.3659 45.1027 41.3968L88.8051 46.506C89.9163 37.0009 84.6416 23.756 70.3941 20.7633L61.3492 63.8236ZM45.2217 40.5294L42.2236 59.5697L85.6881 66.4136L88.6862 47.3733L45.2217 40.5294ZM66.1267 84.8843C66.4962 84.8477 67.1303 84.8511 67.9815 85.0299L77.0264 41.9696C72.1232 40.9397 66.9672 40.5852 61.785 41.0991L66.1267 84.8843ZM67.9815 85.0299C69.0928 85.2633 69.5967 85.5459 69.6873 85.6012C69.7579 85.6443 69.4951 85.4935 69.1726 85.0353C69.0197 84.8181 68.8844 84.5745 68.7776 84.3185C68.6709 84.0629 68.6102 83.8373 68.5788 83.665C68.5126 83.3025 68.602 83.3404 68.4847 83.8992L111.545 92.9441C113.942 81.5318 112.127 69.6182 105.154 59.71C98.3001 49.973 87.9574 44.2657 77.0264 41.9696L67.9815 85.0299ZM68.4847 83.8992C68.4882 83.8823 68.5076 83.8038 68.5604 83.6879C68.6126 83.5733 68.6796 83.4613 68.7539 83.3628C68.9062 83.1607 69.0081 83.1178 68.9387 83.1575C68.8587 83.2032 68.644 83.3019 68.2973 83.3551C67.9559 83.4075 67.5752 83.4016 67.1958 83.3219L58.1509 126.382C79.5652 130.88 105.94 119.626 111.545 92.9441L68.4847 83.8992ZM67.1958 83.3219C66.9808 83.2767 66.5787 83.1609 65.9284 82.7503L42.4347 119.953C47.2154 122.972 52.4745 125.19 58.1509 126.382L67.1958 83.3219ZM40.1321 72.9553L38.0077 86.8146L81.4997 93.4811L83.6241 79.6218L40.1321 72.9553ZM49.3399 109.527C52.4228 111.184 55.4955 112.234 58.4873 112.863L67.5322 69.8023C68.3318 69.9703 69.2698 70.2863 70.1675 70.7686L49.3399 109.527ZM58.4873 112.863C73.7162 116.061 90.8635 107.634 94.6352 89.6783L51.5749 80.6334C52.3187 77.0925 54.6058 73.6551 58.1197 71.534C61.5016 69.4927 64.9805 69.2663 67.5322 69.8023L58.4873 112.863ZM94.6352 89.6783C95.5456 85.3439 95.9849 78.5204 92.9879 71.4078C89.4277 62.9588 81.995 56.6035 72.1687 54.5395L63.1238 97.5998C61.4769 97.2538 59.211 96.3975 56.984 94.5665C54.7604 92.7383 53.3003 90.5336 52.4405 88.4933C50.9232 84.8924 51.2832 82.022 51.5749 80.6334L94.6352 89.6783ZM72.1687 54.5395C66.0574 53.2558 60.3921 53.9337 56.2945 55.0089L67.4616 97.5682C66.9256 97.7089 66.391 97.7969 65.8069 97.8279C65.2328 97.8583 64.3115 97.8492 63.1238 97.5998L72.1687 54.5395Z" fill="#4AC6FF" mask="url(#path-14-outside-5_2005_3)"/>
<mask id="path-16-outside-6_2005_3" maskUnits="userSpaceOnUse" x="77" y="49" width="90" height="87" fill="black">
<rect fill="white" x="77" y="49" width="90" height="87"/>
<path d="M144.641 92.5C144.641 106.15 130.781 113.78 120.841 113.78C109.431 113.78 99.4206 105.52 99.4206 93.2C99.4206 78.78 110.201 71.29 122.521 71.29C137.991 71.29 144.641 83.4 144.641 92.5ZM122.521 100.41C127.491 100.41 129.731 96.35 129.731 92.36C129.731 91.03 129.451 84.24 122.311 84.24C116.431 84.24 114.751 89.21 114.751 92.36C114.751 97.19 118.531 100.41 122.521 100.41Z"/>
</mask>
<path d="M144.641 92.5C144.641 106.15 130.781 113.78 120.841 113.78C109.431 113.78 99.4206 105.52 99.4206 93.2C99.4206 78.78 110.201 71.29 122.521 71.29C137.991 71.29 144.641 83.4 144.641 92.5ZM122.521 100.41C127.491 100.41 129.731 96.35 129.731 92.36C129.731 91.03 129.451 84.24 122.311 84.24C116.431 84.24 114.751 89.21 114.751 92.36C114.751 97.19 118.531 100.41 122.521 100.41Z" fill="#4AC6FF"/>
<path d="M122.641 92.5C122.641 92.3261 122.665 92.0575 122.749 91.7383C122.832 91.4236 122.947 91.1547 123.06 90.9504C123.277 90.5572 123.388 90.5648 123.072 90.8078C122.744 91.059 122.219 91.3565 121.591 91.5728C121.298 91.6739 121.053 91.7321 120.885 91.7618C120.712 91.7925 120.693 91.78 120.841 91.78V135.78C130.785 135.78 141.419 132.193 149.865 125.71C158.736 118.899 166.641 107.609 166.641 92.5H122.641ZM120.841 91.78C120.393 91.78 120.415 91.6149 120.726 91.9001C120.9 92.0595 121.106 92.3179 121.259 92.661C121.421 93.0232 121.421 93.2524 121.421 93.2H77.4206C77.4206 119.413 99.0997 135.78 120.841 135.78V91.78ZM121.421 93.2C121.421 92.7711 121.46 92.5342 121.476 92.4573C121.491 92.3833 121.488 92.4316 121.429 92.5653C121.37 92.6996 121.277 92.8669 121.148 93.0412C121.02 93.2139 120.886 93.3523 120.77 93.4536C120.533 93.6589 120.471 93.6245 120.76 93.5265C121.061 93.425 121.648 93.29 122.521 93.29V49.29C112.084 49.29 100.877 52.4587 91.9317 60.2214C82.5707 68.3445 77.4206 80.0376 77.4206 93.2H121.421ZM122.521 93.29C123.013 93.29 123.291 93.3375 123.394 93.359C123.493 93.3799 123.472 93.3854 123.368 93.3382C123.266 93.2915 123.14 93.2191 123.013 93.1222C122.888 93.0276 122.794 92.9344 122.73 92.8603C122.614 92.7263 122.62 92.685 122.649 92.7665C122.66 92.7974 122.662 92.8131 122.659 92.7979C122.657 92.7858 122.641 92.6913 122.641 92.5H166.641C166.641 83.0566 163.324 72.5479 156.034 64.1047C148.235 55.0732 136.615 49.29 122.521 49.29V93.29ZM122.521 122.41C131.763 122.41 139.971 118.287 145.334 111.416C150.163 105.226 151.731 98.1233 151.731 92.36H107.731C107.731 90.5867 108.178 87.5087 110.645 84.3468C113.645 80.5029 118.248 78.41 122.521 78.41V122.41ZM151.731 92.36C151.731 90.6978 151.674 84.345 148.245 77.7064C146.359 74.0543 143.245 69.9204 138.315 66.775C133.302 63.5766 127.723 62.24 122.311 62.24V106.24C120.468 106.24 117.602 105.752 114.649 103.868C111.78 102.038 110.074 99.6845 109.151 97.8961C107.648 94.985 107.731 92.6922 107.731 92.36H151.731ZM122.311 62.24C112.088 62.24 103.552 67.0659 98.3523 74.4317C93.9192 80.712 92.7506 87.5344 92.7506 92.36H136.751C136.751 94.0356 136.422 96.798 134.299 99.8058C133.096 101.509 131.3 103.276 128.85 104.558C126.378 105.851 124.029 106.24 122.311 106.24V62.24ZM92.7506 92.36C92.7506 109.846 106.892 122.41 122.521 122.41V78.41C130.169 78.41 136.751 84.5339 136.751 92.36H92.7506Z" fill="#4AC6FF" mask="url(#path-16-outside-6_2005_3)"/>
<mask id="path-18-outside-7_2005_3" maskUnits="userSpaceOnUse" x="126.785" y="30.8058" width="85.5706" height="104.3" fill="black">
<rect fill="white" x="126.785" y="30.8058" width="85.5706" height="104.3"/>
<path d="M184.521 96.5004L181.807 105.648C181.387 107.028 180.832 107.79 179.788 107.897C179.579 107.919 179.37 107.941 179.154 107.893C167.713 106.823 163.181 101.099 161.012 83.5188L155.761 83.7801C154.988 83.7896 154.289 83.1581 154.21 82.3922L153.851 70.7474C153.841 69.9743 154.403 69.2829 155.238 69.1965L159.724 69.0144C159.589 66.3541 159.433 63.4849 159.333 60.4693C159.316 59.6265 159.319 58.2892 161.129 58.1021L161.407 58.0733L174.632 57.3396C175.823 57.2869 176.452 57.9256 176.574 59.1093C176.737 62.0481 176.845 65.1334 176.939 68.0794L181.772 67.8613C182.538 67.7821 183.236 68.4137 183.323 69.2492L183.682 80.894C183.684 81.5975 183.192 82.2817 182.426 82.3609L182.287 82.3753L177.67 82.6414C178.325 88.9777 179.657 93.6957 182.857 94.702C183.659 94.9709 184.524 95.1631 184.603 95.929C184.617 96.0683 184.569 96.2843 184.521 96.5004Z"/>
</mask>
<path d="M184.521 96.5004L181.807 105.648C181.387 107.028 180.832 107.79 179.788 107.897C179.579 107.919 179.37 107.941 179.154 107.893C167.713 106.823 163.181 101.099 161.012 83.5188L155.761 83.7801C154.988 83.7896 154.289 83.1581 154.21 82.3922L153.851 70.7474C153.841 69.9743 154.403 69.2829 155.238 69.1965L159.724 69.0144C159.589 66.3541 159.433 63.4849 159.333 60.4693C159.316 59.6265 159.319 58.2892 161.129 58.1021L161.407 58.0733L174.632 57.3396C175.823 57.2869 176.452 57.9256 176.574 59.1093C176.737 62.0481 176.845 65.1334 176.939 68.0794L181.772 67.8613C182.538 67.7821 183.236 68.4137 183.323 69.2492L183.682 80.894C183.684 81.5975 183.192 82.2817 182.426 82.3609L182.287 82.3753L177.67 82.6414C178.325 88.9777 179.657 93.6957 182.857 94.702C183.659 94.9709 184.524 95.1631 184.603 95.929C184.617 96.0683 184.569 96.2843 184.521 96.5004Z" fill="#4AC6FF"/>
<path d="M184.521 96.5004L205.612 102.758L205.83 102.023L205.997 101.275L184.521 96.5004ZM181.807 105.648L202.853 112.055L202.876 111.98L202.899 111.905L181.807 105.648ZM179.154 107.893L183.928 86.4169L182.578 86.1168L181.201 85.9881L179.154 107.893ZM161.012 83.5188L182.846 80.8249L180.342 60.5297L159.918 61.546L161.012 83.5188ZM155.761 83.7801L156.032 105.778L156.443 105.773L156.854 105.753L155.761 83.7801ZM154.21 82.3922L132.22 83.0705L132.245 83.8643L132.326 84.6542L154.21 82.3922ZM153.851 70.7474L131.852 71.0189L131.855 71.2224L131.861 71.4257L153.851 70.7474ZM155.238 69.1965L154.346 47.2146L153.66 47.2425L152.976 47.3131L155.238 69.1965ZM159.724 69.0144L160.616 90.9963L182.815 90.0949L181.696 67.9057L159.724 69.0144ZM159.333 60.4693L137.337 60.9061L137.34 61.0545L137.345 61.2027L159.333 60.4693ZM161.407 58.0733L160.189 36.107L159.666 36.136L159.145 36.1899L161.407 58.0733ZM174.632 57.3396L173.659 35.3612L173.536 35.3666L173.414 35.3734L174.632 57.3396ZM176.574 59.1093L198.541 57.8908L198.512 57.368L198.458 56.8473L176.574 59.1093ZM176.939 68.0794L154.95 68.7765L155.656 91.0622L177.93 90.057L176.939 68.0794ZM181.772 67.8613L182.764 89.8389L183.4 89.8102L184.034 89.7447L181.772 67.8613ZM183.323 69.2492L205.312 68.5709L205.288 67.7771L205.206 66.9872L183.323 69.2492ZM183.682 80.894L205.682 80.8207L205.681 80.5181L205.671 80.2157L183.682 80.894ZM182.287 82.3753L183.553 104.339L184.052 104.31L184.549 104.259L182.287 82.3753ZM177.67 82.6414L176.404 60.6779L153.419 62.0027L155.786 84.9034L177.67 82.6414ZM182.857 94.702L189.853 73.844L189.655 73.7776L189.456 73.7149L182.857 94.702ZM163.43 90.2431L160.716 99.3906L202.899 111.905L205.612 102.758L163.43 90.2431ZM160.761 99.2407C160.875 98.8666 161.712 95.9917 164.31 92.9531C165.755 91.263 167.713 89.5552 170.24 88.2254C172.768 86.8953 175.293 86.2449 177.526 86.0141L182.05 129.781C188.224 129.143 193.787 126.185 197.753 121.547C200.994 117.755 202.319 113.81 202.853 112.055L160.761 99.2407ZM177.526 86.0141C177.271 86.0404 178.075 85.9446 179.037 85.9255C180.142 85.9036 181.868 85.959 183.928 86.4169L174.38 129.368C176.656 129.874 178.595 129.943 179.91 129.917C180.558 129.904 181.092 129.867 181.437 129.838C181.755 129.812 182.035 129.782 182.05 129.781L177.526 86.0141ZM181.201 85.9881C179.914 85.8678 180.146 85.725 181.076 86.1575C181.576 86.3903 182.175 86.7414 182.783 87.2328C183.392 87.7244 183.855 88.231 184.178 88.6595C184.782 89.4616 184.637 89.6455 184.223 88.2652C183.803 86.867 183.306 84.5488 182.846 80.8249L139.177 86.2128C140.331 95.5679 142.485 106.441 149.034 115.135C156.898 125.573 167.774 128.925 177.106 129.797L181.201 85.9881ZM159.918 61.546L154.667 61.8073L156.854 105.753L162.105 105.492L159.918 61.546ZM155.489 61.7818C166.245 61.6491 175.018 69.7288 176.093 80.1302L132.326 84.6542C133.56 96.5874 143.73 105.93 156.032 105.778L155.489 61.7818ZM176.199 81.7139L175.84 70.0691L131.861 71.4257L132.22 83.0705L176.199 81.7139ZM175.849 70.4759C175.974 80.6003 168.454 89.9476 157.5 91.0799L152.976 47.3131C140.351 48.6181 131.708 59.3484 131.852 71.0189L175.849 70.4759ZM156.131 91.1784L160.616 90.9963L158.831 47.0325L154.346 47.2146L156.131 91.1784ZM181.696 67.9057C181.556 65.1348 181.413 62.5126 181.321 59.7358L137.345 61.2027C137.454 64.4572 137.623 67.5734 137.751 70.1231L181.696 67.9057ZM181.329 60.0324C181.308 58.998 181.748 63.6809 179.336 68.6486C177.863 71.6842 175.464 74.6813 172.041 76.898C168.764 79.0206 165.584 79.7587 163.391 79.9855L158.867 36.2186C151.636 36.9661 143.818 41.0619 139.755 49.4311C138.17 52.696 137.666 55.6488 137.474 57.4506C137.288 59.213 137.333 60.6912 137.337 60.9061L181.329 60.0324ZM163.391 79.9855L163.669 79.9567L159.145 36.1899L158.867 36.2186L163.391 79.9855ZM162.626 80.0395L175.851 79.3059L173.414 35.3734L160.189 36.107L162.626 80.0395ZM175.605 79.3181C172.072 79.4745 166.118 78.6442 160.964 73.8174C156.106 69.2668 154.956 63.9378 154.691 61.3713L198.458 56.8473C198.07 53.0971 196.545 46.857 191.043 41.7043C185.247 36.2754 178.383 35.152 173.659 35.3612L175.605 79.3181ZM154.608 60.3279C154.756 62.9876 154.857 65.8506 154.95 68.7765L198.928 67.3823C198.834 64.4162 198.719 61.1086 198.541 57.8908L154.608 60.3279ZM177.93 90.057L182.764 89.8389L180.78 45.8837L175.947 46.1018L177.93 90.057ZM184.034 89.7447C170.737 91.1192 162.388 80.6848 161.439 71.5112L205.206 66.9872C204.085 56.1425 194.339 44.4451 179.51 45.9779L184.034 89.7447ZM161.333 69.9275L161.692 81.5723L205.671 80.2157L205.312 68.5709L161.333 69.9275ZM161.682 80.9673C161.653 72.3933 167.781 61.7575 180.164 60.4775L184.688 104.244C198.603 102.806 205.715 90.8017 205.682 80.8207L161.682 80.9673ZM180.164 60.4775L180.025 60.4919L184.549 104.259L184.688 104.244L180.164 60.4775ZM181.021 60.4117L176.404 60.6779L178.936 104.605L183.553 104.339L181.021 60.4117ZM155.786 84.9034C156.17 88.6199 156.9 93.7427 158.803 98.6386C160.597 103.256 165.273 112.235 176.259 115.689L189.456 73.7149C197.241 76.1627 199.651 82.2795 199.815 82.7022C200.088 83.4035 199.824 82.9992 199.553 80.3794L155.786 84.9034ZM175.861 115.56C176.109 115.643 176.371 115.727 176.394 115.734C176.483 115.763 176.383 115.732 176.233 115.679C176.019 115.605 174.89 115.217 173.491 114.456C172.075 113.686 169.579 112.111 167.279 109.256C164.762 106.133 163.143 102.294 162.719 98.191L206.486 93.667C206.022 89.1806 204.266 85.031 201.54 81.648C199.03 78.5334 196.253 76.7495 194.511 75.802C192.786 74.8637 191.286 74.3295 190.681 74.1194C190.642 74.1058 188.979 73.5508 189.853 73.844L175.861 115.56ZM162.719 98.191C162.546 96.5098 162.608 95.1613 162.664 94.4071C162.724 93.6009 162.819 92.9672 162.878 92.6103C162.98 91.9911 163.102 91.4728 163.045 91.7261L205.997 101.275C206.003 101.246 206.046 101.053 206.091 100.838C206.137 100.617 206.215 100.233 206.293 99.7615C206.377 99.2474 206.807 96.773 206.486 93.667L162.719 98.191Z" fill="#4AC6FF" mask="url(#path-18-outside-7_2005_3)"/>
<ellipse cx="122" cy="90.5" rx="18" ry="16.5" fill="#4AC6FF"/>
<mask id="path-21-outside-8_2005_3" maskUnits="userSpaceOnUse" x="18.9843" y="20.042" width="98.5933" height="108.643" fill="black">
<rect fill="white" x="18.9843" y="20.042" width="98.5933" height="108.643"/>
<path d="M54.1816 101.352L42.6117 99.5652C41.8582 99.4069 41.2882 98.7149 41.3924 97.8785L50.2715 41.3055L50.3003 41.1685C50.4442 40.4834 51.1903 39.9964 51.8897 40.0718L65.7346 42.2647L65.8716 42.2935C66.6252 42.4517 67.0437 43.1834 66.9539 43.9514L63.9558 62.9917C66.7317 62.7164 69.6267 62.8954 72.504 63.4997C85.6569 66.2626 92.605 76.0907 90.0148 88.4216C87.3959 100.89 74.6617 107.37 62.6734 104.852C59.7276 104.233 56.897 103.067 54.1816 101.352ZM61.8781 76.2886L59.7537 90.1478C60.8463 90.735 61.9136 91.1022 63.0097 91.3325C67.8051 92.3397 72.1265 89.8142 73.105 85.1558C73.7238 82.2101 73.2637 77.2496 67.6463 76.0696C65.6596 75.6523 63.5435 75.8516 61.8781 76.2886Z"/>
</mask>
<path d="M54.1816 101.352L42.6117 99.5652C41.8582 99.4069 41.2882 98.7149 41.3924 97.8785L50.2715 41.3055L50.3003 41.1685C50.4442 40.4834 51.1903 39.9964 51.8897 40.0718L65.7346 42.2647L65.8716 42.2935C66.6252 42.4517 67.0437 43.1834 66.9539 43.9514L63.9558 62.9917C66.7317 62.7164 69.6267 62.8954 72.504 63.4997C85.6569 66.2626 92.605 76.0907 90.0148 88.4216C87.3959 100.89 74.6617 107.37 62.6734 104.852C59.7276 104.233 56.897 103.067 54.1816 101.352ZM61.8781 76.2886L59.7537 90.1478C60.8463 90.735 61.9136 91.1022 63.0097 91.3325C67.8051 92.3397 72.1265 89.8142 73.105 85.1558C73.7238 82.2101 73.2637 77.2496 67.6463 76.0696C65.6596 75.6523 63.5435 75.8516 61.8781 76.2886Z" fill="#4AC6FF"/>
<path d="M54.1816 101.352L62.7247 87.8234L59.9115 86.0468L56.6232 85.5391L54.1816 101.352ZM42.6117 99.5652L39.3227 115.223L39.7443 115.312L40.1701 115.378L42.6117 99.5652ZM41.3924 97.8785L25.5859 95.3976L25.5465 95.6488L25.5151 95.9011L41.3924 97.8785ZM50.2715 41.3055L34.6132 38.0164L34.5288 38.4187L34.465 38.8247L50.2715 41.3055ZM51.8897 40.0718L54.3927 24.2688L53.9999 24.2066L53.6044 24.1639L51.8897 40.0718ZM65.7346 42.2647L69.0237 26.6064L68.6325 26.5242L68.2376 26.4617L65.7346 42.2647ZM66.9539 43.9514L82.7592 46.44L82.8087 46.1255L82.8457 45.8092L66.9539 43.9514ZM63.9558 62.9917L48.1506 60.503L44.9299 80.9568L65.5347 78.9136L63.9558 62.9917ZM61.8781 76.2886L57.8173 60.8124L47.6547 63.479L46.0628 73.8644L61.8781 76.2886ZM59.7537 90.1478L43.9384 87.7237L42.2264 98.893L52.18 104.242L59.7537 90.1478ZM56.6232 85.5391L45.0534 83.7526L40.1701 115.378L51.7399 117.164L56.6232 85.5391ZM45.9008 83.9069C52.5722 85.3082 58.2823 91.7254 57.2697 99.8558L25.5151 95.9011C24.2942 105.704 31.1442 113.506 39.3227 115.223L45.9008 83.9069ZM57.1989 100.359L66.078 43.7863L34.465 38.8247L25.5859 95.3976L57.1989 100.359ZM65.9298 44.5946L65.9586 44.4576L34.642 37.8794L34.6132 38.0164L65.9298 44.5946ZM65.9586 44.4576C65.034 48.8591 62.3785 51.874 59.8667 53.5773C57.3664 55.2728 53.9875 56.3906 50.175 55.9797L53.6044 24.1639C45.6724 23.309 36.6632 28.257 34.642 37.8794L65.9586 44.4576ZM49.3867 55.8748L63.2316 58.0677L68.2376 26.4617L54.3927 24.2688L49.3867 55.8748ZM62.4455 57.923L62.5826 57.9518L69.1607 26.6352L69.0237 26.6064L62.4455 57.923ZM62.5826 57.9518C53.5223 56.0486 50.4091 47.6798 51.0622 42.0935L82.8457 45.8092C83.6783 38.6871 79.728 28.8549 69.1607 26.6352L62.5826 57.9518ZM51.1487 41.4627L48.1506 60.503L79.7611 65.4804L82.7592 46.44L51.1487 41.4627ZM65.5347 78.9136C66.5604 78.8119 67.8112 78.8632 69.2149 79.158L75.793 47.8415C71.4423 46.9276 66.903 46.621 62.377 47.0698L65.5347 78.9136ZM69.2149 79.158C72.6245 79.8742 73.7825 81.1605 74.0791 81.5819C74.2881 81.8788 74.8501 82.7831 74.3565 85.1326L105.673 91.7107C107.77 81.7293 106.153 71.5541 100.247 63.1635C94.4289 54.8973 85.5364 49.8881 75.793 47.8415L69.2149 79.158ZM74.3565 85.1326C74.0649 86.521 73.2992 87.5759 71.9166 88.3664C70.384 89.2425 68.2097 89.6658 65.9624 89.1938L59.3843 120.51C78.2279 124.468 100.883 114.516 105.673 91.7107L74.3565 85.1326ZM65.9624 89.1938C65.0027 88.9922 63.9382 88.5897 62.7247 87.8234L45.6384 114.88C49.8559 117.543 54.4526 119.474 59.3843 120.51L65.9624 89.1938ZM46.0628 73.8644L43.9384 87.7237L75.569 92.572L77.6934 78.7127L46.0628 73.8644ZM52.18 104.242C54.7202 105.607 57.2459 106.471 59.7207 106.991L66.2988 75.6742C66.4106 75.6977 66.5814 75.7413 66.786 75.8148C66.9921 75.8888 67.1768 75.973 67.3274 76.0539L52.18 104.242ZM59.7207 106.991C72.104 109.592 85.7534 102.774 88.7633 88.4449L57.4467 81.8668C57.8542 79.9268 59.1562 77.9167 61.2203 76.6708C63.1884 75.4828 65.0969 75.4217 66.2988 75.6742L59.7207 106.991ZM88.7633 88.4449C89.5098 84.8909 89.8401 79.3893 87.4587 73.7377C84.6677 67.1141 78.8477 62.0733 70.9353 60.4113L64.3572 91.7279C63.5425 91.5568 62.1896 91.0789 60.7946 89.9319C59.402 88.7869 58.4941 87.4079 57.9697 86.1635C57.068 84.0235 57.319 82.475 57.4467 81.8668L88.7633 88.4449ZM70.9353 60.4113C65.9489 59.3639 61.2516 59.9113 57.8173 60.8124L65.9389 91.7647C65.7761 91.8074 65.6451 91.828 65.4891 91.8363C65.3404 91.8442 64.9501 91.8524 64.3572 91.7279L70.9353 60.4113Z" fill="#25BAFF" mask="url(#path-21-outside-8_2005_3)"/>
<mask id="path-23-outside-9_2005_3" maskUnits="userSpaceOnUse" x="83" y="55" width="78" height="75" fill="black">
<rect fill="white" x="83" y="55" width="78" height="75"/>
<path d="M144.641 92.5C144.641 106.15 130.781 113.78 120.841 113.78C109.431 113.78 99.4206 105.52 99.4206 93.2C99.4206 78.78 110.201 71.29 122.521 71.29C137.991 71.29 144.641 83.4 144.641 92.5ZM122.521 100.41C127.491 100.41 129.731 96.35 129.731 92.36C129.731 91.03 129.451 84.24 122.311 84.24C116.431 84.24 114.751 89.21 114.751 92.36C114.751 97.19 118.531 100.41 122.521 100.41Z"/>
</mask>
<path d="M144.641 92.5C144.641 106.15 130.781 113.78 120.841 113.78C109.431 113.78 99.4206 105.52 99.4206 93.2C99.4206 78.78 110.201 71.29 122.521 71.29C137.991 71.29 144.641 83.4 144.641 92.5ZM122.521 100.41C127.491 100.41 129.731 96.35 129.731 92.36C129.731 91.03 129.451 84.24 122.311 84.24C116.431 84.24 114.751 89.21 114.751 92.36C114.751 97.19 118.531 100.41 122.521 100.41Z" fill="#4AC6FF"/>
<path d="M128.641 92.5C128.641 93.3005 128.404 94.2781 126.725 95.5671C125.845 96.2427 124.737 96.8354 123.544 97.246C122.328 97.6648 121.358 97.78 120.841 97.78V129.78C129.428 129.78 138.785 126.651 146.211 120.95C153.947 115.012 160.641 105.35 160.641 92.5H128.641ZM120.841 97.78C118.959 97.78 117.515 97.0968 116.669 96.321C115.958 95.6687 115.421 94.7643 115.421 93.2H83.4206C83.4206 115.624 101.917 129.78 120.841 129.78V97.78ZM115.421 93.2C115.421 91.6159 115.709 90.6662 115.939 90.1456C116.165 89.633 116.456 89.2527 116.837 88.9219C117.646 88.2198 119.471 87.29 122.521 87.29V55.29C113.25 55.29 103.525 58.1052 95.8641 64.7531C87.9012 71.6631 83.4206 81.661 83.4206 93.2H115.421ZM122.521 87.29C124.256 87.29 125.287 87.6185 125.86 87.8799C126.443 88.1459 126.891 88.498 127.272 88.9391C128.181 89.9926 128.641 91.5088 128.641 92.5H160.641C160.641 84.3912 157.775 75.3023 151.492 68.0259C144.84 60.3216 134.881 55.29 122.521 55.29V87.29ZM122.521 116.41C129.92 116.41 136.381 113.135 140.603 107.724C144.438 102.81 145.731 97.0956 145.731 92.36H113.731C113.731 91.6144 113.903 89.9247 115.375 88.038C116.17 87.0198 117.295 86.0321 118.734 85.3305C120.182 84.625 121.534 84.41 122.521 84.41V116.41ZM145.731 92.36C145.731 90.9698 145.67 85.7959 142.914 80.4596C141.411 77.5493 138.954 74.3 135.088 71.8332C131.161 69.3278 126.734 68.24 122.311 68.24V100.24C121.457 100.24 119.743 100.001 117.876 98.8103C116.071 97.6581 115.022 96.1894 114.482 95.1429C113.984 94.1781 113.84 93.4429 113.795 93.1707C113.741 92.8514 113.731 92.5878 113.731 92.36H145.731ZM122.311 68.24C114.074 68.24 107.351 72.0886 103.254 77.8918C99.7151 82.9055 98.7506 88.4209 98.7506 92.36H130.751C130.751 93.1491 130.626 94.6045 129.397 96.3457C128.68 97.3615 127.581 98.4497 126.068 99.2419C124.538 100.042 123.159 100.24 122.311 100.24V68.24ZM98.7506 92.36C98.7506 106.394 110.066 116.41 122.521 116.41V84.41C126.995 84.41 130.751 87.9856 130.751 92.36H98.7506Z" fill="#25BAFF" mask="url(#path-23-outside-9_2005_3)"/>
<mask id="path-25-outside-10_2005_3" maskUnits="userSpaceOnUse" x="133.37" y="37.3909" width="72.4004" height="91.1299" fill="black">
<rect fill="white" x="133.37" y="37.3909" width="72.4004" height="91.1299"/>
<path d="M184.521 96.5004L181.807 105.648C181.387 107.028 180.832 107.79 179.788 107.897C179.579 107.919 179.37 107.941 179.154 107.893C167.713 106.823 163.181 101.099 161.012 83.5188L155.761 83.7801C154.988 83.7896 154.289 83.1581 154.21 82.3922L153.851 70.7474C153.841 69.9743 154.403 69.2829 155.238 69.1965L159.724 69.0144C159.589 66.3541 159.433 63.4849 159.333 60.4693C159.316 59.6265 159.319 58.2892 161.129 58.1021L161.407 58.0733L174.632 57.3396C175.823 57.2869 176.452 57.9256 176.574 59.1093C176.737 62.0481 176.845 65.1334 176.939 68.0794L181.772 67.8613C182.538 67.7821 183.236 68.4137 183.323 69.2492L183.682 80.894C183.684 81.5975 183.192 82.2817 182.426 82.3609L182.287 82.3753L177.67 82.6414C178.325 88.9777 179.657 93.6957 182.857 94.702C183.659 94.9709 184.524 95.1631 184.603 95.929C184.617 96.0683 184.569 96.2843 184.521 96.5004Z"/>
</mask>
<path d="M184.521 96.5004L181.807 105.648C181.387 107.028 180.832 107.79 179.788 107.897C179.579 107.919 179.37 107.941 179.154 107.893C167.713 106.823 163.181 101.099 161.012 83.5188L155.761 83.7801C154.988 83.7896 154.289 83.1581 154.21 82.3922L153.851 70.7474C153.841 69.9743 154.403 69.2829 155.238 69.1965L159.724 69.0144C159.589 66.3541 159.433 63.4849 159.333 60.4693C159.316 59.6265 159.319 58.2892 161.129 58.1021L161.407 58.0733L174.632 57.3396C175.823 57.2869 176.452 57.9256 176.574 59.1093C176.737 62.0481 176.845 65.1334 176.939 68.0794L181.772 67.8613C182.538 67.7821 183.236 68.4137 183.323 69.2492L183.682 80.894C183.684 81.5975 183.192 82.2817 182.426 82.3609L182.287 82.3753L177.67 82.6414C178.325 88.9777 179.657 93.6957 182.857 94.702C183.659 94.9709 184.524 95.1631 184.603 95.929C184.617 96.0683 184.569 96.2843 184.521 96.5004Z" fill="#4AC6FF"/>
<path d="M184.521 96.5004L199.86 101.051L200.019 100.517L200.14 99.9727L184.521 96.5004ZM181.807 105.648L197.114 110.308L197.13 110.253L197.146 110.199L181.807 105.648ZM179.154 107.893L182.626 92.2739L181.644 92.0557L180.643 91.9621L179.154 107.893ZM161.012 83.5188L176.891 81.5596L175.07 66.7995L160.217 67.5386L161.012 83.5188ZM155.761 83.7801L155.958 99.7789L156.257 99.7752L156.556 99.7603L155.761 83.7801ZM154.21 82.3922L138.217 82.8855L138.235 83.4628L138.295 84.0373L154.21 82.3922ZM153.851 70.7474L137.852 70.9449L137.854 71.0928L137.858 71.2407L153.851 70.7474ZM155.238 69.1965L154.589 53.2097L154.09 53.2299L153.593 53.2813L155.238 69.1965ZM159.724 69.0144L160.373 85.0012L176.517 84.3457L175.703 68.2081L159.724 69.0144ZM159.333 60.4693L143.336 60.787L143.338 60.8949L143.342 61.0027L159.333 60.4693ZM161.407 58.0733L160.521 42.0978L160.141 42.1189L159.762 42.1581L161.407 58.0733ZM174.632 57.3396L173.924 41.3553L173.835 41.3592L173.746 41.3642L174.632 57.3396ZM176.574 59.1093L192.55 58.2231L192.529 57.8429L192.49 57.4642L176.574 59.1093ZM176.939 68.0794L160.947 68.5864L161.46 84.7941L177.66 84.0631L176.939 68.0794ZM181.772 67.8613L182.493 83.845L182.956 83.8242L183.417 83.7765L181.772 67.8613ZM183.323 69.2492L199.315 68.7559L199.297 68.1786L199.238 67.6041L183.323 69.2492ZM183.682 80.894L199.682 80.8407L199.681 80.6206L199.674 80.4007L183.682 80.894ZM182.287 82.3753L183.208 98.3488L183.57 98.3278L183.932 98.2905L182.287 82.3753ZM177.67 82.6414L176.749 66.6679L160.033 67.6315L161.755 84.2865L177.67 82.6414ZM182.857 94.702L187.945 79.5325L187.801 79.4842L187.656 79.4386L182.857 94.702ZM169.182 91.9497L166.468 101.097L197.146 110.199L199.86 101.051L169.182 91.9497ZM166.501 100.988C166.526 100.904 167.069 98.9595 168.871 96.8523C169.878 95.6744 171.252 94.4728 173.034 93.5352C174.817 92.5973 176.59 92.1428 178.143 91.9823L181.433 123.813C186.065 123.334 190.221 121.123 193.192 117.648C195.638 114.788 196.668 111.772 197.114 110.308L166.501 100.988ZM178.143 91.9823C177.929 92.0044 178.485 91.9376 179.156 91.9243C179.931 91.9089 181.157 91.9474 182.626 92.2739L175.682 123.511C177.367 123.886 178.806 123.938 179.791 123.918C180.277 123.908 180.679 123.88 180.944 123.859C181.19 123.838 181.408 123.815 181.433 123.813L178.143 91.9823ZM180.643 91.9621C178.927 91.8017 178.433 91.5456 178.546 91.5978C178.844 91.7365 179.213 92.0412 179.385 92.2698C179.438 92.3401 179.026 91.8201 178.476 89.9911C177.923 88.149 177.373 85.4665 176.891 81.5596L145.132 85.4781C146.267 94.6791 148.29 104.176 153.827 111.525C160.318 120.142 169.317 123.043 177.665 123.823L180.643 91.9621ZM160.217 67.5386L154.966 67.7999L156.556 99.7603L161.807 99.499L160.217 67.5386ZM155.563 67.7813C163.175 67.6874 169.365 73.3914 170.125 80.7471L138.295 84.0373C139.213 92.9249 146.801 99.8919 155.958 99.7789L155.563 67.7813ZM170.202 81.8989L169.843 70.2541L137.858 71.2407L138.217 82.8855L170.202 81.8989ZM169.849 70.55C169.938 77.7023 164.622 84.3118 156.884 85.1117L153.593 53.2813C144.184 54.254 137.744 62.2463 137.852 70.9449L169.849 70.55ZM155.888 85.1833L160.373 85.0012L159.074 53.0276L154.589 53.2097L155.888 85.1833ZM175.703 68.2081C175.565 65.4674 175.419 62.7778 175.324 59.9358L143.342 61.0027C143.448 64.1921 143.614 67.2408 143.744 69.8207L175.703 68.2081ZM175.33 60.1515C175.312 59.2843 175.632 62.5415 173.939 66.028C172.898 68.1726 171.2 70.2948 168.78 71.8619C166.466 73.3606 164.246 73.8651 162.774 74.0173L159.484 42.1868C153.978 42.756 148.169 45.8386 145.153 52.0516C143.969 54.4893 143.587 56.7055 143.441 58.0832C143.298 59.4323 143.332 60.5732 143.336 60.787L175.33 60.1515ZM162.774 74.0173L163.053 73.9885L159.762 42.1581L159.484 42.1868L162.774 74.0173ZM162.294 74.0487L175.518 73.3151L173.746 41.3642L160.521 42.0978L162.294 74.0487ZM175.34 73.324C172.933 73.4306 168.726 72.8666 165.066 69.4383C161.62 66.2109 160.835 62.4595 160.659 60.7544L192.49 57.4642C192.191 54.5754 191.03 49.9128 186.942 46.0833C182.639 42.0529 177.523 41.196 173.924 41.3553L175.34 73.324ZM160.599 59.9955C160.751 62.7314 160.854 65.655 160.947 68.5864L192.931 67.5724C192.837 64.6118 192.724 61.3649 192.55 58.2231L160.599 59.9955ZM177.66 84.0631L182.493 83.845L181.051 51.8776L176.217 52.0957L177.66 84.0631ZM183.417 83.7765C173.955 84.7545 168.074 77.3381 167.408 70.8943L199.238 67.6041C198.399 59.4892 191.12 50.8097 180.127 51.9461L183.417 83.7765ZM167.33 69.7425L167.69 81.3873L199.674 80.4007L199.315 68.7559L167.33 69.7425ZM167.682 80.9473C167.662 74.9035 171.984 67.355 180.781 66.4457L184.071 98.2761C194.4 97.2084 199.707 88.2914 199.682 80.8407L167.682 80.9473ZM180.781 66.4457L180.642 66.4601L183.932 98.2905L184.071 98.2761L180.781 66.4457ZM181.366 66.4018L176.749 66.6679L178.59 98.6149L183.208 98.3488L181.366 66.4018ZM161.755 84.2865C162.123 87.8534 162.789 92.3328 164.395 96.4655C165.922 100.396 169.632 107.316 178.058 109.965L187.656 79.4386C190.144 80.2207 191.892 81.6525 192.938 82.8723C193.879 83.9712 194.205 84.8303 194.223 84.8754C194.255 84.9578 194.151 84.7037 194.002 83.9511C193.859 83.2258 193.715 82.2568 193.585 80.9963L161.755 84.2865ZM177.769 109.871C177.977 109.941 178.195 110.011 178.239 110.025C178.331 110.055 178.286 110.041 178.203 110.012C178.101 109.977 177.33 109.714 176.357 109.185C175.372 108.649 173.595 107.532 171.951 105.491C170.149 103.255 168.991 100.506 168.687 97.5741L200.518 94.2839C200.175 90.9689 198.879 87.9085 196.868 85.4127C195.014 83.1122 192.956 81.7863 191.645 81.073C190.345 80.3665 189.204 79.9579 188.711 79.7867C188.629 79.7583 187.364 79.3376 187.945 79.5325L177.769 109.871ZM168.687 97.5741C168.562 96.3609 168.607 95.3909 168.647 94.8542C168.69 94.2797 168.757 93.8316 168.798 93.5855C168.868 93.162 168.95 92.8145 168.902 93.0282L200.14 99.9727C200.14 99.9703 200.27 99.4067 200.373 98.7863C200.439 98.3856 200.753 96.5618 200.518 94.2839L168.687 97.5741Z" fill="#25BAFF" mask="url(#path-25-outside-10_2005_3)"/>
<ellipse cx="122" cy="90.5" rx="18" ry="16.5" fill="#4AC6FF"/>
<mask id="mask0_2005_3" style="mask-type:alpha" maskUnits="userSpaceOnUse" x="38" y="39" width="150" height="75">
<mask id="path-28-outside-11_2005_3" maskUnits="userSpaceOnUse" x="36.7475" y="37.8051" width="63.067" height="73.117" fill="black">
<rect fill="white" x="36.7475" y="37.8051" width="63.067" height="73.117"/>
<path d="M54.1816 101.352L42.6117 99.5652C41.8582 99.4069 41.2882 98.7149 41.3924 97.8785L50.2715 41.3055L50.3003 41.1685C50.4442 40.4834 51.1903 39.9964 51.8897 40.0718L65.7346 42.2647L65.8716 42.2935C66.6252 42.4517 67.0437 43.1834 66.9539 43.9514L63.9558 62.9917C66.7317 62.7164 69.6267 62.8954 72.504 63.4997C85.6569 66.2626 92.605 76.0907 90.0148 88.4216C87.3959 100.89 74.6617 107.37 62.6734 104.852C59.7276 104.233 56.897 103.067 54.1816 101.352ZM61.8781 76.2886L59.7537 90.1478C60.8463 90.735 61.9136 91.1022 63.0097 91.3325C67.8051 92.3397 72.1265 89.8142 73.105 85.1558C73.7238 82.2101 73.2637 77.2496 67.6463 76.0696C65.6596 75.6523 63.5435 75.8516 61.8781 76.2886Z"/>
</mask>
<path d="M54.1816 101.352L42.6117 99.5652C41.8582 99.4069 41.2882 98.7149 41.3924 97.8785L50.2715 41.3055L50.3003 41.1685C50.4442 40.4834 51.1903 39.9964 51.8897 40.0718L65.7346 42.2647L65.8716 42.2935C66.6252 42.4517 67.0437 43.1834 66.9539 43.9514L63.9558 62.9917C66.7317 62.7164 69.6267 62.8954 72.504 63.4997C85.6569 66.2626 92.605 76.0907 90.0148 88.4216C87.3959 100.89 74.6617 107.37 62.6734 104.852C59.7276 104.233 56.897 103.067 54.1816 101.352ZM61.8781 76.2886L59.7537 90.1478C60.8463 90.735 61.9136 91.1022 63.0097 91.3325C67.8051 92.3397 72.1265 89.8142 73.105 85.1558C73.7238 82.2101 73.2637 77.2496 67.6463 76.0696C65.6596 75.6523 63.5435 75.8516 61.8781 76.2886Z" fill="black"/>
<path d="M54.1816 101.352L54.7155 100.506L54.5397 100.395L54.3342 100.363L54.1816 101.352ZM42.6117 99.5652L42.4062 100.544L42.4325 100.549L42.4591 100.553L42.6117 99.5652ZM41.3924 97.8785L40.4045 97.7234L40.402 97.7391L40.4001 97.7549L41.3924 97.8785ZM50.2715 41.3055L49.2929 41.0999L49.2876 41.1251L49.2836 41.1505L50.2715 41.3055ZM51.8897 40.0718L52.0461 39.0841L52.0216 39.0802L51.9969 39.0776L51.8897 40.0718ZM65.7346 42.2647L65.9402 41.286L65.9157 41.2809L65.891 41.277L65.7346 42.2647ZM66.9539 43.9514L67.9418 44.1069L67.9448 44.0872L67.9472 44.0675L66.9539 43.9514ZM63.9558 62.9917L62.968 62.8361L62.7667 64.1145L64.0545 63.9868L63.9558 62.9917ZM61.8781 76.2885L61.6243 75.3213L60.9891 75.488L60.8896 76.137L61.8781 76.2885ZM59.7537 90.1478L58.7652 89.9963L58.6582 90.6944L59.2804 91.0287L59.7537 90.1478ZM54.3342 100.363L42.7643 98.5769L42.4591 100.553L54.029 102.34L54.3342 100.363ZM42.8173 98.5865C42.5278 98.5257 42.3504 98.2781 42.3847 98.0021L40.4001 97.7549C40.2261 99.1518 41.1885 100.288 42.4062 100.544L42.8173 98.5865ZM42.3803 98.0335L51.2594 41.4606L49.2836 41.1505L40.4045 97.7234L42.3803 98.0335ZM51.2502 41.5111L51.279 41.3741L49.3217 40.9629L49.2929 41.0999L51.2502 41.5111ZM51.279 41.3741C51.2886 41.328 51.3312 41.2418 51.4479 41.1626C51.5653 41.083 51.693 41.0564 51.7825 41.066L51.9969 39.0776C50.8454 38.9534 49.5829 39.7193 49.3217 40.9629L51.279 41.3741ZM51.7333 41.0595L65.5782 43.2524L65.891 41.277L52.0461 39.0841L51.7333 41.0595ZM65.529 43.2433L65.666 43.2721L66.0772 41.3148L65.9402 41.286L65.529 43.2433ZM65.666 43.2721C65.7601 43.2918 65.8292 43.3413 65.8822 43.4257C65.9404 43.5184 65.981 43.6619 65.9607 43.8352L67.9472 44.0675C68.0834 42.9024 67.4441 41.6019 66.0772 41.3148L65.666 43.2721ZM65.9661 43.7958L62.968 62.8361L64.9437 63.1472L67.9418 44.1069L65.9661 43.7958ZM64.0545 63.9868C66.721 63.7224 69.5133 63.8934 72.2984 64.4784L72.7095 62.5211C69.7402 61.8974 66.7424 61.7105 63.8572 61.9966L64.0545 63.9868ZM72.2984 64.4784C78.6769 65.8182 83.4605 68.8496 86.3453 72.9482C89.2247 77.0391 90.2812 82.2891 89.0362 88.2161L90.9935 88.6272C92.3386 82.2233 91.2162 76.3938 87.9808 71.7971C84.7509 67.2082 79.4839 63.9441 72.7095 62.5211L72.2984 64.4784ZM89.0362 88.2161C86.553 100.038 74.4389 106.302 62.8789 103.873L62.4678 105.831C74.8846 108.439 88.2388 101.741 90.9935 88.6272L89.0362 88.2161ZM62.8789 103.873C60.0573 103.281 57.3371 102.162 54.7155 100.506L53.6476 102.197C56.457 103.971 59.398 105.186 62.4678 105.831L62.8789 103.873ZM60.8896 76.137L58.7652 89.9963L60.7422 90.2994L62.8665 76.4401L60.8896 76.137ZM59.2804 91.0287C60.4635 91.6645 61.6219 92.0628 62.8042 92.3111L63.2153 90.3538C62.2054 90.1417 61.2292 89.8055 60.2271 89.267L59.2804 91.0287ZM62.8042 92.3111C68.0738 93.418 72.9782 90.6242 74.0837 85.3614L72.1264 84.9502C71.2749 89.0042 67.5364 91.2615 63.2153 90.3538L62.8042 92.3111ZM74.0837 85.3614C74.4204 83.7585 74.4782 81.5616 73.6357 79.5622C72.7677 77.5022 70.9795 75.748 67.8518 75.091L67.4407 77.0483C69.9304 77.5712 71.181 78.8873 71.7927 80.3389C72.43 81.8512 72.4085 83.6075 72.1264 84.9502L74.0837 85.3614ZM67.8518 75.091C65.6777 74.6343 63.4002 74.8553 61.6243 75.3213L62.1319 77.2558C63.6867 76.8478 65.6415 76.6703 67.4407 77.0483L67.8518 75.091Z" fill="white" mask="url(#path-28-outside-11_2005_3)"/>
<mask id="path-30-outside-12_2005_3" maskUnits="userSpaceOnUse" x="98" y="70" width="48" height="45" fill="black">
<rect fill="white" x="98" y="70" width="48" height="45"/>
<path d="M144.641 92.5C144.641 106.15 130.781 113.78 120.841 113.78C109.431 113.78 99.4206 105.52 99.4206 93.2C99.4206 78.78 110.201 71.29 122.521 71.29C137.991 71.29 144.641 83.4 144.641 92.5ZM122.521 100.41C127.491 100.41 129.731 96.35 129.731 92.36C129.731 91.03 129.451 84.24 122.311 84.24C116.431 84.24 114.751 89.21 114.751 92.36C114.751 97.19 118.531 100.41 122.521 100.41Z"/>
</mask>
<path d="M144.641 92.5C144.641 106.15 130.781 113.78 120.841 113.78C109.431 113.78 99.4206 105.52 99.4206 93.2C99.4206 78.78 110.201 71.29 122.521 71.29C137.991 71.29 144.641 83.4 144.641 92.5ZM122.521 100.41C127.491 100.41 129.731 96.35 129.731 92.36C129.731 91.03 129.451 84.24 122.311 84.24C116.431 84.24 114.751 89.21 114.751 92.36C114.751 97.19 118.531 100.41 122.521 100.41Z" fill="black"/>
<path d="M143.641 92.5C143.641 98.9485 140.377 103.997 135.859 107.466C131.322 110.949 125.585 112.78 120.841 112.78V114.78C126.037 114.78 132.2 112.796 137.077 109.052C141.974 105.293 145.641 99.7015 145.641 92.5H143.641ZM120.841 112.78C109.9 112.78 100.421 104.888 100.421 93.2H98.4206C98.4206 106.152 108.961 114.78 120.841 114.78V112.78ZM100.421 93.2C100.421 86.2606 103.004 81.0656 107.006 77.5928C111.027 74.1036 116.555 72.29 122.521 72.29V70.29C116.166 70.29 110.144 72.2214 105.695 76.0822C101.227 79.9594 98.4206 85.7194 98.4206 93.2H100.421ZM122.521 72.29C129.967 72.29 135.22 75.1922 138.625 79.136C142.053 83.1066 143.641 88.1724 143.641 92.5H145.641C145.641 87.7276 143.903 82.1884 140.139 77.829C136.352 73.4428 130.545 70.29 122.521 70.29V72.29ZM122.521 101.41C125.313 101.41 127.406 100.254 128.778 98.4965C130.125 96.7702 130.731 94.5263 130.731 92.36H128.731C128.731 94.1837 128.216 95.9648 127.201 97.266C126.21 98.5363 124.698 99.41 122.521 99.41V101.41ZM130.731 92.36C130.731 91.6497 130.661 89.4232 129.587 87.3424C129.042 86.2869 128.228 85.2491 127.02 84.4787C125.809 83.7058 124.261 83.24 122.311 83.24V85.24C123.931 85.24 125.095 85.6229 125.944 86.1647C126.797 86.709 127.392 87.4519 127.81 88.2601C128.66 89.9068 128.731 91.7403 128.731 92.36H130.731ZM122.311 83.24C119.04 83.24 116.847 84.6454 115.509 86.5421C114.205 88.3894 113.751 90.6372 113.751 92.36H115.751C115.751 90.9328 116.137 89.1206 117.143 87.6954C118.114 86.3196 119.702 85.24 122.311 85.24V83.24ZM113.751 92.36C113.751 97.7653 118.002 101.41 122.521 101.41V99.41C119.06 99.41 115.751 96.6147 115.751 92.36H113.751Z" fill="white" mask="url(#path-30-outside-12_2005_3)"/>
<mask id="path-32-outside-13_2005_3" maskUnits="userSpaceOnUse" x="149.832" y="53.8537" width="39.4748" height="58.2043" fill="black">
<rect fill="white" x="149.832" y="53.8537" width="39.4748" height="58.2043"/>
<path d="M184.521 96.5004L181.807 105.648C181.387 107.028 180.832 107.79 179.788 107.897C179.579 107.919 179.37 107.941 179.154 107.893C167.713 106.823 163.181 101.099 161.012 83.5188L155.761 83.7801C154.988 83.7896 154.289 83.1581 154.21 82.3922L153.851 70.7474C153.841 69.9743 154.403 69.2829 155.238 69.1965L159.724 69.0144C159.589 66.3541 159.433 63.4849 159.333 60.4693C159.316 59.6265 159.319 58.2892 161.129 58.1021L161.407 58.0733L174.632 57.3396C175.823 57.2869 176.452 57.9256 176.574 59.1093C176.737 62.0481 176.845 65.1334 176.939 68.0794L181.772 67.8613C182.538 67.7821 183.236 68.4137 183.323 69.2492L183.682 80.894C183.684 81.5975 183.192 82.2817 182.426 82.3609L182.287 82.3753L177.67 82.6414C178.325 88.9777 179.657 93.6957 182.857 94.702C183.659 94.9709 184.524 95.1631 184.603 95.929C184.617 96.0683 184.569 96.2843 184.521 96.5004Z"/>
</mask>
<path d="M184.521 96.5004L181.807 105.648C181.387 107.028 180.832 107.79 179.788 107.897C179.579 107.919 179.37 107.941 179.154 107.893C167.713 106.823 163.181 101.099 161.012 83.5188L155.761 83.7801C154.988 83.7896 154.289 83.1581 154.21 82.3922L153.851 70.7474C153.841 69.9743 154.403 69.2829 155.238 69.1965L159.724 69.0144C159.589 66.3541 159.433 63.4849 159.333 60.4693C159.316 59.6265 159.319 58.2892 161.129 58.1021L161.407 58.0733L174.632 57.3396C175.823 57.2869 176.452 57.9256 176.574 59.1093C176.737 62.0481 176.845 65.1334 176.939 68.0794L181.772 67.8613C182.538 67.7821 183.236 68.4137 183.323 69.2492L183.682 80.894C183.684 81.5975 183.192 82.2817 182.426 82.3609L182.287 82.3753L177.67 82.6414C178.325 88.9777 179.657 93.6957 182.857 94.702C183.659 94.9709 184.524 95.1631 184.603 95.929C184.617 96.0683 184.569 96.2843 184.521 96.5004Z" fill="black"/>
<path d="M184.521 96.5004L185.48 96.7848L185.49 96.7514L185.497 96.7174L184.521 96.5004ZM181.807 105.648L182.764 105.939L182.766 105.932L181.807 105.648ZM179.154 107.893L179.371 106.916L179.31 106.903L179.247 106.897L179.154 107.893ZM161.012 83.5188L162.004 83.3964L161.89 82.4739L160.962 82.5201L161.012 83.5188ZM155.761 83.7801L155.773 84.78L155.792 84.7798L155.81 84.7789L155.761 83.7801ZM154.21 82.3922L153.21 82.423L153.211 82.4591L153.215 82.495L154.21 82.3922ZM153.851 70.7474L152.851 70.7598L152.851 70.769L152.851 70.7783L153.851 70.7474ZM155.238 69.1965L155.198 68.1973L155.167 68.1986L155.136 68.2018L155.238 69.1965ZM159.724 69.0144L159.764 70.0136L160.773 69.9726L160.722 68.964L159.724 69.0144ZM159.333 60.4693L158.333 60.4891L158.333 60.5026L159.333 60.4693ZM161.407 58.0733L161.352 57.0748L161.328 57.0761L161.305 57.0786L161.407 58.0733ZM174.632 57.3396L174.588 56.3405L174.577 56.3412L174.632 57.3396ZM176.574 59.1093L177.573 59.0539L177.572 59.0302L177.569 59.0065L176.574 59.1093ZM176.939 68.0794L175.939 68.1111L175.971 69.1241L176.984 69.0784L176.939 68.0794ZM181.772 67.8613L181.817 68.8603L181.846 68.859L181.875 68.856L181.772 67.8613ZM183.323 69.2492L184.322 69.2184L184.321 69.1823L184.317 69.1464L183.323 69.2492ZM183.682 80.894L184.682 80.8907L184.682 80.8769L184.681 80.8632L183.682 80.894ZM182.287 82.3753L182.344 83.3736L182.367 83.3723L182.39 83.37L182.287 82.3753ZM177.67 82.6414L177.612 81.6431L176.567 81.7033L176.675 82.7442L177.67 82.6414ZM182.857 94.702L183.175 93.7539L183.166 93.7508L183.157 93.748L182.857 94.702ZM183.562 96.216L180.848 105.364L182.766 105.932L185.48 96.7848L183.562 96.216ZM180.851 105.357C180.655 105.999 180.46 106.379 180.271 106.6C180.115 106.783 179.95 106.875 179.685 106.903L179.891 108.892C180.67 108.812 181.304 108.47 181.792 107.9C182.246 107.368 182.539 106.678 182.764 105.939L180.851 105.357ZM179.685 106.903C179.574 106.914 179.511 106.92 179.454 106.921C179.403 106.922 179.38 106.919 179.371 106.916L178.937 108.869C179.336 108.957 179.704 108.911 179.891 108.892L179.685 106.903ZM179.247 106.897C173.691 106.378 170.01 104.754 167.405 101.296C164.739 97.7575 163.085 92.1608 162.004 83.3964L160.019 83.6413C161.107 92.457 162.804 98.5126 165.807 102.499C168.87 106.565 173.176 108.338 179.061 108.888L179.247 106.897ZM160.962 82.5201L155.711 82.7813L155.81 84.7789L161.061 84.5176L160.962 82.5201ZM155.748 82.7802C155.499 82.7833 155.231 82.5477 155.204 82.2894L153.215 82.495C153.347 83.7685 154.476 84.796 155.773 84.78L155.748 82.7802ZM155.209 82.3614L154.85 70.7166L152.851 70.7783L153.21 82.423L155.209 82.3614ZM154.85 70.7351C154.847 70.4573 155.042 70.2222 155.341 70.1912L155.136 68.2018C153.764 68.3436 152.835 69.4913 152.851 70.7598L154.85 70.7351ZM155.279 70.1957L159.764 70.0136L159.683 68.0152L155.198 68.1973L155.279 70.1957ZM160.722 68.964C160.588 66.2987 160.433 63.4407 160.332 60.4359L158.333 60.5026C158.434 63.5291 158.591 66.4095 158.725 69.0648L160.722 68.964ZM160.333 60.4494C160.324 60.0002 160.34 59.6928 160.445 59.4766C160.486 59.3935 160.538 59.3283 160.626 59.2717C160.72 59.2108 160.899 59.1311 161.232 59.0967L161.026 57.1073C159.833 57.2306 159.045 57.7806 158.646 58.603C158.301 59.313 158.325 60.0956 158.333 60.4891L160.333 60.4494ZM161.232 59.0967L161.51 59.068L161.305 57.0786L161.026 57.1073L161.232 59.0967ZM161.463 59.0717L174.688 58.3381L174.577 56.3412L161.352 57.0748L161.463 59.0717ZM174.676 58.3387C175.084 58.3206 175.248 58.4227 175.32 58.4907C175.406 58.5712 175.533 58.7638 175.58 59.2121L177.569 59.0065C177.493 58.2711 177.244 57.5526 176.688 57.031C176.117 56.4968 175.371 56.3059 174.588 56.3406L174.676 58.3387ZM175.576 59.1647C175.738 62.0908 175.846 65.166 175.939 68.1111L177.938 68.0477C177.845 65.1008 177.737 62.0054 177.573 59.0539L175.576 59.1647ZM176.984 69.0784L181.817 68.8603L181.727 66.8623L176.894 67.0804L176.984 69.0784ZM181.875 68.856C181.945 68.8487 182.038 68.87 182.134 68.9564C182.232 69.044 182.311 69.1826 182.328 69.352L184.317 69.1464C184.184 67.8559 183.074 66.7214 181.669 66.8666L181.875 68.856ZM182.323 69.28L182.682 80.9248L184.681 80.8632L184.322 69.2184L182.323 69.28ZM182.682 80.8973C182.682 81.0201 182.638 81.1426 182.566 81.2309C182.5 81.3116 182.421 81.3561 182.323 81.3662L182.529 83.3556C183.893 83.2146 184.686 82.0158 184.682 80.8907L182.682 80.8973ZM182.323 81.3662L182.184 81.3806L182.39 83.37L182.529 83.3556L182.323 81.3662ZM182.229 81.3769L177.612 81.6431L177.727 83.6398L182.344 83.3736L182.229 81.3769ZM176.675 82.7442C177.005 85.9373 177.512 88.8081 178.377 91.0326C179.236 93.2445 180.531 95.0186 182.557 95.6559L183.157 93.748C181.984 93.379 181.012 92.291 180.241 90.3082C179.476 88.3381 178.989 85.6818 178.664 82.5386L176.675 82.7442ZM182.539 95.65C182.789 95.7337 182.927 95.7737 183.129 95.844C183.305 95.9053 183.431 95.9575 183.523 96.0076C183.615 96.0573 183.635 96.0852 183.631 96.0794C183.627 96.0748 183.62 96.0646 183.614 96.0503C183.608 96.036 183.608 96.028 183.608 96.0318L185.597 95.8262C185.511 94.9915 184.965 94.515 184.479 94.2506C184.051 94.018 183.493 93.8603 183.175 93.7539L182.539 95.65ZM183.608 96.0318C183.604 95.9886 183.606 95.9651 183.606 95.9721C183.605 95.9767 183.604 95.9926 183.599 96.0234C183.588 96.0892 183.57 96.1688 183.545 96.2834L185.497 96.7174C185.52 96.616 185.55 96.4795 185.572 96.3484C185.591 96.2311 185.619 96.0338 185.597 95.8262L183.608 96.0318Z" fill="white" mask="url(#path-32-outside-13_2005_3)"/>
</mask>
<g mask="url(#mask0_2005_3)">
<rect x="-5.5" y="-55.5" width="456" height="231" fill="#D74E12" stroke="black"/>
<path d="M113.935 -70.3832C119.909 -68.706 126.173 -68.3309 132.304 -69.2833L192.883 -78.6938C210.503 -81.431 228.449 -76.449 242.137 -65.0201L262.363 -48.1323C273.512 -38.8232 287.575 -33.7238 302.1 -33.7238H341.535C363.511 -33.7238 383.708 -21.6434 394.103 -2.28133C402.137 12.6835 416.169 23.5148 432.681 27.4977L484.002 39.8771C499.931 43.7193 513.692 53.7112 522.276 67.6687L542.86 101.138C548.812 110.817 551.68 122.077 551.083 133.424C549.074 171.593 510.267 196.583 474.687 182.618L254 96L84.6939 16.3758C65.5007 7.34936 54.9594 -13.6228 59.1665 -34.4111L59.742 -37.2544C64.7403 -61.9522 89.675 -77.195 113.935 -70.3832Z" fill="#F9A52C"/>
<path d="M37.9702 -64.7321C44.4998 -61.546 51.8485 -60.4359 59.0278 -61.5512L117.883 -70.6938C135.503 -73.431 153.449 -68.449 167.137 -57.0201L187.363 -40.1323C198.512 -30.8232 212.575 -25.7238 227.1 -25.7238H266.535C288.511 -25.7238 308.708 -13.6434 319.103 5.71867C327.137 20.6835 341.169 31.5148 357.681 35.4977L409.002 47.8771C424.931 51.7193 438.692 61.7112 447.276 75.6687L469.761 112.23C474.494 119.926 477 128.783 477 137.818C477 168.838 448.462 192 418.106 185.619L145.715 128.355C132.286 125.532 120.172 118.333 111.273 107.886L-34.8725 -63.6764C-35.6222 -64.5565 -36.2811 -65.5102 -36.8391 -66.5229C-44.9262 -81.1995 -29.3426 -97.577 -14.2825 -90.2286L37.9702 -64.7321Z" fill="#EFDF48"/>
<path d="M-73.5679 -21.3701C-68.2225 -32.6604 -57.5392 -40.4896 -45.1632 -42.1865L30.6418 -52.5804C46.6346 -54.7732 62.8521 -50.6421 75.8468 -41.0652L112.088 -14.3565C122.743 -6.50327 135.633 -2.26667 148.87 -2.26667H214.218C235.862 -2.26667 255.94 9.02109 267.188 27.5135L271.63 34.8154C280.501 49.3999 294.993 59.6816 311.689 63.2363L387.763 79.4329C403.155 82.71 416.725 91.7174 425.722 104.629L446.997 135.162C457.909 150.824 458.392 171.496 448.221 187.649C437.828 204.155 418.405 212.634 399.235 209.034L241.76 179.458C236.608 178.49 231.598 176.872 226.853 174.644L8.68402 72.1994C5.56676 70.7357 2.57688 69.0148 -0.254601 67.0545L-61.192 24.8671C-76.0782 14.5612 -81.3156 -5.00605 -73.5679 -21.3701Z" fill="#8BD346"/>
<path d="M-40.7782 38.5459C-34.2129 15.165 -14.6013 -2.23016 9.3961 -5.95798L39.8825 -10.6938C57.503 -13.431 75.4491 -8.44897 89.1369 2.97988L109.363 19.8677C120.512 29.1768 134.575 34.2762 149.1 34.2762H188.535C210.511 34.2762 230.708 46.3566 241.103 65.7187C249.137 80.6835 263.169 91.5148 279.681 95.4977L331.002 107.877C346.931 111.719 360.692 121.711 369.276 135.669L387.848 165.866C394.874 177.291 396.152 191.344 391.304 203.849C384.568 221.221 367.388 232.258 348.788 231.164L188.264 221.721C180.167 221.245 172.241 219.184 164.937 215.656L-13.2364 129.589C-40.2932 116.519 -54.0834 85.9294 -45.9601 57.0001L-40.7782 38.5459Z" fill="#60DBE8"/>
<path d="M-58.5058 86.0048C-57.6333 56.11 -35.5441 31.0991 -5.9864 26.5385L2.34584 25.2529C19.876 22.5482 37.7251 27.4811 51.3783 38.8041L65.246 50.3047C76.3714 59.5313 90.3707 64.581 104.824 64.581H137.78C157.242 64.581 175.138 75.2506 184.392 92.3717C191.554 105.62 204.014 115.195 218.66 118.704L270.764 131.188C280.907 133.618 289.679 139.956 295.169 148.824C309.646 172.203 296.428 202.855 269.489 208.375L212.683 220.016C206.268 221.33 200.102 223.653 194.414 226.897L100.935 280.209C84.5456 289.556 64.792 290.932 47.2654 283.946L-22.7155 256.055C-46.9067 246.414 -62.4946 222.683 -61.7349 196.652L-58.5058 86.0048Z" fill="#16A4D8"/>
<path d="M-10.0533 79C-7.35682 79 -4.66607 78.7518 -2.01509 78.2586L16.7669 74.7643C29.4314 72.4081 42.4436 76.4436 51.5525 85.5525C58.8822 92.8822 68.8234 97 79.1892 97H87.4778C98.7475 97 108.967 103.618 113.577 113.902C117.016 121.575 123.659 127.346 131.737 129.68L142.299 132.731C156.149 136.732 167.733 146.27 174.318 159.094L177.211 164.727C181.016 172.135 183 180.344 183 188.673C183 217.194 160.199 240.481 131.684 241.083L9.30772 243.664C-25.4381 244.397 -54 216.432 -54 181.678V122.947C-54 98.6756 -34.3244 79 -10.0533 79Z" fill="#9B5FE0"/>
</g>
<g filter="url(#filter0_d_2005_3)">
<mask id="path-41-outside-14_2005_3" maskUnits="userSpaceOnUse" x="35.5632" y="36.6209" width="65.4355" height="75.4855" fill="black">
<rect fill="white" x="35.5632" y="36.6209" width="65.4355" height="75.4855"/>
<path d="M54.1816 101.352L42.6117 99.5652C41.8582 99.4069 41.2882 98.7149 41.3924 97.8785L50.2715 41.3055L50.3003 41.1685C50.4442 40.4834 51.1903 39.9964 51.8897 40.0718L65.7346 42.2647L65.8716 42.2935C66.6252 42.4517 67.0437 43.1834 66.9539 43.9514L63.9558 62.9917C66.7317 62.7164 69.6267 62.8954 72.504 63.4997C85.6569 66.2626 92.605 76.0907 90.0148 88.4216C87.3959 100.89 74.6617 107.37 62.6734 104.852C59.7276 104.233 56.897 103.067 54.1816 101.352ZM61.8781 76.2886L59.7537 90.1478C60.8463 90.735 61.9136 91.1022 63.0097 91.3325C67.8051 92.3397 72.1265 89.8142 73.105 85.1558C73.7238 82.2101 73.2637 77.2496 67.6463 76.0696C65.6596 75.6523 63.5435 75.8516 61.8781 76.2886Z"/>
</mask>
<path d="M54.1816 101.352L54.9825 100.083L54.7187 99.9168L54.4105 99.8692L54.1816 101.352ZM42.6117 99.5652L42.3034 101.033L42.3429 101.041L42.3828 101.048L42.6117 99.5652ZM41.3924 97.8785L39.9105 97.6459L39.9068 97.6694L39.9039 97.6931L41.3924 97.8785ZM50.2715 41.3055L48.8036 40.9972L48.7956 41.0349L48.7897 41.0729L50.2715 41.3055ZM51.8897 40.0718L52.1244 38.5903L52.0875 38.5844L52.0505 38.5804L51.8897 40.0718ZM65.7346 42.2647L66.043 40.7967L66.0063 40.789L65.9693 40.7831L65.7346 42.2647ZM66.9539 43.9514L68.4357 44.1847L68.4403 44.1552L68.4438 44.1255L66.9539 43.9514ZM63.9558 62.9917L62.4741 62.7584L62.1722 64.6759L64.1039 64.4844L63.9558 62.9917ZM61.8781 76.2886L61.4974 74.8377L60.5446 75.0877L60.3954 76.0613L61.8781 76.2886ZM59.7537 90.1478L58.271 89.9206L58.1105 90.9677L59.0437 91.4692L59.7537 90.1478ZM54.4105 99.8692L42.8406 98.0827L42.3828 101.048L53.9527 102.834L54.4105 99.8692ZM42.9201 98.0972C42.9097 98.095 42.9004 98.0911 42.8928 98.0862C42.885 98.0813 42.8807 98.0765 42.8791 98.0744C42.8779 98.0728 42.879 98.0739 42.8799 98.0772C42.8803 98.0786 42.8803 98.079 42.8802 98.0778C42.8801 98.0767 42.8799 98.0723 42.8809 98.0639L39.9039 97.6931C39.695 99.3702 40.8537 100.729 42.3034 101.033L42.9201 98.0972ZM42.8743 98.1111L51.7534 41.5381L48.7897 41.0729L39.9105 97.6459L42.8743 98.1111ZM51.7395 41.6139L51.7683 41.4768L48.8323 40.8601L48.8036 40.9972L51.7395 41.6139ZM51.7683 41.4768C51.7576 41.5276 51.7389 41.5592 51.7295 41.5724C51.7209 41.5844 51.7188 41.583 51.7286 41.5765C51.7382 41.5699 51.7487 41.5655 51.7552 41.5638C51.7615 41.5621 51.7528 41.5657 51.7289 41.5632L52.0505 38.5804C50.673 38.432 49.1522 39.3372 48.8323 40.8601L51.7683 41.4768ZM51.655 41.5533L65.4999 43.7462L65.9693 40.7831L52.1244 38.5903L51.655 41.5533ZM65.4263 43.7326L65.5633 43.7614L66.18 40.8255L66.043 40.7967L65.4263 43.7326ZM65.5633 43.7614C65.548 43.7582 65.5234 43.7491 65.4986 43.7313C65.4753 43.7146 65.4631 43.6985 65.4588 43.6916C65.4549 43.6854 65.4585 43.6889 65.462 43.705C65.4654 43.7209 65.4678 43.7455 65.4641 43.7772L68.4438 44.1255C68.6032 42.7619 67.8536 41.177 66.18 40.8255L65.5633 43.7614ZM65.4722 43.718L62.4741 62.7584L65.4376 63.225L68.4357 44.1847L65.4722 43.718ZM64.1039 64.4844C66.7156 64.2254 69.4565 64.3924 72.1956 64.9677L72.8123 62.0318C69.797 61.3984 66.7478 61.2075 63.8078 61.499L64.1039 64.4844ZM72.1956 64.9677C78.4752 66.2868 83.1379 69.26 85.9364 73.236C88.7268 77.2004 89.7668 82.3056 88.5469 88.1133L91.4828 88.73C92.853 82.2068 91.7141 76.2325 88.3897 71.5093C85.0735 66.7978 79.6857 63.4756 72.8123 62.0318L72.1956 64.9677ZM88.5469 88.1133C86.1315 99.6121 74.3274 105.767 62.9817 103.384L62.365 106.32C74.9961 108.973 88.6603 102.167 91.4828 88.73L88.5469 88.1133ZM62.9817 103.384C60.2222 102.804 57.5572 101.709 54.9825 100.083L53.3806 102.62C56.2369 104.424 59.2331 105.662 62.365 106.32L62.9817 103.384ZM60.3954 76.0613L58.271 89.9206L61.2364 90.3751L63.3608 76.5158L60.3954 76.0613ZM59.0437 91.4692C60.272 92.1292 61.476 92.5431 62.7014 92.8004L63.3181 89.8645C62.3512 89.6614 61.4207 89.3408 60.4637 88.8265L59.0437 91.4692ZM62.7014 92.8004C68.2081 93.9571 73.4041 91.0292 74.573 85.4642L71.6371 84.8475C70.849 88.5992 67.402 90.7224 63.3181 89.8645L62.7014 92.8004ZM74.573 85.4642C74.9234 83.7962 74.9903 81.4892 74.0965 79.3681C73.1644 77.1559 71.2418 75.2921 67.9546 74.6017L67.3379 77.5376C69.6682 78.0271 70.7844 79.2335 71.3319 80.533C71.9179 81.9236 71.9055 83.5697 71.6371 84.8475L74.573 85.4642ZM67.9546 74.6017C65.6867 74.1253 63.3286 74.3572 61.4974 74.8377L62.2588 77.7394C63.7583 77.346 65.6325 77.1794 67.3379 77.5376L67.9546 74.6017Z" fill="#0180BA" mask="url(#path-41-outside-14_2005_3)"/>
<mask id="path-43-outside-15_2005_3" maskUnits="userSpaceOnUse" x="97" y="69" width="50" height="47" fill="black">
<rect fill="white" x="97" y="69" width="50" height="47"/>
<path d="M144.641 92.5C144.641 106.15 130.781 113.78 120.841 113.78C109.431 113.78 99.4206 105.52 99.4206 93.2C99.4206 78.78 110.201 71.29 122.521 71.29C137.991 71.29 144.641 83.4 144.641 92.5ZM122.521 100.41C127.491 100.41 129.731 96.35 129.731 92.36C129.731 91.03 129.451 84.24 122.311 84.24C116.431 84.24 114.751 89.21 114.751 92.36C114.751 97.19 118.531 100.41 122.521 100.41Z"/>
</mask>
<path d="M143.141 92.5C143.141 98.7602 139.978 103.673 135.555 107.069C131.102 110.487 125.471 112.28 120.841 112.28V115.28C126.15 115.28 132.419 113.258 137.382 109.449C142.373 105.617 146.141 99.8898 146.141 92.5H143.141ZM120.841 112.28C110.135 112.28 100.921 104.573 100.921 93.2H97.9206C97.9206 106.467 108.726 115.28 120.841 115.28V112.28ZM100.921 93.2C100.921 86.3958 103.448 81.3421 107.334 77.9704C111.248 74.5741 116.652 72.79 122.521 72.79V69.79C116.069 69.79 109.924 71.7509 105.368 75.7046C100.783 79.6829 97.9206 85.5842 97.9206 93.2H100.921ZM122.521 72.79C129.822 72.79 134.937 75.6296 138.247 79.4628C141.591 83.3361 143.141 88.2836 143.141 92.5H146.141C146.141 87.6164 144.365 81.9589 140.517 77.5022C136.634 73.0054 130.689 69.79 122.521 69.79V72.79ZM122.521 101.91C125.466 101.91 127.706 100.683 129.172 98.8041C130.602 96.9715 131.231 94.6119 131.231 92.36H128.231C128.231 94.0981 127.739 95.7635 126.807 96.9584C125.911 98.1069 124.545 98.91 122.521 98.91V101.91ZM131.231 92.36C131.231 91.627 131.162 89.3023 130.031 87.113C129.454 85.9956 128.585 84.8842 127.289 84.0572C125.987 83.2266 124.343 82.74 122.311 82.74V85.74C123.848 85.74 124.917 86.1022 125.675 86.5863C126.44 87.074 126.98 87.7431 127.365 88.4895C128.16 90.0277 128.231 91.763 128.231 92.36H131.231ZM122.311 82.74C118.874 82.74 116.531 84.2268 115.1 86.2537C113.722 88.2066 113.251 90.5634 113.251 92.36H116.251C116.251 91.0066 116.62 89.3034 117.551 87.9838C118.43 86.7382 119.867 85.74 122.311 85.74V82.74ZM113.251 92.36C113.251 98.0529 117.737 101.91 122.521 101.91V98.91C119.324 98.91 116.251 96.3271 116.251 92.36H113.251Z" fill="#0180BA" mask="url(#path-43-outside-15_2005_3)"/>
<mask id="path-45-outside-16_2005_3" maskUnits="userSpaceOnUse" x="149.832" y="53.8537" width="39.4748" height="58.2043" fill="black">
<rect fill="white" x="149.832" y="53.8537" width="39.4748" height="58.2043"/>
<path d="M184.521 96.5004L181.807 105.648C181.387 107.028 180.832 107.79 179.788 107.897C179.579 107.919 179.37 107.941 179.154 107.893C167.713 106.823 163.181 101.099 161.012 83.5188L155.761 83.7801C154.988 83.7896 154.289 83.1581 154.21 82.3922L153.851 70.7474C153.841 69.9743 154.403 69.2829 155.238 69.1965L159.724 69.0144C159.589 66.3541 159.433 63.4849 159.333 60.4693C159.316 59.6265 159.319 58.2892 161.129 58.1021L161.407 58.0733L174.632 57.3396C175.823 57.2869 176.452 57.9256 176.574 59.1093C176.737 62.0481 176.845 65.1334 176.939 68.0794L181.772 67.8613C182.538 67.7821 183.236 68.4137 183.323 69.2492L183.682 80.894C183.684 81.5975 183.192 82.2817 182.426 82.3609L182.287 82.3753L177.67 82.6414C178.325 88.9777 179.657 93.6957 182.857 94.702C183.659 94.9709 184.524 95.1631 184.603 95.929C184.617 96.0683 184.569 96.2843 184.521 96.5004Z"/>
</mask>
<path d="M184.521 96.5004L185.959 96.9271L185.974 96.877L185.985 96.8259L184.521 96.5004ZM181.807 105.648L183.242 106.085L183.245 106.075L181.807 105.648ZM179.154 107.893L179.479 106.428L179.387 106.408L179.293 106.399L179.154 107.893ZM161.012 83.5188L162.5 83.3351L162.33 81.9514L160.937 82.0207L161.012 83.5188ZM155.761 83.7801L155.779 85.28L155.807 85.2796L155.835 85.2782L155.761 83.7801ZM154.21 82.3922L152.71 82.4385L152.712 82.4926L152.718 82.5464L154.21 82.3922ZM153.851 70.7474L152.351 70.7659L152.351 70.7798L152.351 70.7937L153.851 70.7474ZM155.238 69.1965L155.178 67.6977L155.131 67.6996L155.084 67.7045L155.238 69.1965ZM159.724 69.0144L159.784 70.5132L161.298 70.4517L161.222 68.9388L159.724 69.0144ZM159.333 60.4693L157.833 60.4991L157.833 60.5092L157.834 60.5193L159.333 60.4693ZM161.407 58.0733L161.324 56.5756L161.289 56.5775L161.253 56.5812L161.407 58.0733ZM174.632 57.3396L174.566 55.8411L174.557 55.8415L174.549 55.8419L174.632 57.3396ZM176.574 59.1093L178.072 59.0262L178.07 58.9906L178.066 58.9551L176.574 59.1093ZM176.939 68.0794L175.439 68.1269L175.488 69.6464L177.006 69.5779L176.939 68.0794ZM181.772 67.8613L181.839 69.3598L181.883 69.3578L181.926 69.3534L181.772 67.8613ZM183.323 69.2492L184.822 69.203L184.82 69.1488L184.815 69.095L183.323 69.2492ZM183.682 80.894L185.182 80.889L185.182 80.8684L185.181 80.8477L183.682 80.894ZM182.287 82.3753L182.373 83.8728L182.407 83.8708L182.441 83.8673L182.287 82.3753ZM177.67 82.6414L177.583 81.1439L176.016 81.2342L176.178 82.7956L177.67 82.6414ZM182.857 94.702L183.334 93.2798L183.321 93.2753L183.307 93.271L182.857 94.702ZM183.083 96.0738L180.369 105.221L183.245 106.075L185.959 96.9271L183.083 96.0738ZM180.372 105.211C180.184 105.829 180.014 106.132 179.891 106.275C179.84 106.335 179.805 106.357 179.786 106.367C179.767 106.377 179.725 106.396 179.634 106.405L179.942 109.39C180.85 109.296 181.601 108.892 182.172 108.225C182.692 107.616 183.01 106.848 183.242 106.085L180.372 105.211ZM179.634 106.405C179.579 106.411 179.542 106.415 179.508 106.418C179.475 106.42 179.456 106.421 179.444 106.421C179.421 106.422 179.44 106.42 179.479 106.428L178.828 109.357C179.319 109.466 179.767 109.408 179.942 109.39L179.634 106.405ZM179.293 106.399C173.819 105.887 170.295 104.302 167.804 100.995C165.223 97.5687 163.58 92.0867 162.5 83.3351L159.523 83.7025C160.612 92.5311 162.32 98.7013 165.408 102.8C168.585 107.017 173.048 108.828 179.014 109.386L179.293 106.399ZM160.937 82.0207L155.686 82.282L155.835 85.2782L161.086 85.017L160.937 82.0207ZM155.742 82.2802C155.757 82.28 155.763 82.2831 155.758 82.2813C155.753 82.2791 155.741 82.2729 155.727 82.2607C155.713 82.2485 155.705 82.2364 155.701 82.2291C155.698 82.2225 155.701 82.2252 155.702 82.238L152.718 82.5464C152.876 84.0738 154.22 85.2992 155.779 85.28L155.742 82.2802ZM155.709 82.346L155.35 70.7012L152.351 70.7937L152.71 82.4385L155.709 82.346ZM155.35 70.7289C155.35 70.7127 155.356 70.7029 155.36 70.6987C155.361 70.697 155.362 70.6962 155.364 70.6953C155.364 70.695 155.372 70.6907 155.393 70.6886L155.084 67.7045C153.445 67.8739 152.332 69.2498 152.351 70.7659L155.35 70.7289ZM155.299 70.6953L159.784 70.5132L159.663 67.5156L155.178 67.6977L155.299 70.6953ZM161.222 68.9388C161.087 66.271 160.932 63.4186 160.832 60.4193L157.834 60.5193C157.935 63.5512 158.092 66.4372 158.225 69.09L161.222 68.9388ZM160.833 60.4395C160.828 60.2291 160.828 60.0718 160.843 59.9283C160.858 59.7875 160.883 59.7197 160.895 59.6949C160.899 59.6862 160.894 59.6939 160.898 59.6914C160.911 59.6825 161.011 59.6222 161.283 59.5941L160.975 56.61C159.638 56.7481 158.683 57.3825 158.196 58.3847C157.792 59.218 157.826 60.1195 157.833 60.4991L160.833 60.4395ZM161.283 59.5941L161.562 59.5653L161.253 56.5812L160.975 56.61L161.283 59.5941ZM161.491 59.571L174.715 58.8373L174.549 55.8419L161.324 56.5756L161.491 59.571ZM174.698 58.8382C174.859 58.8311 174.944 58.85 174.976 58.8599C175.001 58.8678 174.993 58.8694 174.979 58.8556C174.947 58.8258 175.043 58.887 175.082 59.2635L178.066 58.9551C177.983 58.1479 177.704 57.2979 177.029 56.6661C176.335 56.0154 175.443 55.8023 174.566 55.8411L174.698 58.8382ZM175.077 59.1924C175.239 62.1122 175.346 65.1823 175.439 68.1269L178.438 68.0319C178.344 65.0845 178.236 61.9841 178.072 59.0262L175.077 59.1924ZM177.006 69.5779L181.839 69.3598L181.704 66.3628L176.871 66.5809L177.006 69.5779ZM181.926 69.3534C181.888 69.3573 181.854 69.3515 181.829 69.343C181.807 69.3351 181.798 69.327 181.8 69.3285C181.806 69.3336 181.826 69.3582 181.831 69.4034L184.815 69.095C184.658 67.577 183.342 66.191 181.618 66.3693L181.926 69.3534ZM181.823 69.2954L182.183 80.9402L185.181 80.8477L184.822 69.203L181.823 69.2954ZM182.182 80.899C182.182 80.8999 182.182 80.9048 182.179 80.9112C182.177 80.9177 182.175 80.919 182.178 80.9156C182.181 80.9115 182.192 80.9003 182.212 80.8889C182.234 80.8766 182.256 80.8704 182.272 80.8688L182.58 83.8529C184.243 83.6811 185.186 82.225 185.182 80.889L182.182 80.899ZM182.272 80.8688L182.133 80.8832L182.441 83.8673L182.58 83.8529L182.272 80.8688ZM182.201 80.8778L177.583 81.1439L177.756 84.1389L182.373 83.8728L182.201 80.8778ZM176.178 82.7956C176.509 86.0011 177.022 88.9256 177.911 91.2137C178.793 93.4829 180.167 95.4286 182.407 96.1329L183.307 93.271C182.347 92.9691 181.455 92.0526 180.707 90.1271C179.966 88.2206 179.485 85.6179 179.162 82.4872L176.178 82.7956ZM182.38 96.1241C182.491 96.1611 182.603 96.197 182.698 96.2278C182.798 96.26 182.884 96.2882 182.965 96.3163C183.132 96.3744 183.228 96.4161 183.284 96.4469C183.34 96.477 183.301 96.4667 183.241 96.3932C183.167 96.3013 183.121 96.1846 183.111 96.0832L186.095 95.7748C185.985 94.7143 185.284 94.1192 184.718 93.8114C184.239 93.5511 183.61 93.3722 183.334 93.2798L182.38 96.1241ZM183.111 96.0832C183.106 96.0396 183.105 96.005 183.105 95.9824C183.105 95.9594 183.106 95.9431 183.107 95.9349C183.108 95.9202 183.109 95.9206 183.105 95.9421C183.102 95.9625 183.096 95.9915 183.088 96.0328C183.079 96.0746 183.069 96.1191 183.057 96.1749L185.985 96.8259C186.007 96.7278 186.041 96.5771 186.065 96.4297C186.086 96.3029 186.123 96.0514 186.095 95.7748L183.111 96.0832Z" fill="#0180BA" mask="url(#path-45-outside-16_2005_3)"/>
</g>
<g filter="url(#filter1_d_2005_3)">
<g filter="url(#filter2_d_2005_3)">
<path d="M152.715 125.989C151.976 126.522 151.402 127.228 151.023 128.053C150.812 128.526 150.899 129.062 151.249 129.443C151.87 130.106 152.638 130.594 153.508 130.866M160.287 124.758C161.157 125.03 161.925 125.518 162.546 126.181C162.895 126.562 162.983 127.098 162.772 127.571C162.393 128.396 161.819 129.102 161.08 129.635M143.471 121.246L166.905 117.425M154.499 136.962L161.815 135.773C167.911 134.783 169.953 131.948 168.963 125.851L167.773 118.535C166.783 112.439 163.948 110.396 157.851 111.387L150.535 112.576C144.439 113.567 142.396 116.402 143.387 122.499L144.576 129.815C145.567 135.911 148.402 137.953 154.499 136.962Z" stroke="#4AC6FF" stroke-width="9" stroke-linecap="round" stroke-linejoin="round" shape-rendering="crispEdges"/>
</g>
<g filter="url(#filter3_d_2005_3)">
<path d="M83.1523 118.146L81.3824 120.119C80.9872 120.553 81.1417 121.015 81.7097 121.135L83.2444 121.461C83.8244 121.584 83.9668 122.044 83.5717 122.478L81.8138 124.453M75.3049 134.299C78.2388 134.1 81.1632 134.721 83.7638 136.094M76.0786 129.462L76.3761 128.06C73.9531 125.791 72.3641 122.032 73.1026 118.551C74.3718 112.57 80.8649 109.048 86.789 111.719C89.3918 112.903 91.3998 115.223 92.1137 117.989C93.5623 123.6 89.7602 128.425 85.3571 129.953L85.0597 131.355C84.9853 131.706 84.9464 132.543 83.6534 132.269L76.9951 130.856C75.6633 130.586 75.9427 130.103 76.0786 129.462Z" stroke="#4AC6FF" stroke-width="9" stroke-linecap="round" stroke-linejoin="round" shape-rendering="crispEdges"/>
</g>
<path d="M93.6709 46.5686L93.3683 44.1166M98.5627 45.9649L98.2601 43.5129M103.467 45.3598L103.164 42.9077M108.976 49.6587L111.428 49.3561M109.581 54.5627L112.033 54.2601M110.186 59.4668L112.638 59.1642M105.887 64.976L106.19 67.428M100.996 65.5796L101.298 68.0317M96.0916 66.1848L96.3942 68.6368M86.9078 52.3819L89.3598 52.0793M87.5129 57.286L89.965 56.9834M88.1181 62.19L90.5701 61.8874M98.041 65.9443L103.926 65.2181C108.83 64.6129 110.549 62.4092 109.944 57.5051L109.218 51.6203C108.613 46.7162 106.409 44.9967 101.505 45.6018L95.6203 46.328C90.7162 46.9332 88.9967 49.1369 89.6019 54.041L90.3281 59.9258C90.9332 64.8299 93.1369 66.5494 98.041 65.9443ZM98.6905 62.1301L102.369 61.6762C105.434 61.2979 106.508 59.9206 106.13 56.8556L105.676 53.1776C105.298 50.1125 103.921 49.0378 100.856 49.416L97.1776 49.8699C94.1125 50.2482 93.0378 51.6255 93.4161 54.6905L93.8699 58.3685C94.2482 61.4336 95.6255 62.5083 98.6905 62.1301Z" stroke="#4AC6FF" stroke-width="9" stroke-linecap="round" stroke-linejoin="round"/>
<path d="M183.537 45.5529L189.458 46.5247C190.197 46.6486 190.932 47.3496 191.092 48.0862L191.74 51.115C191.889 51.799 192.294 51.8668 192.658 51.2687L195.876 45.917C196.186 45.401 196.593 45.4491 196.782 46.0181L197.482 48.1328C197.69 48.7659 198.4 49.3715 199.051 49.4806L203.055 50.1515M188.904 55.8818L194.821 56.8733C199.753 57.6995 202.056 56.0575 202.882 51.1263L203.873 45.2087C204.7 40.2775 203.058 37.9745 198.126 37.1482L192.209 36.1567C187.277 35.3305 184.974 36.9725 184.148 41.9038L183.157 47.8213C182.331 52.7525 183.973 55.0555 188.904 55.8818Z" stroke="#4AC6FF" stroke-width="9" stroke-linecap="round" stroke-linejoin="round"/>
<path d="M18.5547 72.3636L28.2882 70.0706C31.2083 69.3827 33.6136 70.8708 34.3015 73.7908L35.9066 80.6043C36.5945 83.5244 35.1064 85.9297 32.1863 86.6176L22.4528 88.9106C19.5327 89.5985 17.1274 88.1104 16.4395 85.1903L14.8344 78.3768C14.1465 75.4568 15.6346 73.0515 18.5547 72.3636ZM18.5547 72.3636L17.8668 69.4435M27.2307 76.4839L31.1241 75.5667M28.1479 80.3774L28.6345 80.2627M31.5546 79.5748L32.0413 79.4602M24.3972 79.7199C24.7138 81.0638 23.8809 82.4099 22.537 82.7265C21.1931 83.0431 19.847 82.2103 19.5304 80.8664C19.2138 79.5225 20.0466 78.1763 21.3905 77.8598C22.7344 77.5432 24.0806 78.376 24.3972 79.7199Z" stroke="#4AC6FF" stroke-width="9" stroke-linecap="round" stroke-linejoin="round"/>
</g>
<rect x="189" y="36" width="8" height="12" fill="#4AC6FF"/>
<rect x="18" y="78" width="8" height="12" fill="#4AC6FF"/>
<g filter="url(#filter4_d_2005_3)">
<path d="M152.715 125.989C151.976 126.522 151.402 127.228 151.023 128.053C150.812 128.526 150.899 129.062 151.249 129.443C151.87 130.106 152.638 130.594 153.508 130.866M160.287 124.758C161.157 125.03 161.925 125.518 162.546 126.181C162.895 126.562 162.983 127.098 162.772 127.571C162.393 128.396 161.819 129.102 161.08 129.635M143.471 121.246L166.905 117.425M154.499 136.962L161.815 135.773C167.911 134.783 169.953 131.948 168.963 125.851L167.773 118.535C166.783 112.439 163.948 110.396 157.851 111.387L150.535 112.576C144.439 113.567 142.396 116.402 143.387 122.499L144.576 129.815C145.567 135.911 148.402 137.953 154.499 136.962Z" stroke="#0180BA" stroke-width="1.5" stroke-linecap="round" stroke-linejoin="round"/>
<path d="M83.1523 118.146L81.3824 120.119C80.9872 120.553 81.1417 121.015 81.7097 121.135L83.2444 121.461C83.8244 121.584 83.9668 122.044 83.5717 122.478L81.8138 124.453M75.3049 134.299C78.2388 134.1 81.1632 134.721 83.7638 136.094M76.0786 129.462L76.3761 128.06C73.9531 125.791 72.3641 122.032 73.1026 118.551C74.3718 112.57 80.8649 109.048 86.789 111.719C89.3918 112.903 91.3998 115.223 92.1137 117.989C93.5623 123.6 89.7602 128.425 85.3571 129.953L85.0597 131.355C84.9853 131.706 84.9464 132.543 83.6534 132.269L76.9951 130.856C75.6633 130.586 75.9427 130.103 76.0786 129.462Z" stroke="#0180BA" stroke-width="1.5" stroke-linecap="round" stroke-linejoin="round"/>
<path d="M93.6709 46.5686L93.3683 44.1166M98.5627 45.9649L98.2601 43.5129M103.467 45.3598L103.164 42.9077M108.976 49.6587L111.428 49.3561M109.581 54.5627L112.033 54.2601M110.186 59.4668L112.638 59.1642M105.887 64.976L106.19 67.428M100.996 65.5796L101.298 68.0317M96.0916 66.1848L96.3942 68.6368M86.9078 52.3819L89.3598 52.0793M87.5129 57.286L89.965 56.9834M88.1181 62.19L90.5701 61.8874M98.041 65.9443L103.926 65.2181C108.83 64.6129 110.549 62.4092 109.944 57.5051L109.218 51.6203C108.613 46.7162 106.409 44.9967 101.505 45.6018L95.6203 46.328C90.7162 46.9332 88.9967 49.1369 89.6019 54.041L90.3281 59.9258C90.9332 64.8299 93.1369 66.5494 98.041 65.9443ZM98.6905 62.1301L102.369 61.6762C105.434 61.2979 106.508 59.9206 106.13 56.8556L105.676 53.1776C105.298 50.1125 103.921 49.0378 100.856 49.416L97.1776 49.8699C94.1125 50.2482 93.0378 51.6255 93.4161 54.6905L93.8699 58.3685C94.2482 61.4336 95.6255 62.5083 98.6905 62.1301Z" stroke="#0180BA" stroke-width="1.5" stroke-linecap="round" stroke-linejoin="round"/>
<path d="M183.537 46.5529L189.458 47.5247C190.197 47.6486 190.932 48.3496 191.092 49.0862L191.74 52.115C191.889 52.799 192.294 52.8668 192.658 52.2687L195.876 46.917C196.186 46.401 196.593 46.4491 196.782 47.0181L197.482 49.1328C197.69 49.7659 198.4 50.3715 199.051 50.4806L203.055 51.1515M188.904 56.8818L194.821 57.8733C199.753 58.6995 202.056 57.0575 202.882 52.1263L203.873 46.2087C204.7 41.2775 203.058 38.9745 198.126 38.1482L192.209 37.1567C187.277 36.3305 184.974 37.9725 184.148 42.9038L183.157 48.8213C182.331 53.7525 183.973 56.0555 188.904 56.8818Z" stroke="#0180BA" stroke-width="1.5" stroke-linecap="round" stroke-linejoin="round"/>
<path d="M18.5547 72.3596L28.2882 70.0666C31.2083 69.3787 33.6136 70.8668 34.3015 73.7869L35.9066 80.6003C36.5945 83.5204 35.1064 85.9257 32.1863 86.6136L22.4528 88.9066C19.5327 89.5945 17.1274 88.1064 16.4395 85.1864L14.8344 78.3729C14.1465 75.4528 15.6346 73.0475 18.5547 72.3596ZM18.5547 72.3596L17.8668 69.4395M27.2307 76.48L31.1241 75.5628M28.1479 80.3734L28.6345 80.2587M31.5546 79.5708L32.0413 79.4562M24.3972 79.7159C24.7138 81.0598 23.8809 82.4059 22.537 82.7225C21.1931 83.0391 19.847 82.2063 19.5304 80.8624C19.2138 79.5185 20.0466 78.1724 21.3905 77.8558C22.7344 77.5392 24.0806 78.372 24.3972 79.7159Z" stroke="#0180BA" stroke-width="1.5" stroke-linecap="round" stroke-linejoin="round"/>
</g>
<defs>
<filter id="filter0_d_2005_3" x="34.0116" y="39.1133" width="157.227" height="82.6666" filterUnits="userSpaceOnUse" color-interpolation-filters="sRGB">
<feFlood flood-opacity="0" result="BackgroundImageFix"/>
<feColorMatrix in="SourceAlpha" type="matrix" values="0 0 0 0 0 0 0 0 0 0 0 0 0 0 0 0 0 0 127 0" result="hardAlpha"/>
<feOffset dy="4"/>
<feGaussianBlur stdDeviation="2"/>
<feComposite in2="hardAlpha" operator="out"/>
<feColorMatrix type="matrix" values="0 0 0 0 0 0 0 0 0 0 0 0 0 0 0 0 0 0 0.15 0"/>
<feBlend mode="normal" in2="BackgroundImageFix" result="effect1_dropShadow_2005_3"/>
<feBlend mode="normal" in="SourceGraphic" in2="effect1_dropShadow_2005_3" result="shape"/>
</filter>
<filter id="filter1_d_2005_3" x="0.168922" y="23.4537" width="218.407" height="130.247" filterUnits="userSpaceOnUse" color-interpolation-filters="sRGB">
<feFlood flood-opacity="0" result="BackgroundImageFix"/>
<feColorMatrix in="SourceAlpha" type="matrix" values="0 0 0 0 0 0 0 0 0 0 0 0 0 0 0 0 0 0 127 0" result="hardAlpha"/>
<feOffset dy="2"/>
<feGaussianBlur stdDeviation="5"/>
<feComposite in2="hardAlpha" operator="out"/>
<feColorMatrix type="matrix" values="0 0 0 0 0 0 0 0 0 0 0 0 0 0 0 0 0 0 0.1 0"/>
<feBlend mode="normal" in2="BackgroundImageFix" result="effect1_dropShadow_2005_3"/>
<feBlend mode="normal" in="SourceGraphic" in2="effect1_dropShadow_2005_3" result="shape"/>
</filter>
<filter id="filter2_d_2005_3" x="134.649" y="100.649" width="43.0509" height="43.0509" filterUnits="userSpaceOnUse" color-interpolation-filters="sRGB">
<feFlood flood-opacity="0" result="BackgroundImageFix"/>
<feColorMatrix in="SourceAlpha" type="matrix" values="0 0 0 0 0 0 0 0 0 0 0 0 0 0 0 0 0 0 127 0" result="hardAlpha"/>
<feOffset dy="-2"/>
<feGaussianBlur stdDeviation="2"/>
<feComposite in2="hardAlpha" operator="out"/>
<feColorMatrix type="matrix" values="0 0 0 0 0 0 0 0 0 0 0 0 0 0 0 0 0 0 0.1 0"/>
<feBlend mode="normal" in2="BackgroundImageFix" result="effect1_dropShadow_2005_3"/>
<feBlend mode="normal" in="SourceGraphic" in2="effect1_dropShadow_2005_3" result="shape"/>
</filter>
<filter id="filter3_d_2005_3" x="64.4178" y="100.308" width="36.5212" height="42.2861" filterUnits="userSpaceOnUse" color-interpolation-filters="sRGB">
<feFlood flood-opacity="0" result="BackgroundImageFix"/>
<feColorMatrix in="SourceAlpha" type="matrix" values="0 0 0 0 0 0 0 0 0 0 0 0 0 0 0 0 0 0 127 0" result="hardAlpha"/>
<feOffset dy="-2"/>
<feGaussianBlur stdDeviation="2"/>
<feComposite in2="hardAlpha" operator="out"/>
<feColorMatrix type="matrix" values="0 0 0 0 0 0 0 0 0 0 0 0 0 0 0 0 0 0 0.1 0"/>
<feBlend mode="normal" in2="BackgroundImageFix" result="effect1_dropShadow_2005_3"/>
<feBlend mode="normal" in="SourceGraphic" in2="effect1_dropShadow_2005_3" result="shape"/>
</filter>
<filter id="filter4_d_2005_3" x="9.91836" y="36.2031" width="198.909" height="109.748" filterUnits="userSpaceOnUse" color-interpolation-filters="sRGB">
<feFlood flood-opacity="0" result="BackgroundImageFix"/>
<feColorMatrix in="SourceAlpha" type="matrix" values="0 0 0 0 0 0 0 0 0 0 0 0 0 0 0 0 0 0 127 0" result="hardAlpha"/>
<feOffset dy="4"/>
<feGaussianBlur stdDeviation="2"/>
<feComposite in2="hardAlpha" operator="out"/>
<feColorMatrix type="matrix" values="0 0 0 0 0 0 0 0 0 0 0 0 0 0 0 0 0 0 0.15 0"/>
<feBlend mode="normal" in2="BackgroundImageFix" result="effect1_dropShadow_2005_3"/>
<feBlend mode="normal" in="SourceGraphic" in2="effect1_dropShadow_2005_3" result="shape"/>
</filter>
</defs>
</svg>
