<svg xmlns="http://www.w3.org/2000/svg" xmlns:xlink="http://www.w3.org/1999/xlink" width="258" zoomAndPan="magnify" viewBox="0 0 193.5 44.999999" height="60" preserveAspectRatio="xMidYMid meet" version="1.0"><defs><g/><clipPath id="845417a6ba"><path d="M 0 0.0585938 L 191.28125 0.0585938 L 191.28125 44.941406 L 0 44.941406 Z M 0 0.0585938 " clip-rule="nonzero"/></clipPath><clipPath id="b280c90589"><path d="M 7.480469 0.0585938 L 183.796875 0.0585938 C 185.78125 0.0585938 187.683594 0.847656 189.089844 2.25 C 190.492188 3.652344 191.277344 5.554688 191.277344 7.539062 L 191.277344 37.460938 C 191.277344 39.445312 190.492188 41.347656 189.089844 42.75 C 187.683594 44.152344 185.78125 44.941406 183.796875 44.941406 L 7.480469 44.941406 C 5.496094 44.941406 3.59375 44.152344 2.191406 42.75 C 0.789062 41.347656 0 39.445312 0 37.460938 L 0 7.539062 C 0 5.554688 0.789062 3.652344 2.191406 2.25 C 3.59375 0.847656 5.496094 0.0585938 7.480469 0.0585938 Z M 7.480469 0.0585938 " clip-rule="nonzero"/></clipPath><clipPath id="b5d6fdd603"><path d="M 113.574219 0.0585938 L 193 0.0585938 L 193 44.941406 L 113.574219 44.941406 Z M 113.574219 0.0585938 " clip-rule="nonzero"/></clipPath><clipPath id="1214f8f86a"><path d="M 121.054688 0.0585938 L 185.519531 0.0585938 C 187.503906 0.0585938 189.40625 0.847656 190.808594 2.25 C 192.214844 3.652344 193 5.554688 193 7.539062 L 193 37.460938 C 193 39.445312 192.214844 41.347656 190.808594 42.75 C 189.40625 44.152344 187.503906 44.941406 185.519531 44.941406 L 121.054688 44.941406 C 119.070312 44.941406 117.167969 44.152344 115.765625 42.75 C 114.359375 41.347656 113.574219 39.445312 113.574219 37.460938 L 113.574219 7.539062 C 113.574219 5.554688 114.359375 3.652344 115.765625 2.25 C 117.167969 0.847656 119.070312 0.0585938 121.054688 0.0585938 Z M 121.054688 0.0585938 " clip-rule="nonzero"/></clipPath><clipPath id="9b49d1c64b"><path d="M 110.265625 0.0585938 L 151.109375 0.0585938 L 151.109375 44.941406 L 110.265625 44.941406 Z M 110.265625 0.0585938 " clip-rule="nonzero"/></clipPath></defs><g clip-path="url(#845417a6ba)"><g clip-path="url(#b280c90589)"><path fill="#0275bf" d="M 0 0.0585938 L 191.28125 0.0585938 L 191.28125 44.941406 L 0 44.941406 Z M 0 0.0585938 " fill-opacity="1" fill-rule="nonzero"/></g></g><g clip-path="url(#b5d6fdd603)"><g clip-path="url(#1214f8f86a)"><path fill="#ec2125" d="M 113.574219 0.0585938 L 192.996094 0.0585938 L 192.996094 44.941406 L 113.574219 44.941406 Z M 113.574219 0.0585938 " fill-opacity="1" fill-rule="nonzero"/></g></g><g clip-path="url(#9b49d1c64b)"><path fill="#ec2125" d="M 110.265625 0.0585938 L 151.109375 0.0585938 L 151.109375 44.890625 L 110.265625 44.890625 Z M 110.265625 0.0585938 " fill-opacity="1" fill-rule="nonzero"/></g><g fill="#ffffff" fill-opacity="1"><g transform="translate(4.067614, 29.606635)"><g><path d="M 1.84375 0.03125 L 1.84375 -2.71875 C 3.320312 -2.3125 4.625 -2.109375 5.75 -2.109375 C 6.726562 -2.109375 7.519531 -2.367188 8.125 -2.890625 C 8.675781 -3.367188 8.953125 -4.316406 8.953125 -5.734375 L 8.953125 -12.828125 L 3.125 -12.828125 L 3.125 -15.15625 L 12.453125 -15.15625 L 12.453125 -5.796875 C 12.453125 -4.316406 12.335938 -3.25 12.109375 -2.59375 C 11.890625 -1.945312 11.4375 -1.363281 10.75 -0.84375 C 9.675781 -0.0390625 8.078125 0.359375 5.953125 0.359375 C 4.546875 0.359375 3.175781 0.25 1.84375 0.03125 Z M 1.84375 0.03125 "/></g></g></g><g fill="#ffffff" fill-opacity="1"><g transform="translate(18.653265, 29.606635)"><g><path d="M 9.109375 -1.34375 C 8.234375 -0.675781 7.550781 -0.234375 7.0625 -0.015625 C 6.570312 0.191406 5.992188 0.296875 5.328125 0.296875 C 4.054688 0.296875 3.019531 -0.078125 2.21875 -0.828125 C 1.414062 -1.578125 1.015625 -2.539062 1.015625 -3.71875 C 1.015625 -6.6875 3.253906 -8.171875 7.734375 -8.171875 L 9.109375 -8.171875 L 9.109375 -8.796875 C 9.109375 -10.128906 8.179688 -10.796875 6.328125 -10.796875 C 5.066406 -10.796875 3.660156 -10.425781 2.109375 -9.6875 L 2.109375 -12.25 C 3.710938 -12.832031 5.34375 -13.125 7 -13.125 C 8.8125 -13.125 10.1875 -12.769531 11.125 -12.0625 C 11.707031 -11.632812 12.097656 -11.140625 12.296875 -10.578125 C 12.503906 -10.015625 12.609375 -9.164062 12.609375 -8.03125 L 12.609375 -3.6875 C 12.609375 -2.800781 12.875 -2.359375 13.40625 -2.359375 C 13.507812 -2.359375 13.644531 -2.375 13.8125 -2.40625 L 13.8125 -0.078125 C 13.09375 0.171875 12.453125 0.296875 11.890625 0.296875 C 10.585938 0.296875 9.660156 -0.25 9.109375 -1.34375 Z M 9.109375 -3.734375 L 9.109375 -5.828125 L 7.84375 -5.828125 C 5.59375 -5.828125 4.46875 -5.1875 4.46875 -3.90625 C 4.46875 -3.445312 4.640625 -3.066406 4.984375 -2.765625 C 5.328125 -2.460938 5.75 -2.3125 6.25 -2.3125 C 7.144531 -2.3125 8.097656 -2.785156 9.109375 -3.734375 Z M 9.109375 -3.734375 "/></g></g></g><g fill="#ffffff" fill-opacity="1"><g transform="translate(33.238915, 29.606635)"><g><path d="M 5.640625 0 L 0.609375 -12.828125 L 4.34375 -12.828125 L 7.84375 -3.890625 L 7.875 -3.890625 L 11.4375 -12.828125 L 14.25 -12.828125 L 9.140625 0 Z M 5.640625 0 "/></g></g></g><g fill="#ffffff" fill-opacity="1"><g transform="translate(47.824566, 29.606635)"><g><path d="M 9.109375 -1.34375 C 8.234375 -0.675781 7.550781 -0.234375 7.0625 -0.015625 C 6.570312 0.191406 5.992188 0.296875 5.328125 0.296875 C 4.054688 0.296875 3.019531 -0.078125 2.21875 -0.828125 C 1.414062 -1.578125 1.015625 -2.539062 1.015625 -3.71875 C 1.015625 -6.6875 3.253906 -8.171875 7.734375 -8.171875 L 9.109375 -8.171875 L 9.109375 -8.796875 C 9.109375 -10.128906 8.179688 -10.796875 6.328125 -10.796875 C 5.066406 -10.796875 3.660156 -10.425781 2.109375 -9.6875 L 2.109375 -12.25 C 3.710938 -12.832031 5.34375 -13.125 7 -13.125 C 8.8125 -13.125 10.1875 -12.769531 11.125 -12.0625 C 11.707031 -11.632812 12.097656 -11.140625 12.296875 -10.578125 C 12.503906 -10.015625 12.609375 -9.164062 12.609375 -8.03125 L 12.609375 -3.6875 C 12.609375 -2.800781 12.875 -2.359375 13.40625 -2.359375 C 13.507812 -2.359375 13.644531 -2.375 13.8125 -2.40625 L 13.8125 -0.078125 C 13.09375 0.171875 12.453125 0.296875 11.890625 0.296875 C 10.585938 0.296875 9.660156 -0.25 9.109375 -1.34375 Z M 9.109375 -3.734375 L 9.109375 -5.828125 L 7.84375 -5.828125 C 5.59375 -5.828125 4.46875 -5.1875 4.46875 -3.90625 C 4.46875 -3.445312 4.640625 -3.066406 4.984375 -2.765625 C 5.328125 -2.460938 5.75 -2.3125 6.25 -2.3125 C 7.144531 -2.3125 8.097656 -2.785156 9.109375 -3.734375 Z M 9.109375 -3.734375 "/></g></g></g><g fill="#ffffff" fill-opacity="1"><g transform="translate(62.410217, 29.606635)"><g><path d="M 1.015625 0 L 1.015625 -15.15625 L 6.21875 -15.15625 C 8.644531 -15.15625 10.515625 -14.5 11.828125 -13.1875 C 13.148438 -11.882812 13.8125 -10.019531 13.8125 -7.59375 C 13.8125 -5.1875 13.144531 -3.316406 11.8125 -1.984375 C 10.488281 -0.660156 8.625 0 6.21875 0 Z M 4.515625 -2.328125 L 5.59375 -2.328125 C 7.101562 -2.328125 8.210938 -2.734375 8.921875 -3.546875 C 9.640625 -4.367188 10 -5.710938 10 -7.578125 C 10 -9.484375 9.648438 -10.832031 8.953125 -11.625 C 8.253906 -12.425781 7.132812 -12.828125 5.59375 -12.828125 L 4.515625 -12.828125 Z M 4.515625 -2.328125 "/></g></g></g><g fill="#ffffff" fill-opacity="1"><g transform="translate(76.995867, 29.606635)"><g><path d="M 7.296875 0.296875 C 5.265625 0.296875 3.648438 -0.316406 2.453125 -1.546875 C 1.253906 -2.773438 0.65625 -4.398438 0.65625 -6.421875 C 0.65625 -8.453125 1.253906 -10.078125 2.453125 -11.296875 C 3.660156 -12.515625 5.273438 -13.125 7.296875 -13.125 C 9.296875 -13.125 10.898438 -12.515625 12.109375 -11.296875 C 13.316406 -10.078125 13.921875 -8.453125 13.921875 -6.421875 C 13.921875 -4.398438 13.316406 -2.773438 12.109375 -1.546875 C 10.898438 -0.316406 9.296875 0.296875 7.296875 0.296875 Z M 7.296875 -2.046875 C 9.234375 -2.046875 10.203125 -3.503906 10.203125 -6.421875 C 10.203125 -9.335938 9.234375 -10.796875 7.296875 -10.796875 C 5.347656 -10.796875 4.375 -9.335938 4.375 -6.421875 C 4.375 -3.503906 5.347656 -2.046875 7.296875 -2.046875 Z M 7.296875 -2.046875 "/></g></g></g><g fill="#ffffff" fill-opacity="1"><g transform="translate(91.581518, 29.606635)"><g><path d="M 13.21875 -0.21875 C 11.820312 0.125 10.394531 0.296875 8.9375 0.296875 C 6.582031 0.296875 4.738281 -0.296875 3.40625 -1.484375 C 2.082031 -2.671875 1.421875 -4.300781 1.421875 -6.375 C 1.421875 -8.5 2.0625 -10.15625 3.34375 -11.34375 C 4.632812 -12.53125 6.421875 -13.125 8.703125 -13.125 C 10.398438 -13.125 11.90625 -12.945312 13.21875 -12.59375 L 13.21875 -10.015625 C 11.820312 -10.535156 10.472656 -10.796875 9.171875 -10.796875 C 7.953125 -10.796875 6.984375 -10.429688 6.265625 -9.703125 C 5.554688 -8.984375 5.203125 -8.015625 5.203125 -6.796875 C 5.203125 -5.390625 5.628906 -4.269531 6.484375 -3.4375 C 7.347656 -2.601562 8.5 -2.1875 9.9375 -2.1875 C 11.019531 -2.1875 12.113281 -2.382812 13.21875 -2.78125 Z M 13.21875 -0.21875 "/></g></g></g><g fill="#ffffff" fill-opacity="1"><g transform="translate(115.163289, 29.606635)"><g><path d="M 1.40625 0 L 1.40625 -18.65625 L 4.90625 -18.65625 L 4.90625 -10.40625 C 6 -12.21875 7.332031 -13.125 8.90625 -13.125 C 10.382812 -13.125 11.566406 -12.539062 12.453125 -11.375 C 13.347656 -10.207031 13.796875 -8.648438 13.796875 -6.703125 C 13.796875 -4.578125 13.300781 -2.878906 12.3125 -1.609375 C 11.320312 -0.335938 10 0.296875 8.34375 0.296875 C 6.96875 0.296875 5.820312 -0.210938 4.90625 -1.234375 L 4.46875 0 Z M 4.90625 -3.640625 C 5.644531 -2.835938 6.484375 -2.4375 7.421875 -2.4375 C 9.128906 -2.4375 9.984375 -3.835938 9.984375 -6.640625 C 9.984375 -8.796875 9.238281 -9.875 7.75 -9.875 C 6.75 -9.875 5.800781 -9.1875 4.90625 -7.8125 Z M 4.90625 -3.640625 "/></g></g></g><g fill="#ffffff" fill-opacity="1"><g transform="translate(129.74894, 29.606635)"><g><path d="M 9.40625 0 L 9.40625 -2.484375 C 8.6875 -0.628906 7.332031 0.296875 5.34375 0.296875 C 2.800781 0.296875 1.53125 -1.15625 1.53125 -4.0625 L 1.53125 -12.828125 L 5.03125 -12.828125 L 5.03125 -4.703125 C 5.03125 -3.316406 5.523438 -2.625 6.515625 -2.625 C 7.597656 -2.625 8.5625 -3.316406 9.40625 -4.703125 L 9.40625 -12.828125 L 12.90625 -12.828125 L 12.90625 0 Z M 9.40625 0 "/></g></g></g><g fill="#ffffff" fill-opacity="1"><g transform="translate(144.334591, 29.606635)"><g><path d="M 7 0 L 7 -10.5 L 2.328125 -10.5 L 2.328125 -12.828125 L 10.5 -12.828125 L 10.5 0 Z M 7 -15.15625 L 7 -18.65625 L 10.5 -18.65625 L 10.5 -15.15625 Z M 7 -15.15625 "/></g></g></g><g fill="#ffffff" fill-opacity="1"><g transform="translate(158.920241, 29.606635)"><g><path d="M 5.84375 0 L 5.84375 -16.328125 L 1.171875 -16.328125 L 1.171875 -18.65625 L 9.34375 -18.65625 L 9.34375 0 Z M 5.84375 0 "/></g></g></g><g fill="#ffffff" fill-opacity="1"><g transform="translate(173.505892, 29.606635)"><g><path d="M 13.015625 -0.3125 C 11.617188 0.09375 10.390625 0.296875 9.328125 0.296875 C 6.097656 0.296875 4.484375 -1.132812 4.484375 -4 L 4.484375 -10.203125 L 1.71875 -10.203125 L 1.71875 -12.53125 L 4.484375 -12.53125 L 4.484375 -16.328125 L 7.984375 -16.328125 L 7.984375 -12.53125 L 12.734375 -12.53125 L 12.734375 -10.203125 L 7.984375 -10.203125 L 7.984375 -4.78125 C 7.984375 -3.875 8.148438 -3.234375 8.484375 -2.859375 C 8.828125 -2.492188 9.410156 -2.3125 10.234375 -2.3125 C 11.160156 -2.3125 12.085938 -2.503906 13.015625 -2.890625 Z M 13.015625 -0.3125 "/></g></g></g></svg>