<svg xmlns="http://www.w3.org/2000/svg" xmlns:xlink="http://www.w3.org/1999/xlink" width="500" zoomAndPan="magnify" viewBox="0 0 375 374.999991" height="500" preserveAspectRatio="xMidYMid meet" version="1.0"><defs><g/><clipPath id="fa6e8470c8"><path d="M 34.773438 158.089844 L 337.601562 158.089844 L 337.601562 216.910156 L 34.773438 216.910156 Z M 34.773438 158.089844 " clip-rule="nonzero"/></clipPath><clipPath id="a85fe98e2f"><path d="M 46.023438 158.089844 L 326.25 158.089844 C 329.234375 158.089844 332.09375 159.277344 334.203125 161.386719 C 336.316406 163.496094 337.5 166.355469 337.5 169.339844 L 337.5 205.660156 C 337.5 208.644531 336.316406 211.503906 334.203125 213.613281 C 332.09375 215.722656 329.234375 216.910156 326.25 216.910156 L 46.023438 216.910156 C 39.8125 216.910156 34.773438 211.871094 34.773438 205.660156 L 34.773438 169.339844 C 34.773438 163.128906 39.8125 158.089844 46.023438 158.089844 Z M 46.023438 158.089844 " clip-rule="nonzero"/></clipPath><clipPath id="6995937fdc"><path d="M 194.386719 158.089844 L 340.285156 158.089844 L 340.285156 216.910156 L 194.386719 216.910156 Z M 194.386719 158.089844 " clip-rule="nonzero"/></clipPath><clipPath id="dc30ff9c32"><path d="M 205.636719 158.089844 L 328.976562 158.089844 C 331.960938 158.089844 334.820312 159.277344 336.929688 161.386719 C 339.039062 163.496094 340.226562 166.355469 340.226562 169.339844 L 340.226562 205.660156 C 340.226562 208.644531 339.039062 211.503906 336.929688 213.613281 C 334.820312 215.722656 331.960938 216.910156 328.976562 216.910156 L 205.636719 216.910156 C 199.425781 216.910156 194.386719 211.871094 194.386719 205.660156 L 194.386719 169.339844 C 194.386719 163.128906 199.425781 158.089844 205.636719 158.089844 Z M 205.636719 158.089844 " clip-rule="nonzero"/></clipPath><clipPath id="33888ce0ff"><path d="M 194.386719 158.089844 L 262.5 158.089844 L 262.5 216.910156 L 194.386719 216.910156 Z M 194.386719 158.089844 " clip-rule="nonzero"/></clipPath></defs><g clip-path="url(#fa6e8470c8)"><g clip-path="url(#a85fe98e2f)"><path fill="#0275bf" d="M 34.773438 158.089844 L 337.601562 158.089844 L 337.601562 216.910156 L 34.773438 216.910156 Z M 34.773438 158.089844 " fill-opacity="1" fill-rule="nonzero"/></g></g><g clip-path="url(#6995937fdc)"><g clip-path="url(#dc30ff9c32)"><path fill="#ec2125" d="M 194.386719 158.089844 L 340.285156 158.089844 L 340.285156 216.910156 L 194.386719 216.910156 Z M 194.386719 158.089844 " fill-opacity="1" fill-rule="nonzero"/></g></g><g clip-path="url(#33888ce0ff)"><path fill="#ec2125" d="M 194.386719 158.089844 L 262.398438 158.089844 L 262.398438 216.910156 L 194.386719 216.910156 Z M 194.386719 158.089844 " fill-opacity="1" fill-rule="nonzero"/></g><g fill="#ffffff" fill-opacity="1"><g transform="translate(47.102561, 197.624987)"><g><path d="M 3.078125 -0.265625 L 3.078125 -2.875 L 4.109375 -2.53125 C 5.535156 -2.0625 6.675781 -1.828125 7.53125 -1.828125 C 8.988281 -1.828125 10.007812 -2.207031 10.59375 -2.96875 C 11.175781 -3.738281 11.46875 -5.082031 11.46875 -7 L 11.46875 -17.734375 L 4.53125 -17.734375 L 4.53125 -20.046875 L 14.546875 -20.046875 L 14.546875 -8.640625 C 14.546875 -6.609375 14.425781 -5.097656 14.1875 -4.109375 C 13.945312 -3.117188 13.488281 -2.25 12.8125 -1.5 C 11.625 -0.175781 9.929688 0.484375 7.734375 0.484375 C 6.523438 0.484375 4.972656 0.234375 3.078125 -0.265625 Z M 3.078125 -0.265625 "/></g></g></g><g fill="#ffffff" fill-opacity="1"><g transform="translate(66.379103, 197.624987)"><g><path d="M 13.046875 -2.046875 C 11.179688 -0.484375 9.320312 0.296875 7.46875 0.296875 C 5.914062 0.296875 4.632812 -0.144531 3.625 -1.03125 C 2.625 -1.914062 2.125 -3.035156 2.125 -4.390625 C 2.125 -6.148438 2.90625 -7.566406 4.46875 -8.640625 C 6.03125 -9.710938 8.09375 -10.25 10.65625 -10.25 L 12.5625 -10.25 L 12.5625 -11.703125 C 12.5625 -12.890625 12.296875 -13.738281 11.765625 -14.25 C 11.234375 -14.769531 10.359375 -15.03125 9.140625 -15.03125 C 7.347656 -15.03125 5.5 -14.53125 3.59375 -13.53125 L 3.59375 -16.171875 C 5.78125 -16.953125 7.847656 -17.34375 9.796875 -17.34375 C 11.929688 -17.34375 13.441406 -16.910156 14.328125 -16.046875 C 15.210938 -15.191406 15.65625 -13.722656 15.65625 -11.640625 L 15.65625 -4.53125 C 15.65625 -3.507812 15.765625 -2.8125 15.984375 -2.4375 C 16.203125 -2.070312 16.609375 -1.890625 17.203125 -1.890625 C 17.410156 -1.890625 17.738281 -1.941406 18.1875 -2.046875 L 18.46875 -0.203125 C 17.4375 0.128906 16.648438 0.296875 16.109375 0.296875 C 14.597656 0.296875 13.578125 -0.484375 13.046875 -2.046875 Z M 12.5625 -4.046875 L 12.5625 -8.328125 L 11.640625 -8.328125 C 7.421875 -8.328125 5.3125 -7.1875 5.3125 -4.90625 C 5.3125 -4.082031 5.582031 -3.421875 6.125 -2.921875 C 6.664062 -2.421875 7.382812 -2.171875 8.28125 -2.171875 C 9.625 -2.171875 11.050781 -2.796875 12.5625 -4.046875 Z M 12.5625 -4.046875 "/></g></g></g><g fill="#ffffff" fill-opacity="1"><g transform="translate(85.655644, 197.624987)"><g><path d="M 8 0 L 0.96875 -16.96875 L 4.3125 -16.96875 L 9.8125 -3.71875 L 9.84375 -3.71875 L 15.5 -16.96875 L 18.3125 -16.96875 L 11.09375 0 Z M 8 0 "/></g></g></g><g fill="#ffffff" fill-opacity="1"><g transform="translate(104.932186, 197.624987)"><g><path d="M 13.046875 -2.046875 C 11.179688 -0.484375 9.320312 0.296875 7.46875 0.296875 C 5.914062 0.296875 4.632812 -0.144531 3.625 -1.03125 C 2.625 -1.914062 2.125 -3.035156 2.125 -4.390625 C 2.125 -6.148438 2.90625 -7.566406 4.46875 -8.640625 C 6.03125 -9.710938 8.09375 -10.25 10.65625 -10.25 L 12.5625 -10.25 L 12.5625 -11.703125 C 12.5625 -12.890625 12.296875 -13.738281 11.765625 -14.25 C 11.234375 -14.769531 10.359375 -15.03125 9.140625 -15.03125 C 7.347656 -15.03125 5.5 -14.53125 3.59375 -13.53125 L 3.59375 -16.171875 C 5.78125 -16.953125 7.847656 -17.34375 9.796875 -17.34375 C 11.929688 -17.34375 13.441406 -16.910156 14.328125 -16.046875 C 15.210938 -15.191406 15.65625 -13.722656 15.65625 -11.640625 L 15.65625 -4.53125 C 15.65625 -3.507812 15.765625 -2.8125 15.984375 -2.4375 C 16.203125 -2.070312 16.609375 -1.890625 17.203125 -1.890625 C 17.410156 -1.890625 17.738281 -1.941406 18.1875 -2.046875 L 18.46875 -0.203125 C 17.4375 0.128906 16.648438 0.296875 16.109375 0.296875 C 14.597656 0.296875 13.578125 -0.484375 13.046875 -2.046875 Z M 12.5625 -4.046875 L 12.5625 -8.328125 L 11.640625 -8.328125 C 7.421875 -8.328125 5.3125 -7.1875 5.3125 -4.90625 C 5.3125 -4.082031 5.582031 -3.421875 6.125 -2.921875 C 6.664062 -2.421875 7.382812 -2.171875 8.28125 -2.171875 C 9.625 -2.171875 11.050781 -2.796875 12.5625 -4.046875 Z M 12.5625 -4.046875 "/></g></g></g><g fill="#ffffff" fill-opacity="1"><g transform="translate(124.208727, 197.624987)"><g><path d="M 2.03125 0 L 2.03125 -20.046875 L 8.078125 -20.046875 C 14.742188 -20.046875 18.078125 -16.835938 18.078125 -10.421875 C 18.078125 -7.453125 17.351562 -5.050781 15.90625 -3.21875 C 15 -2.0625 13.878906 -1.234375 12.546875 -0.734375 C 11.222656 -0.242188 9.457031 0 7.25 0 Z M 5.109375 -2.3125 L 6.65625 -2.3125 C 9.59375 -2.3125 11.679688 -2.894531 12.921875 -4.0625 C 14.171875 -5.226562 14.796875 -7.1875 14.796875 -9.9375 C 14.796875 -12.726562 14.226562 -14.722656 13.09375 -15.921875 C 11.96875 -17.128906 10.097656 -17.734375 7.484375 -17.734375 L 5.109375 -17.734375 Z M 5.109375 -2.3125 "/></g></g></g><g fill="#ffffff" fill-opacity="1"><g transform="translate(143.485269, 197.624987)"><g><path d="M 9.515625 0.390625 C 7.097656 0.390625 5.179688 -0.40625 3.765625 -2 C 2.347656 -3.59375 1.640625 -5.753906 1.640625 -8.484375 C 1.640625 -11.234375 2.351562 -13.394531 3.78125 -14.96875 C 5.207031 -16.550781 7.160156 -17.34375 9.640625 -17.34375 C 12.117188 -17.34375 14.070312 -16.554688 15.5 -14.984375 C 16.925781 -13.410156 17.640625 -11.253906 17.640625 -8.515625 C 17.640625 -5.710938 16.921875 -3.523438 15.484375 -1.953125 C 14.054688 -0.390625 12.066406 0.390625 9.515625 0.390625 Z M 9.578125 -1.921875 C 11.097656 -1.921875 12.273438 -2.492188 13.109375 -3.640625 C 13.941406 -4.796875 14.359375 -6.421875 14.359375 -8.515625 C 14.359375 -10.546875 13.941406 -12.140625 13.109375 -13.296875 C 12.273438 -14.453125 11.117188 -15.03125 9.640625 -15.03125 C 8.160156 -15.03125 7.003906 -14.453125 6.171875 -13.296875 C 5.335938 -12.140625 4.921875 -10.535156 4.921875 -8.484375 C 4.921875 -6.441406 5.332031 -4.835938 6.15625 -3.671875 C 6.988281 -2.503906 8.128906 -1.921875 9.578125 -1.921875 Z M 9.578125 -1.921875 "/></g></g></g><g fill="#ffffff" fill-opacity="1"><g transform="translate(162.76181, 197.624987)"><g><path d="M 17.265625 -0.546875 C 15.441406 0.078125 13.613281 0.390625 11.78125 0.390625 C 8.84375 0.390625 6.570312 -0.378906 4.96875 -1.921875 C 3.375 -3.460938 2.578125 -5.648438 2.578125 -8.484375 C 2.578125 -11.265625 3.363281 -13.4375 4.9375 -15 C 6.519531 -16.5625 8.710938 -17.34375 11.515625 -17.34375 C 13.316406 -17.34375 15.128906 -17.070312 16.953125 -16.53125 L 16.953125 -13.953125 C 14.941406 -14.671875 13.238281 -15.03125 11.84375 -15.03125 C 9.976562 -15.03125 8.515625 -14.445312 7.453125 -13.28125 C 6.390625 -12.125 5.859375 -10.523438 5.859375 -8.484375 C 5.859375 -6.441406 6.421875 -4.835938 7.546875 -3.671875 C 8.671875 -2.503906 10.21875 -1.921875 12.1875 -1.921875 C 13.707031 -1.921875 15.398438 -2.269531 17.265625 -2.96875 Z M 17.265625 -0.546875 "/></g></g></g><g fill="#ffffff" fill-opacity="1"><g transform="translate(217.742672, 197.624987)"><g><path d="M 2.703125 0 L 2.703125 -24.671875 L 5.78125 -24.671875 L 5.78125 -13.78125 C 7.269531 -16.15625 9.117188 -17.34375 11.328125 -17.34375 C 13.242188 -17.34375 14.757812 -16.597656 15.875 -15.109375 C 16.988281 -13.628906 17.546875 -11.609375 17.546875 -9.046875 C 17.546875 -6.234375 16.890625 -3.957031 15.578125 -2.21875 C 14.265625 -0.476562 12.546875 0.390625 10.421875 0.390625 C 8.597656 0.390625 7.050781 -0.378906 5.78125 -1.921875 L 5.40625 0 Z M 5.78125 -4.234375 C 7.207031 -2.691406 8.613281 -1.921875 10 -1.921875 C 11.351562 -1.921875 12.398438 -2.515625 13.140625 -3.703125 C 13.890625 -4.898438 14.265625 -6.570312 14.265625 -8.71875 C 14.265625 -12.71875 13.082031 -14.71875 10.71875 -14.71875 C 8.957031 -14.71875 7.3125 -13.632812 5.78125 -11.46875 Z M 5.78125 -4.234375 "/></g></g></g><g fill="#ffffff" fill-opacity="1"><g transform="translate(237.019213, 197.624987)"><g><path d="M 13.359375 0 L 13.359375 -3.46875 C 12.441406 -2.039062 11.554688 -1.039062 10.703125 -0.46875 C 9.847656 0.101562 8.800781 0.390625 7.5625 0.390625 C 4.351562 0.390625 2.75 -1.523438 2.75 -5.359375 L 2.75 -16.96875 L 5.828125 -16.96875 L 5.828125 -5.96875 C 5.828125 -4.644531 6.03125 -3.703125 6.4375 -3.140625 C 6.851562 -2.585938 7.546875 -2.3125 8.515625 -2.3125 C 10.335938 -2.3125 11.953125 -3.53125 13.359375 -5.96875 L 13.359375 -16.96875 L 16.4375 -16.96875 L 16.4375 0 Z M 13.359375 0 "/></g></g></g><g fill="#ffffff" fill-opacity="1"><g transform="translate(256.295755, 197.624987)"><g><path d="M 8.875 0 L 8.875 -14.65625 L 2.703125 -14.65625 L 2.703125 -16.96875 L 11.953125 -16.96875 L 11.953125 0 Z M 8.484375 -20.8125 L 8.484375 -24.671875 L 12.34375 -24.671875 L 12.34375 -20.8125 Z M 8.484375 -20.8125 "/></g></g></g><g fill="#ffffff" fill-opacity="1"><g transform="translate(275.572296, 197.624987)"><g><path d="M 9.25 0 L 9.25 -22.359375 L 2.703125 -22.359375 L 2.703125 -24.671875 L 12.34375 -24.671875 L 12.34375 0 Z M 9.25 0 "/></g></g></g><g fill="#ffffff" fill-opacity="1"><g transform="translate(294.848838, 197.624987)"><g><path d="M 17.21875 -0.015625 C 15.675781 0.253906 14.191406 0.390625 12.765625 0.390625 C 10.242188 0.390625 8.53125 -0.0546875 7.625 -0.953125 C 6.71875 -1.859375 6.265625 -3.566406 6.265625 -6.078125 L 6.265625 -14.265625 L 2.03125 -14.265625 L 2.03125 -16.578125 L 6.265625 -16.578125 L 6.265625 -20.4375 L 9.359375 -20.4375 L 9.359375 -16.578125 L 16.875 -16.578125 L 16.875 -14.265625 L 9.359375 -14.265625 L 9.359375 -5.578125 C 9.359375 -4.609375 9.414062 -3.941406 9.53125 -3.578125 C 9.65625 -3.210938 9.914062 -2.894531 10.3125 -2.625 C 11.019531 -2.15625 12.03125 -1.921875 13.34375 -1.921875 C 14.65625 -1.921875 15.945312 -2.066406 17.21875 -2.359375 Z M 17.21875 -0.015625 "/></g></g></g></svg>