<svg xmlns="http://www.w3.org/2000/svg" xmlns:xlink="http://www.w3.org/1999/xlink" width="258" zoomAndPan="magnify" viewBox="0 0 193.5 44.999999" height="60" preserveAspectRatio="xMidYMid meet" version="1.0"><defs><g/><clipPath id="4c75aaeec0"><path d="M 0 0.0585938 L 191.28125 0.0585938 L 191.28125 44.941406 L 0 44.941406 Z M 0 0.0585938 " clip-rule="nonzero"/></clipPath><clipPath id="bf8c46b37f"><path d="M 7.480469 0.0585938 L 183.796875 0.0585938 C 185.78125 0.0585938 187.683594 0.847656 189.089844 2.25 C 190.492188 3.652344 191.277344 5.554688 191.277344 7.539062 L 191.277344 37.460938 C 191.277344 39.445312 190.492188 41.347656 189.089844 42.75 C 187.683594 44.152344 185.78125 44.941406 183.796875 44.941406 L 7.480469 44.941406 C 5.496094 44.941406 3.59375 44.152344 2.191406 42.75 C 0.789062 41.347656 0 39.445312 0 37.460938 L 0 7.539062 C 0 5.554688 0.789062 3.652344 2.191406 2.25 C 3.59375 0.847656 5.496094 0.0585938 7.480469 0.0585938 Z M 7.480469 0.0585938 " clip-rule="nonzero"/></clipPath><clipPath id="d028a39042"><path d="M 113.574219 0.0585938 L 193 0.0585938 L 193 44.941406 L 113.574219 44.941406 Z M 113.574219 0.0585938 " clip-rule="nonzero"/></clipPath><clipPath id="c323ad76fc"><path d="M 121.054688 0.0585938 L 185.519531 0.0585938 C 187.503906 0.0585938 189.40625 0.847656 190.808594 2.25 C 192.214844 3.652344 193 5.554688 193 7.539062 L 193 37.460938 C 193 39.445312 192.214844 41.347656 190.808594 42.75 C 189.40625 44.152344 187.503906 44.941406 185.519531 44.941406 L 121.054688 44.941406 C 119.070312 44.941406 117.167969 44.152344 115.765625 42.75 C 114.359375 41.347656 113.574219 39.445312 113.574219 37.460938 L 113.574219 7.539062 C 113.574219 5.554688 114.359375 3.652344 115.765625 2.25 C 117.167969 0.847656 119.070312 0.0585938 121.054688 0.0585938 Z M 121.054688 0.0585938 " clip-rule="nonzero"/></clipPath><clipPath id="7024834248"><path d="M 105.222656 0.0585938 L 146.066406 0.0585938 L 146.066406 44.941406 L 105.222656 44.941406 Z M 105.222656 0.0585938 " clip-rule="nonzero"/></clipPath></defs><g clip-path="url(#4c75aaeec0)"><g clip-path="url(#bf8c46b37f)"><path fill="#0275bf" d="M 0 0.0585938 L 191.28125 0.0585938 L 191.28125 44.941406 L 0 44.941406 Z M 0 0.0585938 " fill-opacity="1" fill-rule="nonzero"/></g></g><g clip-path="url(#d028a39042)"><g clip-path="url(#c323ad76fc)"><path fill="#ec2125" d="M 113.574219 0.0585938 L 192.996094 0.0585938 L 192.996094 44.941406 L 113.574219 44.941406 Z M 113.574219 0.0585938 " fill-opacity="1" fill-rule="nonzero"/></g></g><g clip-path="url(#7024834248)"><path fill="#ec2125" d="M 105.222656 0.0585938 L 146.066406 0.0585938 L 146.066406 44.890625 L 105.222656 44.890625 Z M 105.222656 0.0585938 " fill-opacity="1" fill-rule="nonzero"/></g><g fill="#ffffff" fill-opacity="1"><g transform="translate(9.973954, 28.423655)"><g><path d="M 1.9375 -0.171875 L 1.9375 -1.8125 L 2.59375 -1.59375 C 3.5 -1.300781 4.222656 -1.15625 4.765625 -1.15625 C 5.679688 -1.15625 6.320312 -1.394531 6.6875 -1.875 C 7.0625 -2.363281 7.25 -3.210938 7.25 -4.421875 L 7.25 -11.203125 L 2.859375 -11.203125 L 2.859375 -12.671875 L 9.1875 -12.671875 L 9.1875 -5.453125 C 9.1875 -4.171875 9.109375 -3.21875 8.953125 -2.59375 C 8.804688 -1.96875 8.519531 -1.421875 8.09375 -0.953125 C 7.34375 -0.109375 6.273438 0.3125 4.890625 0.3125 C 4.117188 0.3125 3.132812 0.148438 1.9375 -0.171875 Z M 1.9375 -0.171875 "/></g></g></g><g fill="#ffffff" fill-opacity="1"><g transform="translate(22.153964, 28.423655)"><g><path d="M 8.25 -1.296875 C 7.0625 -0.304688 5.882812 0.1875 4.71875 0.1875 C 3.738281 0.1875 2.929688 -0.0859375 2.296875 -0.640625 C 1.660156 -1.203125 1.34375 -1.914062 1.34375 -2.78125 C 1.34375 -3.882812 1.832031 -4.773438 2.8125 -5.453125 C 3.800781 -6.128906 5.109375 -6.46875 6.734375 -6.46875 L 7.9375 -6.46875 L 7.9375 -7.390625 C 7.9375 -8.140625 7.769531 -8.675781 7.4375 -9 C 7.101562 -9.332031 6.550781 -9.5 5.78125 -9.5 C 4.644531 -9.5 3.472656 -9.179688 2.265625 -8.546875 L 2.265625 -10.21875 C 3.648438 -10.707031 4.957031 -10.953125 6.1875 -10.953125 C 7.539062 -10.953125 8.492188 -10.679688 9.046875 -10.140625 C 9.609375 -9.597656 9.890625 -8.671875 9.890625 -7.359375 L 9.890625 -2.859375 C 9.890625 -2.210938 9.957031 -1.769531 10.09375 -1.53125 C 10.238281 -1.300781 10.5 -1.1875 10.875 -1.1875 C 11 -1.1875 11.203125 -1.222656 11.484375 -1.296875 L 11.671875 -0.125 C 11.015625 0.0820312 10.515625 0.1875 10.171875 0.1875 C 9.222656 0.1875 8.582031 -0.304688 8.25 -1.296875 Z M 7.9375 -2.5625 L 7.9375 -5.265625 L 7.359375 -5.265625 C 4.691406 -5.265625 3.359375 -4.539062 3.359375 -3.09375 C 3.359375 -2.570312 3.53125 -2.15625 3.875 -1.84375 C 4.21875 -1.53125 4.671875 -1.375 5.234375 -1.375 C 6.078125 -1.375 6.976562 -1.769531 7.9375 -2.5625 Z M 7.9375 -2.5625 "/></g></g></g><g fill="#ffffff" fill-opacity="1"><g transform="translate(34.333974, 28.423655)"><g><path d="M 5.0625 0 L 0.609375 -10.71875 L 2.71875 -10.71875 L 6.203125 -2.34375 L 6.21875 -2.34375 L 9.796875 -10.71875 L 11.578125 -10.71875 L 7.015625 0 Z M 5.0625 0 "/></g></g></g><g fill="#ffffff" fill-opacity="1"><g transform="translate(46.513984, 28.423655)"><g><path d="M 8.25 -1.296875 C 7.0625 -0.304688 5.882812 0.1875 4.71875 0.1875 C 3.738281 0.1875 2.929688 -0.0859375 2.296875 -0.640625 C 1.660156 -1.203125 1.34375 -1.914062 1.34375 -2.78125 C 1.34375 -3.882812 1.832031 -4.773438 2.8125 -5.453125 C 3.800781 -6.128906 5.109375 -6.46875 6.734375 -6.46875 L 7.9375 -6.46875 L 7.9375 -7.390625 C 7.9375 -8.140625 7.769531 -8.675781 7.4375 -9 C 7.101562 -9.332031 6.550781 -9.5 5.78125 -9.5 C 4.644531 -9.5 3.472656 -9.179688 2.265625 -8.546875 L 2.265625 -10.21875 C 3.648438 -10.707031 4.957031 -10.953125 6.1875 -10.953125 C 7.539062 -10.953125 8.492188 -10.679688 9.046875 -10.140625 C 9.609375 -9.597656 9.890625 -8.671875 9.890625 -7.359375 L 9.890625 -2.859375 C 9.890625 -2.210938 9.957031 -1.769531 10.09375 -1.53125 C 10.238281 -1.300781 10.5 -1.1875 10.875 -1.1875 C 11 -1.1875 11.203125 -1.222656 11.484375 -1.296875 L 11.671875 -0.125 C 11.015625 0.0820312 10.515625 0.1875 10.171875 0.1875 C 9.222656 0.1875 8.582031 -0.304688 8.25 -1.296875 Z M 7.9375 -2.5625 L 7.9375 -5.265625 L 7.359375 -5.265625 C 4.691406 -5.265625 3.359375 -4.539062 3.359375 -3.09375 C 3.359375 -2.570312 3.53125 -2.15625 3.875 -1.84375 C 4.21875 -1.53125 4.671875 -1.375 5.234375 -1.375 C 6.078125 -1.375 6.976562 -1.769531 7.9375 -2.5625 Z M 7.9375 -2.5625 "/></g></g></g><g fill="#ffffff" fill-opacity="1"><g transform="translate(58.693994, 28.423655)"><g><path d="M 1.28125 0 L 1.28125 -12.671875 L 5.109375 -12.671875 C 9.316406 -12.671875 11.421875 -10.640625 11.421875 -6.578125 C 11.421875 -4.703125 10.960938 -3.1875 10.046875 -2.03125 C 9.472656 -1.300781 8.765625 -0.78125 7.921875 -0.46875 C 7.085938 -0.15625 5.972656 0 4.578125 0 Z M 3.234375 -1.46875 L 4.203125 -1.46875 C 6.054688 -1.46875 7.375 -1.832031 8.15625 -2.5625 C 8.945312 -3.300781 9.34375 -4.539062 9.34375 -6.28125 C 9.34375 -8.039062 8.984375 -9.300781 8.265625 -10.0625 C 7.554688 -10.820312 6.378906 -11.203125 4.734375 -11.203125 L 3.234375 -11.203125 Z M 3.234375 -1.46875 "/></g></g></g><g fill="#ffffff" fill-opacity="1"><g transform="translate(70.874003, 28.423655)"><g><path d="M 6.015625 0.25 C 4.484375 0.25 3.269531 -0.253906 2.375 -1.265625 C 1.476562 -2.273438 1.03125 -3.640625 1.03125 -5.359375 C 1.03125 -7.097656 1.476562 -8.460938 2.375 -9.453125 C 3.28125 -10.453125 4.519531 -10.953125 6.09375 -10.953125 C 7.65625 -10.953125 8.882812 -10.457031 9.78125 -9.46875 C 10.6875 -8.476562 11.140625 -7.113281 11.140625 -5.375 C 11.140625 -3.601562 10.6875 -2.222656 9.78125 -1.234375 C 8.882812 -0.242188 7.628906 0.25 6.015625 0.25 Z M 6.046875 -1.21875 C 7.015625 -1.21875 7.757812 -1.578125 8.28125 -2.296875 C 8.8125 -3.023438 9.078125 -4.050781 9.078125 -5.375 C 9.078125 -6.664062 8.8125 -7.675781 8.28125 -8.40625 C 7.757812 -9.132812 7.03125 -9.5 6.09375 -9.5 C 5.15625 -9.5 4.421875 -9.132812 3.890625 -8.40625 C 3.367188 -7.675781 3.109375 -6.660156 3.109375 -5.359375 C 3.109375 -4.066406 3.367188 -3.050781 3.890625 -2.3125 C 4.410156 -1.582031 5.128906 -1.21875 6.046875 -1.21875 Z M 6.046875 -1.21875 "/></g></g></g><g fill="#ffffff" fill-opacity="1"><g transform="translate(83.054013, 28.423655)"><g><path d="M 10.90625 -0.34375 C 9.757812 0.0507812 8.601562 0.25 7.4375 0.25 C 5.582031 0.25 4.148438 -0.234375 3.140625 -1.203125 C 2.128906 -2.179688 1.625 -3.566406 1.625 -5.359375 C 1.625 -7.117188 2.125 -8.488281 3.125 -9.46875 C 4.125 -10.457031 5.507812 -10.953125 7.28125 -10.953125 C 8.414062 -10.953125 9.5625 -10.78125 10.71875 -10.4375 L 10.71875 -8.8125 C 9.445312 -9.269531 8.367188 -9.5 7.484375 -9.5 C 6.304688 -9.5 5.378906 -9.128906 4.703125 -8.390625 C 4.035156 -7.660156 3.703125 -6.648438 3.703125 -5.359375 C 3.703125 -4.066406 4.054688 -3.050781 4.765625 -2.3125 C 5.472656 -1.582031 6.453125 -1.21875 7.703125 -1.21875 C 8.660156 -1.21875 9.726562 -1.4375 10.90625 -1.875 Z M 10.90625 -0.34375 "/></g></g></g><g fill="#ffffff" fill-opacity="1"><g transform="translate(118.653323, 28.423655)"><g><path d="M 1.703125 0 L 1.703125 -15.59375 L 3.65625 -15.59375 L 3.65625 -8.703125 C 4.59375 -10.203125 5.757812 -10.953125 7.15625 -10.953125 C 8.363281 -10.953125 9.320312 -10.484375 10.03125 -9.546875 C 10.738281 -8.609375 11.09375 -7.332031 11.09375 -5.71875 C 11.09375 -3.9375 10.675781 -2.492188 9.84375 -1.390625 C 9.007812 -0.296875 7.921875 0.25 6.578125 0.25 C 5.429688 0.25 4.457031 -0.238281 3.65625 -1.21875 L 3.421875 0 Z M 3.65625 -2.671875 C 4.550781 -1.703125 5.4375 -1.21875 6.3125 -1.21875 C 7.175781 -1.21875 7.84375 -1.59375 8.3125 -2.34375 C 8.78125 -3.09375 9.015625 -4.148438 9.015625 -5.515625 C 9.015625 -8.035156 8.265625 -9.296875 6.765625 -9.296875 C 5.660156 -9.296875 4.625 -8.613281 3.65625 -7.25 Z M 3.65625 -2.671875 "/></g></g></g><g fill="#ffffff" fill-opacity="1"><g transform="translate(130.833333, 28.423655)"><g><path d="M 8.4375 0 L 8.4375 -2.1875 C 7.863281 -1.289062 7.304688 -0.660156 6.765625 -0.296875 C 6.222656 0.0664062 5.5625 0.25 4.78125 0.25 C 2.75 0.25 1.734375 -0.960938 1.734375 -3.390625 L 1.734375 -10.71875 L 3.6875 -10.71875 L 3.6875 -3.765625 C 3.6875 -2.929688 3.816406 -2.335938 4.078125 -1.984375 C 4.335938 -1.640625 4.769531 -1.46875 5.375 -1.46875 C 6.53125 -1.46875 7.550781 -2.234375 8.4375 -3.765625 L 8.4375 -10.71875 L 10.390625 -10.71875 L 10.390625 0 Z M 8.4375 0 "/></g></g></g><g fill="#ffffff" fill-opacity="1"><g transform="translate(143.013343, 28.423655)"><g><path d="M 5.609375 0 L 5.609375 -9.265625 L 1.703125 -9.265625 L 1.703125 -10.71875 L 7.546875 -10.71875 L 7.546875 0 Z M 5.359375 -13.15625 L 5.359375 -15.59375 L 7.796875 -15.59375 L 7.796875 -13.15625 Z M 5.359375 -13.15625 "/></g></g></g><g fill="#ffffff" fill-opacity="1"><g transform="translate(155.193353, 28.423655)"><g><path d="M 5.84375 0 L 5.84375 -14.125 L 1.703125 -14.125 L 1.703125 -15.59375 L 7.796875 -15.59375 L 7.796875 0 Z M 5.84375 0 "/></g></g></g><g fill="#ffffff" fill-opacity="1"><g transform="translate(167.373362, 28.423655)"><g><path d="M 10.875 -0.015625 C 9.90625 0.160156 8.96875 0.25 8.0625 0.25 C 6.46875 0.25 5.382812 -0.0351562 4.8125 -0.609375 C 4.238281 -1.179688 3.953125 -2.257812 3.953125 -3.84375 L 3.953125 -9.015625 L 1.28125 -9.015625 L 1.28125 -10.46875 L 3.953125 -10.46875 L 3.953125 -12.90625 L 5.90625 -12.90625 L 5.90625 -10.46875 L 10.65625 -10.46875 L 10.65625 -9.015625 L 5.90625 -9.015625 L 5.90625 -3.53125 C 5.90625 -2.914062 5.941406 -2.492188 6.015625 -2.265625 C 6.097656 -2.035156 6.265625 -1.832031 6.515625 -1.65625 C 6.960938 -1.363281 7.601562 -1.21875 8.4375 -1.21875 C 9.257812 -1.21875 10.070312 -1.304688 10.875 -1.484375 Z M 10.875 -0.015625 "/></g></g></g></svg>