<svg xmlns="http://www.w3.org/2000/svg" xmlns:xlink="http://www.w3.org/1999/xlink" width="258" zoomAndPan="magnify" viewBox="0 0 193.5 44.999999" height="60" preserveAspectRatio="xMidYMid meet" version="1.0"><defs><g/><clipPath id="cdd8aaad72"><path d="M 0 0.0585938 L 191.28125 0.0585938 L 191.28125 44.941406 L 0 44.941406 Z M 0 0.0585938 " clip-rule="nonzero"/></clipPath><clipPath id="9c3bfd3835"><path d="M 7.480469 0.0585938 L 183.796875 0.0585938 C 185.78125 0.0585938 187.683594 0.847656 189.089844 2.25 C 190.492188 3.652344 191.277344 5.554688 191.277344 7.539062 L 191.277344 37.460938 C 191.277344 39.445312 190.492188 41.347656 189.089844 42.75 C 187.683594 44.152344 185.78125 44.941406 183.796875 44.941406 L 7.480469 44.941406 C 5.496094 44.941406 3.59375 44.152344 2.191406 42.75 C 0.789062 41.347656 0 39.445312 0 37.460938 L 0 7.539062 C 0 5.554688 0.789062 3.652344 2.191406 2.25 C 3.59375 0.847656 5.496094 0.0585938 7.480469 0.0585938 Z M 7.480469 0.0585938 " clip-rule="nonzero"/></clipPath><clipPath id="07595ac3db"><path d="M 113.574219 0.0585938 L 193 0.0585938 L 193 44.941406 L 113.574219 44.941406 Z M 113.574219 0.0585938 " clip-rule="nonzero"/></clipPath><clipPath id="9288a409b1"><path d="M 121.054688 0.0585938 L 185.519531 0.0585938 C 187.503906 0.0585938 189.40625 0.847656 190.808594 2.25 C 192.214844 3.652344 193 5.554688 193 7.539062 L 193 37.460938 C 193 39.445312 192.214844 41.347656 190.808594 42.75 C 189.40625 44.152344 187.503906 44.941406 185.519531 44.941406 L 121.054688 44.941406 C 119.070312 44.941406 117.167969 44.152344 115.765625 42.75 C 114.359375 41.347656 113.574219 39.445312 113.574219 37.460938 L 113.574219 7.539062 C 113.574219 5.554688 114.359375 3.652344 115.765625 2.25 C 117.167969 0.847656 119.070312 0.0585938 121.054688 0.0585938 Z M 121.054688 0.0585938 " clip-rule="nonzero"/></clipPath><clipPath id="5f02349d5b"><path d="M 110.265625 0.0585938 L 151.109375 0.0585938 L 151.109375 44.941406 L 110.265625 44.941406 Z M 110.265625 0.0585938 " clip-rule="nonzero"/></clipPath></defs><g clip-path="url(#cdd8aaad72)"><g clip-path="url(#9c3bfd3835)"><path fill="#0275bf" d="M 0 0.0585938 L 191.28125 0.0585938 L 191.28125 44.941406 L 0 44.941406 Z M 0 0.0585938 " fill-opacity="1" fill-rule="nonzero"/></g></g><g clip-path="url(#07595ac3db)"><g clip-path="url(#9288a409b1)"><path fill="#ec2125" d="M 113.574219 0.0585938 L 192.996094 0.0585938 L 192.996094 44.941406 L 113.574219 44.941406 Z M 113.574219 0.0585938 " fill-opacity="1" fill-rule="nonzero"/></g></g><g clip-path="url(#5f02349d5b)"><path fill="#ec2125" d="M 110.265625 0.0585938 L 151.109375 0.0585938 L 151.109375 44.890625 L 110.265625 44.890625 Z M 110.265625 0.0585938 " fill-opacity="1" fill-rule="nonzero"/></g><g fill="#ffffff" fill-opacity="1"><g transform="translate(4.067614, 31.096992)"><g><path d="M 2.328125 -0.203125 L 2.328125 -2.171875 L 3.109375 -1.921875 C 4.191406 -1.554688 5.054688 -1.375 5.703125 -1.375 C 6.796875 -1.375 7.5625 -1.664062 8 -2.25 C 8.445312 -2.832031 8.671875 -3.847656 8.671875 -5.296875 L 8.671875 -13.40625 L 3.421875 -13.40625 L 3.421875 -15.15625 L 11 -15.15625 L 11 -6.53125 C 11 -5 10.90625 -3.859375 10.71875 -3.109375 C 10.539062 -2.359375 10.195312 -1.703125 9.6875 -1.140625 C 8.789062 -0.140625 7.507812 0.359375 5.84375 0.359375 C 4.9375 0.359375 3.765625 0.171875 2.328125 -0.203125 Z M 2.328125 -0.203125 "/></g></g></g><g fill="#ffffff" fill-opacity="1"><g transform="translate(18.653265, 31.096992)"><g><path d="M 9.875 -1.546875 C 8.457031 -0.367188 7.050781 0.21875 5.65625 0.21875 C 4.476562 0.21875 3.507812 -0.113281 2.75 -0.78125 C 1.988281 -1.445312 1.609375 -2.296875 1.609375 -3.328125 C 1.609375 -4.648438 2.195312 -5.71875 3.375 -6.53125 C 4.5625 -7.34375 6.125 -7.75 8.0625 -7.75 L 9.5 -7.75 L 9.5 -8.859375 C 9.5 -9.753906 9.296875 -10.394531 8.890625 -10.78125 C 8.492188 -11.175781 7.832031 -11.375 6.90625 -11.375 C 5.550781 -11.375 4.15625 -10.992188 2.71875 -10.234375 L 2.71875 -12.234375 C 4.375 -12.828125 5.9375 -13.125 7.40625 -13.125 C 9.019531 -13.125 10.160156 -12.796875 10.828125 -12.140625 C 11.503906 -11.492188 11.84375 -10.378906 11.84375 -8.796875 L 11.84375 -3.421875 C 11.84375 -2.648438 11.925781 -2.125 12.09375 -1.84375 C 12.257812 -1.570312 12.566406 -1.4375 13.015625 -1.4375 C 13.171875 -1.4375 13.414062 -1.472656 13.75 -1.546875 L 13.96875 -0.15625 C 13.1875 0.09375 12.59375 0.21875 12.1875 0.21875 C 11.039062 0.21875 10.269531 -0.367188 9.875 -1.546875 Z M 9.5 -3.0625 L 9.5 -6.296875 L 8.796875 -6.296875 C 5.609375 -6.296875 4.015625 -5.429688 4.015625 -3.703125 C 4.015625 -3.085938 4.21875 -2.585938 4.625 -2.203125 C 5.039062 -1.828125 5.585938 -1.640625 6.265625 -1.640625 C 7.273438 -1.640625 8.351562 -2.113281 9.5 -3.0625 Z M 9.5 -3.0625 "/></g></g></g><g fill="#ffffff" fill-opacity="1"><g transform="translate(33.238915, 31.096992)"><g><path d="M 6.046875 0 L 0.734375 -12.828125 L 3.265625 -12.828125 L 7.421875 -2.8125 L 7.4375 -2.8125 L 11.71875 -12.828125 L 13.84375 -12.828125 L 8.390625 0 Z M 6.046875 0 "/></g></g></g><g fill="#ffffff" fill-opacity="1"><g transform="translate(47.824566, 31.096992)"><g><path d="M 9.875 -1.546875 C 8.457031 -0.367188 7.050781 0.21875 5.65625 0.21875 C 4.476562 0.21875 3.507812 -0.113281 2.75 -0.78125 C 1.988281 -1.445312 1.609375 -2.296875 1.609375 -3.328125 C 1.609375 -4.648438 2.195312 -5.71875 3.375 -6.53125 C 4.5625 -7.34375 6.125 -7.75 8.0625 -7.75 L 9.5 -7.75 L 9.5 -8.859375 C 9.5 -9.753906 9.296875 -10.394531 8.890625 -10.78125 C 8.492188 -11.175781 7.832031 -11.375 6.90625 -11.375 C 5.550781 -11.375 4.15625 -10.992188 2.71875 -10.234375 L 2.71875 -12.234375 C 4.375 -12.828125 5.9375 -13.125 7.40625 -13.125 C 9.019531 -13.125 10.160156 -12.796875 10.828125 -12.140625 C 11.503906 -11.492188 11.84375 -10.378906 11.84375 -8.796875 L 11.84375 -3.421875 C 11.84375 -2.648438 11.925781 -2.125 12.09375 -1.84375 C 12.257812 -1.570312 12.566406 -1.4375 13.015625 -1.4375 C 13.171875 -1.4375 13.414062 -1.472656 13.75 -1.546875 L 13.96875 -0.15625 C 13.1875 0.09375 12.59375 0.21875 12.1875 0.21875 C 11.039062 0.21875 10.269531 -0.367188 9.875 -1.546875 Z M 9.5 -3.0625 L 9.5 -6.296875 L 8.796875 -6.296875 C 5.609375 -6.296875 4.015625 -5.429688 4.015625 -3.703125 C 4.015625 -3.085938 4.21875 -2.585938 4.625 -2.203125 C 5.039062 -1.828125 5.585938 -1.640625 6.265625 -1.640625 C 7.273438 -1.640625 8.351562 -2.113281 9.5 -3.0625 Z M 9.5 -3.0625 "/></g></g></g><g fill="#ffffff" fill-opacity="1"><g transform="translate(62.410217, 31.096992)"><g><path d="M 1.53125 0 L 1.53125 -15.15625 L 6.109375 -15.15625 C 11.148438 -15.15625 13.671875 -12.726562 13.671875 -7.875 C 13.671875 -5.632812 13.125 -3.820312 12.03125 -2.4375 C 11.34375 -1.5625 10.492188 -0.9375 9.484375 -0.5625 C 8.484375 -0.1875 7.148438 0 5.484375 0 Z M 3.859375 -1.75 L 5.03125 -1.75 C 7.25 -1.75 8.828125 -2.1875 9.765625 -3.0625 C 10.710938 -3.945312 11.1875 -5.429688 11.1875 -7.515625 C 11.1875 -9.628906 10.757812 -11.140625 9.90625 -12.046875 C 9.050781 -12.953125 7.632812 -13.40625 5.65625 -13.40625 L 3.859375 -13.40625 Z M 3.859375 -1.75 "/></g></g></g><g fill="#ffffff" fill-opacity="1"><g transform="translate(76.995867, 31.096992)"><g><path d="M 7.203125 0.296875 C 5.367188 0.296875 3.914062 -0.304688 2.84375 -1.515625 C 1.769531 -2.722656 1.234375 -4.359375 1.234375 -6.421875 C 1.234375 -8.492188 1.773438 -10.128906 2.859375 -11.328125 C 3.941406 -12.523438 5.421875 -13.125 7.296875 -13.125 C 9.171875 -13.125 10.644531 -12.523438 11.71875 -11.328125 C 12.800781 -10.140625 13.34375 -8.507812 13.34375 -6.4375 C 13.34375 -4.320312 12.800781 -2.671875 11.71875 -1.484375 C 10.632812 -0.296875 9.128906 0.296875 7.203125 0.296875 Z M 7.25 -1.453125 C 8.394531 -1.453125 9.28125 -1.882812 9.90625 -2.75 C 10.539062 -3.625 10.859375 -4.851562 10.859375 -6.4375 C 10.859375 -7.976562 10.539062 -9.1875 9.90625 -10.0625 C 9.28125 -10.9375 8.410156 -11.375 7.296875 -11.375 C 6.171875 -11.375 5.289062 -10.9375 4.65625 -10.0625 C 4.03125 -9.1875 3.71875 -7.972656 3.71875 -6.421875 C 3.71875 -4.867188 4.03125 -3.648438 4.65625 -2.765625 C 5.289062 -1.890625 6.15625 -1.453125 7.25 -1.453125 Z M 7.25 -1.453125 "/></g></g></g><g fill="#ffffff" fill-opacity="1"><g transform="translate(91.581518, 31.096992)"><g><path d="M 13.0625 -0.40625 C 11.675781 0.0625 10.289062 0.296875 8.90625 0.296875 C 6.6875 0.296875 4.972656 -0.285156 3.765625 -1.453125 C 2.554688 -2.617188 1.953125 -4.273438 1.953125 -6.421875 C 1.953125 -8.523438 2.546875 -10.164062 3.734375 -11.34375 C 4.929688 -12.53125 6.585938 -13.125 8.703125 -13.125 C 10.066406 -13.125 11.441406 -12.914062 12.828125 -12.5 L 12.828125 -10.546875 C 11.304688 -11.097656 10.015625 -11.375 8.953125 -11.375 C 7.546875 -11.375 6.441406 -10.929688 5.640625 -10.046875 C 4.835938 -9.171875 4.4375 -7.960938 4.4375 -6.421875 C 4.4375 -4.867188 4.859375 -3.648438 5.703125 -2.765625 C 6.554688 -1.890625 7.726562 -1.453125 9.21875 -1.453125 C 10.363281 -1.453125 11.644531 -1.71875 13.0625 -2.25 Z M 13.0625 -0.40625 "/></g></g></g><g fill="#ffffff" fill-opacity="1"><g transform="translate(115.163289, 31.096992)"><g><path d="M 2.046875 0 L 2.046875 -18.65625 L 4.375 -18.65625 L 4.375 -10.421875 C 5.5 -12.222656 6.894531 -13.125 8.5625 -13.125 C 10.019531 -13.125 11.164062 -12.5625 12 -11.4375 C 12.84375 -10.3125 13.265625 -8.78125 13.265625 -6.84375 C 13.265625 -4.71875 12.769531 -2.992188 11.78125 -1.671875 C 10.789062 -0.359375 9.488281 0.296875 7.875 0.296875 C 6.5 0.296875 5.332031 -0.285156 4.375 -1.453125 L 4.09375 0 Z M 4.375 -3.203125 C 5.445312 -2.035156 6.507812 -1.453125 7.5625 -1.453125 C 8.582031 -1.453125 9.375 -1.898438 9.9375 -2.796875 C 10.507812 -3.703125 10.796875 -4.96875 10.796875 -6.59375 C 10.796875 -9.613281 9.898438 -11.125 8.109375 -11.125 C 6.773438 -11.125 5.53125 -10.304688 4.375 -8.671875 Z M 4.375 -3.203125 "/></g></g></g><g fill="#ffffff" fill-opacity="1"><g transform="translate(129.74894, 31.096992)"><g><path d="M 10.109375 0 L 10.109375 -2.625 C 9.410156 -1.539062 8.738281 -0.78125 8.09375 -0.34375 C 7.445312 0.0820312 6.65625 0.296875 5.71875 0.296875 C 3.289062 0.296875 2.078125 -1.148438 2.078125 -4.046875 L 2.078125 -12.828125 L 4.40625 -12.828125 L 4.40625 -4.515625 C 4.40625 -3.515625 4.5625 -2.800781 4.875 -2.375 C 5.1875 -1.957031 5.707031 -1.75 6.4375 -1.75 C 7.820312 -1.75 9.046875 -2.671875 10.109375 -4.515625 L 10.109375 -12.828125 L 12.4375 -12.828125 L 12.4375 0 Z M 10.109375 0 "/></g></g></g><g fill="#ffffff" fill-opacity="1"><g transform="translate(144.334591, 31.096992)"><g><path d="M 6.71875 0 L 6.71875 -11.078125 L 2.046875 -11.078125 L 2.046875 -12.828125 L 9.046875 -12.828125 L 9.046875 0 Z M 6.421875 -15.734375 L 6.421875 -18.65625 L 9.34375 -18.65625 L 9.34375 -15.734375 Z M 6.421875 -15.734375 "/></g></g></g><g fill="#ffffff" fill-opacity="1"><g transform="translate(158.920241, 31.096992)"><g><path d="M 7 0 L 7 -16.90625 L 2.046875 -16.90625 L 2.046875 -18.65625 L 9.34375 -18.65625 L 9.34375 0 Z M 7 0 "/></g></g></g><g fill="#ffffff" fill-opacity="1"><g transform="translate(173.505892, 31.096992)"><g><path d="M 13.015625 -0.015625 C 11.859375 0.191406 10.738281 0.296875 9.65625 0.296875 C 7.75 0.296875 6.453125 -0.0390625 5.765625 -0.71875 C 5.078125 -1.40625 4.734375 -2.695312 4.734375 -4.59375 L 4.734375 -10.796875 L 1.53125 -10.796875 L 1.53125 -12.53125 L 4.734375 -12.53125 L 4.734375 -15.453125 L 7.078125 -15.453125 L 7.078125 -12.53125 L 12.765625 -12.53125 L 12.765625 -10.796875 L 7.078125 -10.796875 L 7.078125 -4.21875 C 7.078125 -3.488281 7.117188 -2.984375 7.203125 -2.703125 C 7.296875 -2.429688 7.492188 -2.191406 7.796875 -1.984375 C 8.335938 -1.628906 9.101562 -1.453125 10.09375 -1.453125 C 11.082031 -1.453125 12.054688 -1.5625 13.015625 -1.78125 Z M 13.015625 -0.015625 "/></g></g></g></svg>